<svg width="22" height="22" viewBox="0 0 22 22" fill="none" xmlns="http://www.w3.org/2000/svg">
<path d="M12.9185 15.2451C12.8647 16.6191 11.6965 17.6991 10.3226 17.6453C8.94861 17.5914 7.86853 16.4232 7.92238 15.0493L9.58777 15.1146C9.56982 15.5726 9.92985 15.962 10.3878 15.9799C10.8458 15.9979 11.2352 15.6378 11.2532 15.1799C11.2711 14.7219 10.9111 14.3325 10.4531 14.3145L2.54251 14.0045L2.60779 12.3391L10.5184 12.6491C11.8923 12.703 12.9724 13.8712 12.9185 15.2451ZM17.0084 6.64871C17.0714 5.04161 15.8153 3.68304 14.2082 3.62005C12.6011 3.55706 11.2425 4.81315 11.1795 6.42025L12.8449 6.48552C12.872 5.79438 13.4518 5.25835 14.1429 5.28544C14.834 5.31252 15.3701 5.8923 15.343 6.58343C15.3159 7.27457 14.7361 7.81061 14.045 7.78352L2.80361 7.34291L2.73834 9.0083L13.9797 9.44891C15.5868 9.5119 16.9454 8.25581 17.0084 6.64871ZM16.4451 10.3795L2.7057 9.841L2.64042 11.5064L16.3799 12.0449C17.071 12.072 17.607 12.6518 17.58 13.3429C17.5529 14.034 16.9731 14.5701 16.282 14.543L16.2167 16.2084C17.8238 16.2714 19.1824 15.0153 19.2453 13.4082C19.3083 11.8011 18.0522 10.4425 16.4451 10.3795Z" fill="#F7941D"/>
</svg>
