<svg width="12" height="20" viewBox="0 0 12 20" fill="none" xmlns="http://www.w3.org/2000/svg">
<path d="M10.5167 16.4671L4.05005 10.0004L10.5167 3.53372C10.671 3.37942 10.7934 3.19623 10.8769 2.99463C10.9604 2.79302 11.0034 2.57694 11.0034 2.35872C11.0034 2.1405 10.9604 1.92442 10.8769 1.72282C10.7934 1.52121 10.671 1.33803 10.5167 1.18372C10.3624 1.02942 10.1792 0.90702 9.97762 0.823511C9.77602 0.740003 9.55993 0.697021 9.34172 0.697021C9.1235 0.697021 8.90742 0.740003 8.70581 0.823511C8.50421 0.90702 8.32102 1.02942 8.16672 1.18372L0.516721 8.83372C-0.133279 9.48372 -0.133279 10.5337 0.516721 11.1837L8.16672 18.8337C8.32091 18.9882 8.50406 19.1108 8.70568 19.1944C8.9073 19.2781 9.12344 19.3211 9.34172 19.3211C9.56 19.3211 9.77614 19.2781 9.97776 19.1944C10.1794 19.1108 10.3625 18.9882 10.5167 18.8337C11.15 18.1837 11.1667 17.1171 10.5167 16.4671Z" fill="white"/>
</svg>
