<svg width="12" height="20" viewBox="0 0 12 20" fill="none" xmlns="http://www.w3.org/2000/svg">
<path d="M1.48328 16.4671L7.94995 10.0004L1.48328 3.53372C1.32898 3.37942 1.20658 3.19623 1.12307 2.99463C1.03956 2.79302 0.996582 2.57694 0.996582 2.35872C0.996582 2.1405 1.03956 1.92442 1.12307 1.72282C1.20658 1.52121 1.32898 1.33803 1.48328 1.18372C1.63759 1.02942 1.82077 0.90702 2.02238 0.823511C2.22398 0.740003 2.44007 0.697021 2.65828 0.697021C2.8765 0.697021 3.09258 0.740003 3.29419 0.823511C3.49579 0.90702 3.67898 1.02942 3.83328 1.18372L11.4833 8.83372C12.1333 9.48372 12.1333 10.5337 11.4833 11.1837L3.83328 18.8337C3.67909 18.9882 3.49594 19.1108 3.29432 19.1944C3.0927 19.2781 2.87656 19.3211 2.65828 19.3211C2.44 19.3211 2.22386 19.2781 2.02224 19.1944C1.82062 19.1108 1.63747 18.9882 1.48328 18.8337C0.84995 18.1837 0.833283 17.1171 1.48328 16.4671Z" fill="white"/>
</svg>
