<svg width="270" height="160" viewBox="0 0 270 160" fill="none" xmlns="http://www.w3.org/2000/svg">
<rect width="270" height="160" fill="#043C94"/>
<path fill-rule="evenodd" clip-rule="evenodd" d="M167.019 54.5438C171.488 57.2674 169.686 63.6888 164.453 63.6888C163.777 63.6888 163.153 63.574 163.066 63.4338C162.98 63.2935 162.732 63.1787 162.515 63.1787C162.299 63.1787 161.761 62.8032 161.319 62.3448C158.869 59.8004 159.424 56.2238 162.563 54.3322C163.437 53.8049 166.007 53.9273 167.019 54.5438ZM55.3212 55.4785C57.9593 55.9541 59.5997 56.6312 61.2522 57.9254C65.4862 61.2444 65.7807 68.7311 61.8299 72.6087L60.6918 73.7257L61.8955 74.543C64.855 76.5513 66.0204 78.9714 66.0275 83.1186C66.03 84.8368 65.9235 86.1673 65.7769 86.2579C65.6366 86.3446 65.5219 86.6959 65.5219 87.0382C65.5219 87.3806 65.4199 87.6605 65.2943 87.6605C65.1693 87.6605 65.001 87.9238 64.92 88.2457C64.526 89.8167 61.6647 92.4102 59.4014 93.2473C58.9105 93.429 58.2794 93.6719 57.9988 93.7873C56.7403 94.3056 55.4576 94.3891 47.4794 94.472L39 94.5594V76.2478C39 59.516 39.037 57.8827 39.4284 57.3063C40.0233 56.431 40.9063 55.7322 41.876 55.3688C42.8616 54.9997 53.1293 55.0838 55.3212 55.4785ZM138.568 55.5473C140.68 56.54 140.752 56.9149 140.752 66.874V75.4196H141.905H143.058L145.255 72.0406C146.463 70.1822 147.857 68.0592 148.352 67.3228L149.253 65.9839H153.786C156.278 65.9839 158.377 66.0789 158.449 66.195C158.585 66.4149 153.33 74.4633 152.954 74.6118C152.835 74.659 152.738 74.8382 152.738 75.0103C152.738 75.1824 152.537 75.5458 152.292 75.8181C152.046 76.0897 151.683 76.6278 151.483 77.0135C151.284 77.3992 151.026 77.7148 150.91 77.7148C150.794 77.7148 150.698 77.8493 150.698 78.0138C150.698 78.1776 150.508 78.5219 150.276 78.7788C149.892 79.2028 149.89 79.285 150.254 79.6912C150.475 79.9366 151.45 81.6867 152.421 83.5802C154.405 87.4501 154.563 87.7306 156.915 91.5501C157.844 93.0579 158.603 94.349 158.603 94.4191C158.603 94.4886 156.621 94.546 154.199 94.546H149.794L148.865 93.7803C147.885 92.9725 147.188 91.8179 144.556 86.6404C142.753 83.0931 142.742 83.0797 141.586 83.074L140.762 83.0702L140.694 88.7443L140.625 94.4185H136.417H132.209L132.143 75.0371C132.107 64.3773 132.132 55.5123 132.199 55.3369C132.42 54.7574 137.225 54.9162 138.568 55.5473ZM48.3572 62.0707C46.9904 62.3085 46.6525 63.349 46.6512 67.3228L46.6505 70.8293H50.0844C55.4193 70.8293 56.9966 69.4834 56.4828 65.3706C56.1385 62.6139 52.8698 61.2865 48.3572 62.0707ZM86.8159 65.8386C87.2367 65.9393 87.8105 66.1172 88.091 66.2326C88.3715 66.348 89.0027 66.5902 89.4936 66.77C92.3415 67.8156 96.8891 72.522 96.8891 74.4238C96.8891 74.6743 96.9911 74.9427 97.1161 75.0199C97.7205 75.3928 98.1151 81.7511 97.6471 83.5725C96.3708 88.539 93.2691 92.298 89.2386 93.7631C88.7477 93.9416 88.1165 94.1826 87.836 94.2992C85.7843 95.1516 80.1338 95.0821 77.6352 94.1743C65.6915 89.832 64.7065 72.3447 76.1051 67.0104C76.8064 66.6821 77.5798 66.3167 77.8233 66.1988C78.0669 66.0809 78.5259 65.982 78.8434 65.9801C79.1609 65.9782 79.5925 65.8615 79.8029 65.7206C80.2192 65.4433 85.5433 65.5326 86.8159 65.8386ZM117.988 65.7589C118.656 65.9157 119.403 66.1452 119.646 66.2689C119.89 66.3926 120.259 66.494 120.467 66.494C121.434 66.494 124.516 68.6253 126.043 70.3499C127.194 71.6492 128.766 74.4856 128.766 75.2609C128.766 75.4719 128.866 75.7065 128.988 75.7817C129.111 75.857 129.283 76.4665 129.371 77.1359C129.459 77.8047 129.603 78.8018 129.692 79.3513C129.98 81.1448 128.901 85.73 127.678 87.911C122.142 97.7841 105.657 97.1554 101.052 86.8954C100.744 86.2081 100.439 85.3188 99.9608 83.7077C99.4616 82.0278 99.7791 76.6756 100.478 74.9733C102.057 71.1334 104.116 68.7974 107.263 67.2794C108.22 66.8178 109.202 66.3378 109.446 66.2122C109.689 66.0866 110.148 65.982 110.466 65.9801C110.783 65.9782 111.215 65.8647 111.425 65.7289C111.951 65.3891 116.501 65.4102 117.988 65.7589ZM193.668 65.7289C193.755 65.8692 194.106 65.9839 194.449 65.9839C194.791 65.9839 195.071 66.0987 195.071 66.239C195.071 66.3792 195.283 66.494 195.542 66.494C196.288 66.494 198.486 68.7942 199.203 70.3243C200.334 72.7387 200.426 73.8066 200.426 84.4855V94.546H197.481C192.057 94.546 192.179 94.7825 191.996 83.9627C191.819 73.5261 191.813 73.507 188.555 73.5357C185.821 73.5593 183.176 75.2896 182.676 77.3807C182.582 77.7747 182.378 78.258 182.223 78.4537C182.036 78.6883 181.896 81.4795 181.811 86.6143L181.683 94.4185L177.537 94.4886L173.39 94.5587L173.456 80.3351L173.522 66.1114L176.05 66.0381C177.558 65.9941 178.684 66.0713 178.842 66.2294C178.988 66.3748 179.261 66.494 179.45 66.494C179.826 66.494 181.045 67.6161 181.045 67.9616C181.045 68.6954 181.68 68.733 182.552 68.0509C183.826 67.0531 185.813 65.9839 186.395 65.9839C186.662 65.9839 186.951 65.8692 187.038 65.7289C187.129 65.581 188.523 65.4739 190.353 65.4739C192.183 65.4739 193.577 65.581 193.668 65.7289ZM219.28 65.7646C220.606 66.1886 222.322 67.0359 222.648 67.4286C223.014 67.8698 223.612 67.8647 223.784 67.4191C224.135 66.5029 225.98 65.9604 228.484 66.0375L230.901 66.1114L230.981 79.6274C231.037 89.2677 230.972 93.654 230.756 94.924C229.975 99.4863 227.105 102.701 221.975 104.759C218.955 105.97 211.881 105.702 208.204 104.237C205.287 103.074 205.236 102.988 206.131 100.707C206.5 99.7662 206.802 98.8953 206.802 98.7716C206.802 97.4742 210.106 96.0455 210.738 97.0694C211.07 97.6062 218.138 98.1028 218.618 97.6234C218.767 97.4736 219.041 97.3512 219.225 97.3512C220.473 97.3512 222.109 95.2607 222.469 93.2071C222.646 92.1928 222.218 91.8797 221.628 92.5912C221.472 92.7787 220.856 93.079 220.258 93.2581C219.66 93.4379 218.868 93.6948 218.498 93.8294C216.82 94.4395 212.411 93.8294 210.01 92.6544C207.842 91.5935 204.252 87.6235 204.252 86.2872C204.252 86.0768 204.137 85.8345 203.997 85.7478C203.856 85.6611 203.742 85.3328 203.742 85.0185C203.742 84.7042 203.601 84.3064 203.429 84.1349C202.918 83.6235 203.005 76.1101 203.54 74.631C204.245 72.6801 204.871 71.3393 205.077 71.3393C205.184 71.3393 205.272 71.215 205.272 71.0633C205.272 69.8137 209.176 66.7668 212.03 65.7901C213.087 65.428 218.169 65.4102 219.28 65.7646ZM167.01 66.4423C167.496 66.6814 168.156 67.2667 168.477 67.7429L169.059 68.6093V81.584V94.5587L164.915 94.4886L160.771 94.4185L160.7 80.775C160.661 73.2711 160.693 66.8733 160.769 66.5577C160.954 65.7946 165.52 65.7104 167.01 66.4423ZM81.078 72.8548C80.8676 72.9708 80.3512 73.222 79.9304 73.4139C75.3229 75.5114 75.2674 84.9547 79.8501 87.0631C81.6371 87.8855 84.1809 88.2107 84.5207 87.6605C84.6074 87.5202 84.946 87.4055 85.273 87.4055C88.404 87.4055 90.8069 80.5391 88.9536 76.8891C88.8299 76.6456 88.7285 76.3013 88.7285 76.1235C88.7285 75.623 85.9737 73.1244 85.4229 73.1244C85.1538 73.1244 84.8624 73.0097 84.7757 72.8694C84.5877 72.5653 81.625 72.5538 81.078 72.8548ZM112.828 72.8694C112.741 73.0097 112.45 73.1244 112.181 73.1244C111.63 73.1244 108.875 75.623 108.875 76.1235C108.875 76.3013 108.77 76.6456 108.642 76.8891C106.828 80.3459 109.308 87.4055 112.339 87.4055C112.661 87.4055 112.996 87.5202 113.083 87.6605C113.672 88.6136 117.674 87.5279 119.201 86.0009C119.623 85.5789 120.125 84.8903 120.317 84.4708C120.508 84.0513 120.766 83.5081 120.891 83.2646C121.014 83.0211 121.116 81.6714 121.116 80.2649C121.116 78.8585 121.014 77.5088 120.891 77.2653C120.766 77.0218 120.519 76.5098 120.341 76.1279C119.19 73.6638 113.785 71.3196 112.828 72.8694ZM213.916 73.6982C212.007 74.9619 210.897 78.9057 211.651 81.7415C212.174 83.7102 213.632 85.8753 214.434 85.8753C214.561 85.8753 214.711 86.0131 214.767 86.1814C214.997 86.8712 219.14 86.5658 220.165 85.7842C221.993 84.3905 222.913 81.0816 222.339 77.9698C221.653 74.2478 220.395 73.1244 216.917 73.1244C215.131 73.1244 214.642 73.2182 213.916 73.6982ZM47.8574 77.6363C46.9508 77.8729 46.6505 79.3265 46.6505 83.4839V87.4055H50.7232C55.362 87.4055 57.3613 86.7584 57.3613 85.2563C57.3613 85.0357 57.4761 84.8553 57.6163 84.8553C57.9925 84.8553 57.9376 80.6296 57.5526 79.9494C56.3476 77.8193 51.5482 76.6743 47.8574 77.6363Z" fill="white"/>
</svg>
