<svg width="18" height="20" viewBox="0 0 18 20" fill="none" xmlns="http://www.w3.org/2000/svg">
<path d="M10.5574 18.125C9.53199 16.6204 8.45866 14.6367 8.45866 12.8542C8.45866 11.1004 9.37866 9.5 10.7587 8.54167H10.3753V6.625H12.292V7.80375C12.7712 7.66958 13.2503 7.58333 13.7295 7.58333C13.8924 7.58333 14.0553 7.58333 14.2087 7.61208V0.875H0.791992V18.125H6.54199V14.7708H8.45866V18.125H10.5574ZM10.3753 2.79167H12.292V4.70833H10.3753V2.79167ZM4.62533 16.2083H2.70866V14.2917H4.62533V16.2083ZM4.62533 12.375H2.70866V10.4583H4.62533V12.375ZM4.62533 8.54167H2.70866V6.625H4.62533V8.54167ZM4.62533 4.70833H2.70866V2.79167H4.62533V4.70833ZM6.54199 2.79167H8.45866V4.70833H6.54199V2.79167ZM6.54199 6.625H8.45866V8.54167H6.54199V6.625ZM6.54199 12.375V10.4583H8.45866V12.375H6.54199ZM13.7295 9.5C11.9087 9.5 10.3753 11.0429 10.3753 12.8542C10.3753 15.3554 13.7295 19.0833 13.7295 19.0833C13.7295 19.0833 17.0837 15.3554 17.0837 12.8542C17.0837 11.0429 15.5503 9.5 13.7295 9.5ZM13.7295 14.1096C13.0587 14.1096 12.5795 13.5346 12.5795 12.9596C12.5795 12.2888 13.1545 11.8096 13.7295 11.8096C14.3045 11.8096 14.8795 12.375 14.8795 12.9596C14.9753 13.5346 14.4003 14.1096 13.7295 14.1096Z" fill="#F7941D"/>
</svg>
