<svg width="21" height="21" viewBox="0 0 21 21" fill="none" xmlns="http://www.w3.org/2000/svg">
<path d="M3.7345 17.5H3.5C3.03587 17.5 2.59075 17.3156 2.26256 16.9874C1.93437 16.6592 1.75 16.2141 1.75 15.75V5.25C1.75 4.78587 1.93437 4.34075 2.26256 4.01256C2.59075 3.68437 3.03587 3.5 3.5 3.5H17.5C17.9641 3.5 18.4092 3.68437 18.7374 4.01256C19.0656 4.34075 19.25 4.78587 19.25 5.25V15.75C19.25 16.2141 19.0656 16.6592 18.7374 16.9874C18.4092 17.3156 17.9641 17.5 17.5 17.5H17.2655C17.1119 17.766 16.891 17.9869 16.625 18.1405C16.3589 18.2941 16.0572 18.3749 15.75 18.3749C15.4428 18.3749 15.1411 18.2941 14.875 18.1405C14.609 17.9869 14.3881 17.766 14.2345 17.5H6.7655C6.6119 17.766 6.39099 17.9869 6.12496 18.1405C5.85894 18.2941 5.55717 18.3749 5.25 18.3749C4.94283 18.3749 4.64106 18.2941 4.37504 18.1405C4.10901 17.9869 3.8881 17.766 3.7345 17.5V17.5ZM3.5 5.25V15.75H17.5V5.25H3.5ZM5.25 10.5H15.75V14H5.25V10.5ZM5.25 7H9.625V8.75H5.25V7ZM8.75 11.375V12.25H12.25V11.375H8.75ZM12.25 8.75C12.0179 8.75 11.7954 8.65781 11.6313 8.49372C11.4672 8.32962 11.375 8.10706 11.375 7.875C11.375 7.64294 11.4672 7.42038 11.6313 7.25628C11.7954 7.09219 12.0179 7 12.25 7C12.4821 7 12.7046 7.09219 12.8687 7.25628C13.0328 7.42038 13.125 7.64294 13.125 7.875C13.125 8.10706 13.0328 8.32962 12.8687 8.49372C12.7046 8.65781 12.4821 8.75 12.25 8.75ZM14.875 8.75C14.6429 8.75 14.4204 8.65781 14.2563 8.49372C14.0922 8.32962 14 8.10706 14 7.875C14 7.64294 14.0922 7.42038 14.2563 7.25628C14.4204 7.09219 14.6429 7 14.875 7C15.1071 7 15.3296 7.09219 15.4937 7.25628C15.6578 7.42038 15.75 7.64294 15.75 7.875C15.75 8.10706 15.6578 8.32962 15.4937 8.49372C15.3296 8.65781 15.1071 8.75 14.875 8.75Z" fill="#F7941D"/>
</svg>
