<svg width="81" height="81" viewBox="0 0 81 81" fill="none" xmlns="http://www.w3.org/2000/svg">
<path d="M40.5 0C29.7587 0 19.4574 4.26706 11.8622 11.8625C4.26695 19.4579 0 29.7595 0 40.5011C0.000276895 45.8197 1.04811 51.0863 3.08369 56C5.11926 60.9137 8.1027 65.3783 11.8637 69.139C15.6246 72.8997 20.0895 75.8827 25.0033 77.9178C29.9171 79.953 35.1836 81.0003 40.5021 81C45.8206 80.9997 51.087 79.9519 56.0006 77.9162C60.9142 75.8806 65.3787 72.8971 69.1393 69.136C72.8999 65.375 75.8829 60.91 77.9179 55.9961C79.953 51.0822 81.0003 45.8155 81 40.4968C81 18.1327 62.8636 0 40.5 0ZM40.5 72.5602C36.2895 72.5602 32.1202 71.7308 28.2302 70.1195C24.3402 68.5082 20.8057 66.1464 17.8284 63.169C14.8511 60.1917 12.4894 56.657 10.8781 52.7669C9.26682 48.8768 8.4375 44.7075 8.4375 40.4968C8.4375 36.2862 9.26682 32.1168 10.8781 28.2267C12.4894 24.3366 14.8511 20.802 17.8284 17.8246C20.8057 14.8473 24.3402 12.4855 28.2302 10.8742C32.1202 9.26284 36.2895 8.4335 40.5 8.4335V40.5011L69.1537 26.1738C71.3939 30.6176 72.5613 35.5246 72.5625 40.5011C72.5614 49.004 69.1829 57.1584 63.1701 63.1705C57.1574 69.1827 49.0028 72.5602 40.5 72.5602Z" fill="#F7941D"/>
</svg>
