<svg width="15" height="12" viewBox="0 0 15 12" fill="none" xmlns="http://www.w3.org/2000/svg">
<path d="M14.5159 0.466984H0.899184C0.770794 0.467134 0.647709 0.518217 0.556941 0.60902C0.466173 0.699823 0.415139 0.822928 0.415039 0.951318V1.92567C0.415039 1.97056 0.463719 2.02208 0.503496 2.04292L7.66073 6.13106C7.67906 6.14154 7.69985 6.14696 7.72097 6.14678C7.74255 6.14684 7.76375 6.14109 7.78234 6.13012L14.7233 2.04689C14.7623 2.02511 14.8657 1.96753 14.9045 1.94101C14.9515 1.909 15 1.88002 15 1.82263V0.951129C14.9998 0.822772 14.9488 0.699715 14.858 0.608953C14.7673 0.518191 14.6442 0.467134 14.5159 0.466984V0.466984Z" fill="#5E5E5E"/>
<path d="M14.9396 3.39477C14.9209 3.38414 14.8998 3.37862 14.8784 3.37875C14.8569 3.37889 14.8359 3.38467 14.8174 3.39553L10.8895 5.70658C10.8739 5.7157 10.8605 5.72823 10.8503 5.74323C10.8402 5.75824 10.8335 5.77534 10.8309 5.79326C10.8282 5.81118 10.8297 5.82947 10.8351 5.84676C10.8405 5.86406 10.8497 5.87991 10.862 5.89316L14.7905 10.1279C14.8018 10.1401 14.8154 10.1499 14.8307 10.1565C14.8459 10.1632 14.8623 10.1666 14.879 10.1665C14.911 10.1665 14.9418 10.1537 14.9645 10.131C14.9872 10.1084 14.9999 10.0776 15 10.0455V3.4999C15.0001 3.4786 14.9945 3.45767 14.9839 3.43921C14.9733 3.42075 14.958 3.40542 14.9396 3.39477Z" fill="#5E5E5E"/>
<path d="M9.75762 6.48262C9.73898 6.46231 9.71393 6.44901 9.68666 6.44495C9.65939 6.44088 9.63156 6.44629 9.60779 6.46027L8.03338 7.38669C7.94113 7.43999 7.83661 7.46839 7.73008 7.46908C7.62355 7.46978 7.51867 7.44276 7.42573 7.39067L6.04016 6.59911C6.01779 6.58637 5.99195 6.58108 5.96637 6.58401C5.9408 6.58694 5.91682 6.59793 5.89791 6.6154L0.63634 11.4959C0.622546 11.5088 0.611956 11.5247 0.605412 11.5424C0.598869 11.5601 0.596553 11.5791 0.598651 11.5979C0.600748 11.6167 0.6072 11.6347 0.617492 11.6505C0.627785 11.6663 0.641633 11.6795 0.657933 11.6891C0.739761 11.7372 0.818747 11.7601 0.899059 11.7601H14.3765C14.4001 11.7601 14.4232 11.7533 14.4429 11.7403C14.4626 11.7273 14.478 11.7089 14.4873 11.6872C14.4968 11.6656 14.4997 11.6418 14.4957 11.6186C14.4917 11.5954 14.4811 11.5738 14.465 11.5567L9.75762 6.48262Z" fill="#5E5E5E"/>
<path d="M4.74014 6.03806C4.75408 6.02517 4.76479 6.00919 4.77141 5.99141C4.77803 5.97362 4.78038 5.95452 4.77826 5.93566C4.77614 5.9168 4.76961 5.8987 4.75921 5.88283C4.7488 5.86696 4.73481 5.85375 4.71836 5.84429L0.595554 3.48948C0.577154 3.47903 0.556335 3.4736 0.535177 3.47372C0.514019 3.47385 0.493265 3.47952 0.47499 3.49019C0.456714 3.50085 0.441559 3.51612 0.431038 3.53448C0.420518 3.55284 0.415002 3.57363 0.415041 3.59479V9.77351C0.414907 9.79711 0.421697 9.82023 0.434568 9.84001C0.44744 9.85979 0.465829 9.87536 0.487459 9.88479C0.509089 9.89423 0.533011 9.89711 0.556264 9.89309C0.579517 9.88906 0.601079 9.87831 0.618283 9.86216L4.74014 6.03806V6.03806Z" fill="#5E5E5E"/>
</svg>
