<svg width="20" height="20" viewBox="0 0 20 20" fill="none" xmlns="http://www.w3.org/2000/svg">
<path d="M8.33334 10.6082C10.3011 10.2276 12.2481 9.7464 14.1667 9.1665V3.33317C14.1667 3.33317 8.75001 1.6665 6.25001 1.6665C5.13709 1.66964 4.06333 2.0776 3.22911 2.81427C2.39489 3.55094 1.85721 4.56597 1.71641 5.66995C1.5756 6.77393 1.8413 7.89143 2.46391 8.8139C3.08652 9.73638 4.0235 10.4008 5.10001 10.6832L5.83334 15.8332H6.66668C6.7 16.2304 6.82782 16.6138 7.03946 16.9516C7.2511 17.2894 7.54044 17.5716 7.88334 17.7748C8.26995 18.0047 8.59102 18.33 8.81574 18.7196C9.04046 19.1093 9.16131 19.5501 9.16668 19.9998H10C9.99622 19.4258 9.84854 18.8618 9.57048 18.3595C9.29242 17.8573 8.89286 17.4328 8.40834 17.1248C7.82501 16.6665 7.50001 16.3582 7.50001 15.8332H8.33334V10.6082ZM3.33334 6.24984C3.33334 5.47629 3.64063 4.73442 4.18761 4.18744C4.7346 3.64046 5.47646 3.33317 6.25001 3.33317C8.37086 3.53328 10.4653 3.95218 12.5 4.58317V7.9165C10.4653 8.5475 8.37086 8.96639 6.25001 9.1665C5.47646 9.1665 4.7346 8.85921 4.18761 8.31223C3.64063 7.76525 3.33334 7.02339 3.33334 6.24984V6.24984ZM18.3333 7.49984C17.6867 7.51604 17.0476 7.35771 16.4833 7.0415C16.0326 6.78284 15.5195 6.65311 15 6.6665V5.83317C15.6467 5.81697 16.2857 5.9753 16.85 6.2915C17.3007 6.55017 17.8139 6.6799 18.3333 6.6665V7.49984ZM18.3333 4.99984C17.8139 5.01323 17.3007 4.8835 16.85 4.62484C16.2857 4.30863 15.6467 4.1503 15 4.1665V4.99984C15.5195 4.98645 16.0326 5.11618 16.4833 5.37484C17.0476 5.69104 17.6867 5.84937 18.3333 5.83317V4.99984ZM18.3333 8.33317C17.8139 8.34656 17.3007 8.21683 16.85 7.95817C16.2857 7.64196 15.6467 7.48364 15 7.49984V8.33317C15.5195 8.31978 16.0326 8.44951 16.4833 8.70817C17.0476 9.02438 17.6867 9.1827 18.3333 9.1665V8.33317ZM7.50001 6.24984C7.50001 6.49706 7.4267 6.73874 7.28935 6.9443C7.15199 7.14986 6.95677 7.31008 6.72836 7.40469C6.49996 7.4993 6.24862 7.52405 6.00615 7.47582C5.76367 7.42759 5.54094 7.30854 5.36612 7.13372C5.19131 6.95891 5.07226 6.73618 5.02403 6.4937C4.9758 6.25122 5.00055 5.99989 5.09516 5.77148C5.18977 5.54308 5.34998 5.34785 5.55555 5.2105C5.76111 5.07315 6.00278 4.99984 6.25001 4.99984C6.58153 4.99984 6.89947 5.13153 7.13389 5.36595C7.36831 5.60037 7.50001 5.91832 7.50001 6.24984Z" fill="#F7941D"/>
</svg>
