<svg width="59" height="59" viewBox="0 0 59 59" fill="none" xmlns="http://www.w3.org/2000/svg">
<path d="M58.0174 46.2168C58.5605 46.2168 59.0007 45.7765 59.0007 45.2335C59.0007 44.6904 58.5604 44.2502 58.0174 44.2502H57.0341C57.0341 43.7071 56.5939 43.2669 56.0508 43.2669C55.5077 43.2669 55.0675 43.7071 55.0675 44.2502H39.3341C39.3341 43.7071 38.8938 43.2669 38.3508 43.2669C37.8077 43.2669 37.3675 43.7071 37.3675 44.2502H36.3842C35.8411 44.2502 35.4009 44.6905 35.4009 45.2335C35.4009 45.7766 35.8411 46.2168 36.3842 46.2168H37.3675V49.1668H36.3842C35.8411 49.1668 35.4009 49.607 35.4009 50.1501C35.4009 50.6932 35.8411 51.1334 36.3842 51.1334H37.3675V52.1167H36.3842C35.8411 52.1167 35.4009 52.557 35.4009 53.1C35.4009 53.643 35.8411 54.0833 36.3842 54.0833H37.3675V57.0333H20.6507V48.8977C22.1053 49.7174 23.7465 50.1487 25.4161 50.15C31.0004 50.0696 35.4663 45.4853 35.4007 39.9008C35.431 36.0182 33.2629 32.4523 29.8017 30.6927C30.9411 29.1414 31.5516 27.2648 31.5432 25.34C31.5775 21.0922 28.5976 17.4153 24.4347 16.5688C25.488 14.2459 25.307 11.5496 23.9524 9.3885C22.5979 7.22728 20.2504 5.88883 17.7006 5.82419C17.6714 5.82419 17.6433 5.82833 17.6143 5.82868C17.0908 2.44459 14.1584 -0.0393979 10.7343 0.000473205C7.31026 0.0403443 4.43666 2.59209 3.99209 5.98747C1.5021 6.46477 -0.216847 8.75725 0.0227251 11.2813C0.262297 13.8054 2.38192 15.7334 4.91742 15.7335H10.6493C10.738 16.0163 10.8432 16.2937 10.9643 16.5641C6.80162 17.4135 3.82327 21.0918 3.85818 25.3402C3.84977 27.2649 4.46028 29.1415 5.59961 30.6928C2.13854 32.4525 -0.0295913 36.0183 0.000715329 39.9009C-0.0649682 45.4853 4.40105 50.0697 9.98531 50.1501C11.6549 50.1488 13.2961 49.7176 14.7507 48.8979V57.0334H0.984125C0.441026 57.0334 0.000830555 57.4736 0.000830555 58.0167C0.000830555 58.5598 0.441026 59 0.984125 59H58.0174C58.5605 59 59.0007 58.5598 59.0007 58.0167C59.0007 57.4736 58.5604 57.0334 58.0174 57.0334H57.0341V54.0834H58.0174C58.5605 54.0834 59.0007 53.6432 59.0007 53.1001C59.0007 52.557 58.5604 52.1168 58.0174 52.1168H57.0341V51.1335H58.0174C58.5605 51.1335 59.0007 50.6933 59.0007 50.1502C59.0007 49.6071 58.5604 49.1669 58.0174 49.1669H57.0341V46.2169H58.0174V46.2168ZM10.2878 13.4269C10.2878 13.5411 10.3007 13.6533 10.3058 13.7668H4.91742C3.28824 13.7668 1.96742 12.4461 1.96742 10.8168C1.96742 9.18753 3.28824 7.86683 4.91742 7.86683C5.17819 7.86695 5.42837 7.76335 5.61286 7.57886C5.79723 7.39449 5.90083 7.14431 5.90083 6.88342C5.89576 4.31715 7.86892 2.18048 10.4275 1.98158C12.986 1.78257 15.2657 3.58864 15.6575 6.12483C12.4503 7.10444 10.2669 10.0736 10.2878 13.4269ZM18.6841 57.0335H16.7174V47.4524C17.0698 47.1242 17.3985 46.7713 17.7007 46.3965C18.003 46.7713 18.3316 47.1242 18.684 47.4522V57.0335H18.6841ZM18.8035 44.538L25.2793 38.062C25.6574 37.677 25.6545 37.0594 25.2731 36.6778C24.8917 36.2963 24.2739 36.2935 23.8889 36.6716L18.6841 41.8763V31.8739L23.3126 27.2454C23.6924 26.8608 23.6906 26.2416 23.3082 25.8593C22.926 25.4771 22.3069 25.4751 21.9221 25.8549L18.684 29.093V24.5835C18.684 24.0404 18.2437 23.6002 17.7007 23.6002C17.1576 23.6002 16.7174 24.0405 16.7174 24.5835V29.093L13.4793 25.8549C13.0947 25.4751 12.4755 25.4771 12.0932 25.8593C11.7108 26.2415 11.709 26.8607 12.0888 27.2454L16.7173 31.8741V41.8764L11.5125 36.6716C11.1279 36.2918 10.5087 36.2938 10.1264 36.676C9.74412 37.0582 9.74217 37.6775 10.122 38.0621L16.5978 44.538C15.1582 46.7999 12.6662 48.1736 9.98508 48.1835C5.48656 48.1044 1.90035 44.3998 1.96719 39.9011C1.92547 36.3434 4.17416 33.1616 7.54165 32.0133C7.86719 31.906 8.11333 31.6369 8.19123 31.3031C8.26912 30.9692 8.16737 30.619 7.92296 30.3788C6.57126 29.0519 5.8144 27.2343 5.82477 25.3402C5.76047 21.588 8.72787 18.4829 12.4791 18.3771C12.8851 18.413 13.2731 18.2028 13.4648 17.8431C13.6325 17.5126 13.5996 17.1159 13.3799 16.8175C12.651 15.8371 12.2565 14.6485 12.2544 13.4268C12.2065 10.3682 14.6423 7.84759 17.7006 7.79089C20.759 7.84759 23.1949 10.3682 23.1468 13.4268C23.1447 14.6485 22.7502 15.8371 22.0213 16.8175C21.8061 17.1184 21.7791 17.5149 21.9517 17.8422C22.1255 18.1742 22.4696 18.3818 22.8443 18.3809C26.6227 18.4489 29.6337 21.5615 29.5764 25.3402C29.5868 27.2343 28.8298 29.0519 27.4782 30.3788C27.2337 30.619 27.1321 30.9692 27.21 31.3031C27.2879 31.6369 27.534 31.906 27.8595 32.0133C31.6362 33.3339 33.9385 37.1553 33.3407 41.1112C32.7428 45.0672 29.4144 48.0379 25.4161 48.1835C22.735 48.1736 20.2431 46.7999 18.8035 44.538ZM55.0674 57.0335H39.3341V54.0835H55.0674V57.0335ZM55.0674 52.1168H39.3341V51.1335H55.0674V52.1168ZM55.0674 49.1668H39.3341V46.2168H55.0674V49.1668Z" fill="#F7941D"/>
</svg>
