<svg width="22" height="22" viewBox="0 0 22 22" fill="none" xmlns="http://www.w3.org/2000/svg">
<path d="M22 8.08537V7.05283L10.9956 0L0 7.05247V8.085L0.5995 7.70037L0.944167 8.16713L0 8.7736V9.4611H0.959567V10.1365H0V11H2.10833V11.4382H2.38333V18.6083H2.10833V19.25H1.925V19.9375H1.28333V20.625H0.641667V21.3125H0V22H22V21.3125H21.3583V20.625H20.7167V19.9375H20.075V19.25H19.8917V18.6083H19.6167V11.4382H19.8917V11H22V10.1365H21.0404V9.4611H22V8.7736L21.0555 8.16823L21.4005 7.70147L22 8.08537ZM2.86257 18.3407H2.60297V11.7256H2.86257V18.3407ZM3.3627 18.3407H3.10347V11.7256H3.3627V18.3407ZM3.86283 18.3407H3.6036V11.7256H3.86283V18.3407ZM4.36333 18.3407H4.10373V11.7256H4.36333V18.3407ZM7.3942 18.6307H7.1192V19.25H4.85833V18.6083H4.58333V11.4382H4.85833V11H7.1192V11.4382H7.3942V18.6307ZM7.87343 18.3407H7.6142V11.7256H7.87343V18.3407ZM8.37393 18.3407H8.11433V11.7256H8.37393V18.3407ZM8.87407 18.3407H8.61447V11.7256H8.87407V18.3407ZM9.3742 18.3407H9.11497V11.7256H9.3742V18.3407ZM12.4054 18.6307H12.1304V19.25H9.8692V18.6307H9.5942V11.4382H9.8692V11H12.1304V11.4382H12.4054V18.6307ZM12.8847 18.3407H12.6254V11.7256H12.8847V18.3407ZM13.3852 18.3407H13.1256V11.7256H13.3852V18.3407ZM13.8853 18.3407H13.6257V11.7256H13.8853V18.3407ZM14.3854 18.3407H14.1262V11.7256H14.3854V18.3407ZM17.4167 18.6083H17.1417V19.25H14.8804V18.6307H14.6054V11.4382H14.8804V11H17.1417V11.4382H17.4167V18.6083ZM17.8959 18.3407H17.6363V11.7256H17.8959V18.3407ZM18.396 18.3407H18.1368V11.7256H18.396V18.3407ZM18.8962 18.3407H18.6369V11.7256H18.8962V18.3407ZM19.3967 18.3407H19.1371V11.7256H19.3967V18.3407ZM20.3071 10.1365H1.6929V9.4611H20.3071V10.1365ZM1.8634 8.7736L10.9956 2.7434L20.1366 8.77323L1.8634 8.7736ZM20.4369 7.7715L10.9956 1.72003L1.56273 7.77077L1.21807 7.304L10.9956 1.0318L20.7816 7.30437L20.4369 7.7715Z" fill="#F7941D"/>
</svg>
