<svg width="56" height="56" viewBox="0 0 56 56" fill="none" xmlns="http://www.w3.org/2000/svg">
<path d="M46.75 3H9.25C5.79822 3 3 5.79822 3 9.25V46.75C3 50.2018 5.79822 53 9.25 53H46.75C50.2018 53 53 50.2018 53 46.75V9.25C53 5.79822 50.2018 3 46.75 3Z" stroke="#F7941D" stroke-width="4.91667" stroke-linecap="round" stroke-linejoin="round"/>
<path d="M18.6248 40.5V15.5H31.1248C32.7824 15.5 34.3721 16.1585 35.5442 17.3306C36.7163 18.5027 37.3748 20.0924 37.3748 21.75C37.3748 23.4076 36.7163 24.9973 35.5442 26.1694C34.3721 27.3415 32.7824 28 31.1248 28H18.6248" stroke="#F7941D" stroke-width="4.91667" stroke-linecap="round" stroke-linejoin="round"/>
</svg>
