<svg width="60" height="44" viewBox="0 0 60 44" fill="none" xmlns="http://www.w3.org/2000/svg">
<path d="M43.7411 28.6909C40.0091 25.4914 35.1348 23.5547 29.7958 23.5547C24.4567 23.5547 19.5825 25.4914 15.8438 28.6975C15.7406 28.7892 15.6774 28.9167 15.6675 29.0533C15.6576 29.1899 15.7017 29.325 15.7907 29.4303L18.1813 32.2372C18.3739 32.4597 18.7126 32.4858 18.9384 32.2961C21.8337 29.7836 25.6321 28.2656 29.7958 28.2656C33.9595 28.2656 37.7579 29.7836 40.6532 32.2896C40.879 32.4793 41.2177 32.4531 41.4102 32.2307L43.8009 29.4237C43.9868 29.2078 43.9602 28.8807 43.7411 28.6909ZM51.5372 19.5242C45.647 14.689 38.07 11.7773 29.7958 11.7773C21.5216 11.7773 13.9446 14.689 8.04774 19.5242C7.93986 19.6139 7.87234 19.7419 7.8599 19.8804C7.84746 20.0189 7.89111 20.1567 7.98133 20.2636L10.372 23.0705C10.5579 23.293 10.8966 23.3191 11.1157 23.1359C16.1825 18.9877 22.697 16.4883 29.7958 16.4883C36.8946 16.4883 43.4091 18.9877 48.4692 23.1359C48.695 23.3191 49.027 23.293 49.213 23.0705L51.6036 20.2636C51.7895 20.0411 51.763 19.7074 51.5372 19.5242ZM59.2868 10.4295C51.2251 3.91269 40.9055 0 29.663 0C18.4934 0 8.24032 3.86035 0.198519 10.2986C0.143269 10.3424 0.0974595 10.3966 0.0637878 10.458C0.030116 10.5194 0.00926294 10.5869 0.00245602 10.6564C-0.00435089 10.7259 0.00302616 10.7961 0.0241529 10.8627C0.0452796 10.9294 0.0797285 10.9912 0.125472 11.0445L2.5161 13.8515C2.70203 14.0674 3.03407 14.1001 3.25321 13.9234C10.4716 8.15908 19.6556 4.71094 29.663 4.71094C39.7434 4.71094 48.9872 8.21143 56.2255 14.0478C56.4513 14.231 56.7833 14.1982 56.9692 13.9758L59.3598 11.1688C59.5524 10.9464 59.5192 10.6127 59.2868 10.4295ZM25.4794 38.9961C25.4794 40.1067 25.9271 41.1718 26.7242 41.9571C27.5212 42.7424 28.6022 43.1836 29.7294 43.1836C30.8565 43.1836 31.9376 42.7424 32.7346 41.9571C33.5316 41.1718 33.9794 40.1067 33.9794 38.9961C33.9794 37.8855 33.5316 36.8204 32.7346 36.0351C31.9376 35.2498 30.8565 34.8086 29.7294 34.8086C28.6022 34.8086 27.5212 35.2498 26.7242 36.0351C25.9271 36.8204 25.4794 37.8855 25.4794 38.9961Z" fill="#F7941D"/>
</svg>
