<svg width="115" height="57" viewBox="0 0 115 57" fill="none" xmlns="http://www.w3.org/2000/svg">
<rect width="115" height="57" rx="4" fill="white"/>
<path d="M28.7209 35.4917H35.3881V28.9526H28.7209V35.4917Z" fill="#F7941D"/>
<path d="M27.6952 28.9526H21.0276V35.4917H27.6952V28.9526Z" fill="#F7941D"/>
<path d="M27.6952 36.4976H21.0276V43.0359H27.6952V36.4976Z" fill="#F7941D"/>
<path d="M28.7209 43.0359H35.3881V36.4976H28.7209V43.0359Z" fill="#F7941D"/>
<path d="M80.0316 36.0654C80.2858 35.8378 80.4125 35.5345 80.4125 35.1543C80.4125 34.7495 80.2814 34.4414 80.0195 34.2304C79.7572 34.02 79.3925 33.9141 78.926 33.9141H77.0457V36.4062H78.9627C79.4215 36.4062 79.7774 36.293 80.0316 36.0654Z" fill="#23397A"/>
<path d="M80.3115 40.7762L80.3091 42.4735H77.0447V38.0933H78.509L80.3115 40.7762Z" fill="#23397A"/>
<path d="M98.231 40.776V42.4734H94.1306L94.1383 40.776V35.353L98.231 40.776Z" fill="#23397A"/>
<path d="M114.676 27.8604V31.7286L106.316 40.7764H105.872V33.9512H108.49V32.1919H101.362V33.9512H103.98V40.7764L103.97 42.4737H99.9102L99.9131 40.7764V32.1919H98.0436V37.5349L94.0154 32.1919H92.269V40.7764H90.5868V39.1723H85.9174V37.3484H89.971V35.651H85.9174V33.8893H90.525V32.1919H84.0374V40.7764H82.5247L80.4861 37.7702C81.714 37.3068 82.3298 36.4115 82.3298 35.079C82.3298 34.2358 82.0836 33.5685 81.5914 33.0714C81.0087 32.4838 80.1758 32.1919 79.086 32.1919H75.1522V40.7764H53.7892L28.4337 17.7335L8.87279 35.2967C11.7013 43.457 19.4071 49.3199 28.4437 49.3199C33.0494 49.3199 37.3137 47.7988 40.7547 45.2191H51.1273C46.0039 52.2439 37.7522 56.8052 28.4437 56.8052C17.212 56.8052 7.51659 50.1687 3.00086 40.5722C2.24432 38.9656 1.63664 37.2784 1.18507 35.5269C1.18507 35.5216 1.18026 35.5114 1.18026 35.5061L7.74978 29.6123V29.633L28.4538 11.0372L49.1246 29.837C49.1577 29.3635 49.1731 28.8822 49.1731 28.4039C49.1731 16.8719 39.8755 7.48726 28.4437 7.48726C27.1025 7.48726 25.7923 7.61677 24.5229 7.86757C17.0224 9.31908 10.9553 14.8586 8.68314 22.0907L0.321153 29.6017C0.305819 29.203 0.29541 28.802 0.29541 28.4039C0.29541 12.7191 12.899 0.00195312 28.4437 0.00195312C42.2626 0.00195312 53.7533 10.0592 56.1328 23.3093H108.493L112.306 26.1136H58.7435V27.6095H114.34L114.676 27.8604Z" fill="#23397A"/>
</svg>
