<svg width="184" height="91" viewBox="0 0 184 91" fill="none" xmlns="http://www.w3.org/2000/svg">
<rect y="0.533203" width="184" height="90.4667" rx="4" fill="white"/>
<g clip-path="url(#clip0)">
<path d="M54.2402 55.3837H63.3312V46.3892H54.2402V55.3837Z" fill="#F7941D"/>
<path d="M52.8416 46.3892H43.75V55.3837H52.8416V46.3892Z" fill="#F7941D"/>
<path d="M52.8416 56.7671H43.75V65.7607H52.8416V56.7671Z" fill="#F7941D"/>
<path d="M54.2402 65.7607H63.3312V56.7671H54.2402V65.7607Z" fill="#F7941D"/>
<path d="M124.205 56.1726C124.552 55.8596 124.724 55.4424 124.724 54.9193C124.724 54.3626 124.546 53.9387 124.189 53.6485C123.831 53.3591 123.334 53.2134 122.698 53.2134H120.134V56.6414H122.748C123.373 56.6414 123.858 56.4857 124.205 56.1726Z" fill="#23397A"/>
<path d="M124.587 62.6523L124.584 64.9871H120.132V58.9619H122.129L124.587 62.6523Z" fill="#23397A"/>
<path d="M149.021 62.6528V64.9875H143.43L143.44 62.6528V55.1934L149.021 62.6528Z" fill="#23397A"/>
<path d="M171.445 44.8866V50.2074L160.045 62.6528H159.441V53.2646H163.01V50.8447H153.29V53.2646H156.86V62.6528L156.846 64.9875H151.311L151.315 62.6528V50.8447H148.766V58.1941L143.273 50.8447H140.892V62.6528H138.598V60.4464H132.231V57.9375H137.758V55.6028H132.231V53.1795H138.514V50.8447H129.667V62.6528H127.605L124.825 58.5177C126.499 57.8803 127.339 56.6488 127.339 54.8159C127.339 53.6561 127.003 52.7382 126.332 52.0544C125.538 51.2463 124.402 50.8447 122.916 50.8447H117.552V62.6528H88.4222L53.8486 30.9569L27.1762 55.1154C31.033 66.34 41.5403 74.4045 53.8623 74.4045C60.1423 74.4045 65.957 72.3122 70.6489 68.7638H84.7925C77.8065 78.4266 66.5549 84.7007 53.8623 84.7007C38.5472 84.7007 25.327 75.5721 19.1695 62.3719C18.1379 60.162 17.3093 57.8412 16.6936 55.432C16.6936 55.4247 16.687 55.4107 16.687 55.4034L25.6449 47.2964V47.3249L53.876 21.7461L82.0618 47.6055C82.107 46.9542 82.1279 46.2922 82.1279 45.6342C82.1279 29.7718 69.4501 16.8631 53.8623 16.8631C52.0334 16.8631 50.2469 17.0412 48.516 17.3862C38.2886 19.3828 30.0158 27.0024 26.9176 36.9503L15.5156 47.2818C15.4947 46.7335 15.4805 46.1818 15.4805 45.6342C15.4805 24.0595 32.6661 6.56689 53.8623 6.56689C72.705 6.56689 88.3732 20.4008 91.6178 38.6265H163.014L168.214 42.4839H95.1777V44.5415H170.986L171.445 44.8866Z" fill="#23397A"/>
</g>
<defs>
<clipPath id="clip0">
<rect x="15.0776" y="6.56445" width="156.809" height="78.4044" rx="4" fill="white"/>
</clipPath>
</defs>
</svg>
