<svg width="150" height="74" viewBox="0 0 150 74" fill="none" xmlns="http://www.w3.org/2000/svg">
<path d="M37.4622 46.0768H46.1584V37.5876H37.4622V46.0768Z" fill="#F7941D"/>
<path d="M36.1241 37.5876H27.4272V46.0768H36.1241V37.5876Z" fill="#F7941D"/>
<path d="M36.1241 47.3827H27.4272V55.8711H36.1241V47.3827Z" fill="#F7941D"/>
<path d="M37.4622 55.8711H46.1584V47.3827H37.4622V55.8711Z" fill="#F7941D"/>
<path d="M104.389 46.8214C104.72 46.5259 104.886 46.1321 104.886 45.6384C104.886 45.113 104.715 44.713 104.373 44.4391C104.031 44.1659 103.555 44.0284 102.947 44.0284H100.494V47.2638H102.995C103.593 47.2638 104.057 47.1168 104.389 46.8214Z" fill="#23397A"/>
<path d="M104.754 52.9375L104.751 55.1411H100.493V49.4544H102.403L104.754 52.9375Z" fill="#23397A"/>
<path d="M128.127 52.9375V55.1411H122.779L122.789 52.9375V45.8971L128.127 52.9375Z" fill="#23397A"/>
<path d="M149.577 36.1694V41.1913L138.673 52.9375H138.095V44.0767H141.509V41.7928H132.212V44.0767H135.626V52.9375L135.613 55.1411H130.318L130.322 52.9375V41.7928H127.883V48.7293L122.629 41.7928H120.351V52.9375H118.157V50.8551H112.066V48.4871H117.354V46.2836H112.066V43.9964H118.076V41.7928H109.614V52.9375H107.641L104.982 49.0347C106.584 48.4332 107.387 47.2708 107.387 45.5409C107.387 44.4462 107.066 43.5799 106.424 42.9345C105.664 42.1718 104.577 41.7928 103.156 41.7928H98.0247V52.9375H70.16L37.0876 23.0222L11.5734 45.8236C15.2627 56.4176 25.3138 64.029 37.1007 64.029C43.1081 64.029 48.6702 62.0543 53.1584 58.7053H66.6879C60.0053 67.8252 49.2422 73.7468 37.1007 73.7468C22.4506 73.7468 9.80443 65.1311 3.91434 52.6724C2.92755 50.5866 2.13492 48.3962 1.54592 46.1224C1.54592 46.1155 1.53965 46.1023 1.53965 46.0954L10.1086 38.4438V38.4707L37.1138 14.3288L64.0758 38.7355C64.119 38.1208 64.139 37.496 64.139 36.8749C64.139 21.9036 52.0117 9.72007 37.1007 9.72007C35.3513 9.72007 33.6423 9.88821 31.9865 10.2138C22.2033 12.0982 14.2897 19.2899 11.326 28.6789L0.419075 38.43C0.399075 37.9125 0.385498 37.3918 0.385498 36.8749C0.385498 16.5123 16.8249 0.00230026 37.1007 0.00230026C55.1253 0.00230026 70.1132 13.0591 73.2168 30.2609H141.513L146.487 33.9016H76.6221V35.8437H149.139L149.577 36.1694Z" fill="#23397A"/>
</svg>
