<svg width="285" height="140" viewBox="0 0 285 140" fill="none" xmlns="http://www.w3.org/2000/svg">
<path d="M71.1782 87.1724H87.7011V71.1116H71.1782V87.1724Z" fill="#F7941D"/>
<path d="M68.6358 71.1116H52.1118V87.1724H68.6358V71.1116Z" fill="#F7941D"/>
<path d="M68.6358 89.6429H52.1118V105.702H68.6358V89.6429Z" fill="#F7941D"/>
<path d="M71.1782 105.702H87.7011V89.6429H71.1782V105.702Z" fill="#F7941D"/>
<path d="M198.339 88.581C198.969 88.022 199.283 87.277 199.283 86.343C199.283 85.3489 198.958 84.5921 198.309 84.0739C197.659 83.5571 196.755 83.2969 195.599 83.2969H190.939V89.418H195.69C196.827 89.418 197.709 89.14 198.339 88.581Z" fill="#23397A"/>
<path d="M199.033 100.152L199.027 104.321H190.937V93.5624H194.566L199.033 100.152Z" fill="#23397A"/>
<path d="M243.442 100.152V104.321H233.28L233.299 100.152V86.8324L243.442 100.152Z" fill="#23397A"/>
<path d="M284.197 68.4285V77.9294L263.479 100.152H262.38V83.3884H268.868V79.0674H251.202V83.3884H257.69V100.152L257.665 104.321H247.604L247.611 100.152V79.0674H242.978V92.1905L232.995 79.0674H228.667V100.152H224.498V96.2123H212.926V91.7324H222.972V87.5635H212.926V83.2364H224.345V79.0674H208.267V100.152H204.518L199.466 92.7684C202.509 91.6303 204.035 89.4313 204.035 86.1584C204.035 84.0874 203.425 82.4484 202.205 81.2275C200.761 79.7844 198.697 79.0674 195.996 79.0674H186.247V100.152H133.304L70.4664 43.5554L21.9894 86.6932C28.9992 106.736 48.0962 121.136 70.4913 121.136C81.9053 121.136 92.4734 117.4 101.001 111.064H126.707C114.01 128.318 93.5602 139.521 70.4913 139.521C42.6562 139.521 18.6284 123.221 7.43723 99.6505C5.56233 95.7044 4.05633 91.5604 2.93723 87.2585C2.93723 87.2455 2.92532 87.2205 2.92532 87.2075L19.2063 72.7314V72.7823L70.5163 27.1085L121.744 73.2834C121.826 72.1204 121.864 70.9383 121.864 69.7634C121.864 41.4393 98.8222 18.3893 70.4913 18.3893C67.1674 18.3893 63.9203 18.7074 60.7744 19.3234C42.1862 22.8885 27.1504 36.4943 21.5194 54.2573L0.796219 72.7054C0.758219 71.7263 0.732422 70.7413 0.732422 69.7634C0.732422 31.2394 31.9673 0.0043335 70.4913 0.0043335C104.738 0.0043335 133.215 24.7064 139.112 57.2504H268.875L278.325 64.1382H145.582V67.8123H283.364L284.197 68.4285Z" fill="#23397A"/>
</svg>
