<svg width="360" height="180" viewBox="0 0 360 180" fill="none" xmlns="http://www.w3.org/2000/svg">
<rect width="360" height="180" rx="20" fill="#E95258"/>
<path d="M0 20C0 8.9543 8.95431 0 20 0H222.5C261.16 0 292.5 31.3401 292.5 70V110C292.5 148.66 261.16 180 222.5 180H20C8.9543 180 0 171.046 0 160V20Z" fill="white"/>
<path d="M172.617 82.5625L177 94.9375L181.359 82.5625H185.977V99.625H182.449V94.9609L182.801 86.9102L178.195 99.625H175.781L171.188 86.9219L171.539 94.9609V99.625H168.023V82.5625H172.617ZM196.172 99.625C196.016 99.3203 195.902 98.9414 195.832 98.4883C195.012 99.4023 193.945 99.8594 192.633 99.8594C191.391 99.8594 190.359 99.5 189.539 98.7812C188.727 98.0625 188.32 97.1562 188.32 96.0625C188.32 94.7188 188.816 93.6875 189.809 92.9688C190.809 92.25 192.25 91.8867 194.133 91.8789H195.691V91.1523C195.691 90.5664 195.539 90.0977 195.234 89.7461C194.938 89.3945 194.465 89.2188 193.816 89.2188C193.246 89.2188 192.797 89.3555 192.469 89.6289C192.148 89.9023 191.988 90.2773 191.988 90.7539H188.602C188.602 90.0195 188.828 89.3398 189.281 88.7148C189.734 88.0898 190.375 87.6016 191.203 87.25C192.031 86.8906 192.961 86.7109 193.992 86.7109C195.555 86.7109 196.793 87.1055 197.707 87.8945C198.629 88.6758 199.09 89.7773 199.09 91.1992V96.6953C199.098 97.8984 199.266 98.8086 199.594 99.4258V99.625H196.172ZM193.371 97.2695C193.871 97.2695 194.332 97.1602 194.754 96.9414C195.176 96.7148 195.488 96.4141 195.691 96.0391V93.8594H194.426C192.73 93.8594 191.828 94.4453 191.719 95.6172L191.707 95.8164C191.707 96.2383 191.855 96.5859 192.152 96.8594C192.449 97.1328 192.855 97.2695 193.371 97.2695ZM208.559 96.1211C208.559 95.707 208.352 95.3828 207.938 95.1484C207.531 94.9062 206.875 94.6914 205.969 94.5039C202.953 93.8711 201.445 92.5898 201.445 90.6602C201.445 89.5352 201.91 88.5977 202.84 87.8477C203.777 87.0898 205 86.7109 206.508 86.7109C208.117 86.7109 209.402 87.0898 210.363 87.8477C211.332 88.6055 211.816 89.5898 211.816 90.8008H208.43C208.43 90.3164 208.273 89.918 207.961 89.6055C207.648 89.2852 207.16 89.125 206.496 89.125C205.926 89.125 205.484 89.2539 205.172 89.5117C204.859 89.7695 204.703 90.0977 204.703 90.4961C204.703 90.8711 204.879 91.1758 205.23 91.4102C205.59 91.6367 206.191 91.8359 207.035 92.0078C207.879 92.1719 208.59 92.3594 209.168 92.5703C210.957 93.2266 211.852 94.3633 211.852 95.9805C211.852 97.1367 211.355 98.0742 210.363 98.793C209.371 99.5039 208.09 99.8594 206.52 99.8594C205.457 99.8594 204.512 99.6719 203.684 99.2969C202.863 98.9141 202.219 98.3945 201.75 97.7383C201.281 97.0742 201.047 96.3594 201.047 95.5938H204.258C204.289 96.1953 204.512 96.6562 204.926 96.9766C205.34 97.2969 205.895 97.457 206.59 97.457C207.238 97.457 207.727 97.3359 208.055 97.0938C208.391 96.8438 208.559 96.5195 208.559 96.1211ZM218.648 94.5391L217.43 95.7578V99.625H214.043V81.625H217.43V91.5977L218.086 90.7539L221.332 86.9453H225.398L220.816 92.2305L225.797 99.625H221.906L218.648 94.5391ZM233.449 93.6836H226.852V90.9531H233.449V93.6836ZM243.949 92.8047C243.066 93.6719 242.035 94.1055 240.855 94.1055C239.348 94.1055 238.141 93.5898 237.234 92.5586C236.328 91.5195 235.875 90.1211 235.875 88.3633C235.875 87.2461 236.117 86.2227 236.602 85.293C237.094 84.3555 237.777 83.6289 238.652 83.1133C239.527 82.5898 240.512 82.3281 241.605 82.3281C242.73 82.3281 243.73 82.6094 244.605 83.1719C245.48 83.7344 246.16 84.543 246.645 85.5977C247.129 86.6523 247.375 87.8594 247.383 89.2188V90.4727C247.383 93.3164 246.676 95.5508 245.262 97.1758C243.848 98.8008 241.844 99.668 239.25 99.7773L238.418 99.7891V96.9648L239.168 96.9531C242.113 96.8203 243.707 95.4375 243.949 92.8047ZM241.688 91.5156C242.234 91.5156 242.703 91.375 243.094 91.0938C243.492 90.8125 243.793 90.4727 243.996 90.0742V88.6797C243.996 87.5312 243.777 86.6406 243.34 86.0078C242.902 85.375 242.316 85.0586 241.582 85.0586C240.902 85.0586 240.344 85.3711 239.906 85.9961C239.469 86.6133 239.25 87.3906 239.25 88.3281C239.25 89.2578 239.461 90.0234 239.883 90.625C240.312 91.2188 240.914 91.5156 241.688 91.5156ZM250.312 91.2344L251.297 82.5625H260.859V85.3867H254.074L253.652 89.0547C254.457 88.625 255.312 88.4102 256.219 88.4102C257.844 88.4102 259.117 88.9141 260.039 89.9219C260.961 90.9297 261.422 92.3398 261.422 94.1523C261.422 95.2539 261.188 96.2422 260.719 97.1172C260.258 97.9844 259.594 98.6602 258.727 99.1445C257.859 99.6211 256.836 99.8594 255.656 99.8594C254.625 99.8594 253.668 99.6523 252.785 99.2383C251.902 98.8164 251.203 98.2266 250.688 97.4688C250.18 96.7109 249.91 95.8477 249.879 94.8789H253.23C253.301 95.5898 253.547 96.1445 253.969 96.543C254.398 96.9336 254.957 97.1289 255.645 97.1289C256.41 97.1289 257 96.8555 257.414 96.3086C257.828 95.7539 258.035 94.9727 258.035 93.9648C258.035 92.9961 257.797 92.2539 257.32 91.7383C256.844 91.2227 256.168 90.9648 255.293 90.9648C254.488 90.9648 253.836 91.1758 253.336 91.5977L253.008 91.9023L250.312 91.2344Z" fill="black"/>
<path d="M73.9507 79.8045L73.9508 79.8046C75.9759 80.9953 78.2823 81.6232 80.6315 81.6232C82.9805 81.6232 85.2869 80.9954 87.3118 79.8047C87.3119 79.8047 87.312 79.8046 87.3121 79.8046L87.9784 79.4116L87.979 79.4113C90.1576 78.1302 92.6391 77.4547 95.1665 77.4547C97.6938 77.4547 100.175 78.1302 102.354 79.4113L102.354 79.4116L103.021 79.8046L73.9507 79.8045ZM73.9507 79.8045L66.4485 75.3954L51.9123 66.4243C56.4059 59.0752 62.6962 52.9871 70.1939 48.7354C77.8346 44.4026 86.4682 42.125 95.2519 42.125C104.036 42.125 112.669 44.4026 120.31 48.7354C127.807 52.9867 134.097 59.0742 138.59 66.4224L123.992 75.3411L123.984 75.3457L116.383 79.8043L116.382 79.8046M73.9507 79.8045L116.382 79.8046M116.382 79.8046C114.357 80.9953 112.051 81.6232 109.701 81.6232C107.353 81.6232 105.046 80.9954 103.021 79.8049L116.382 79.8046ZM145.975 92.1088V92.1099V92.1133V92.1167V92.12V92.1234V92.1268V92.1301V92.1335V92.1369V92.1402V92.1436V92.147V92.1503V92.1537V92.1571V92.1604V92.1638V92.1672V92.1705V92.1739V92.1773V92.1806V92.184V92.1874V92.1908V92.1941V92.1975V92.2009V92.2042V92.2076V92.211V92.2144V92.2177V92.2211V92.2245V92.2279V92.2312V92.2346V92.238V92.2414V92.2447V92.2481V92.2515V92.2549V92.2582V92.2616V92.265V92.2684V92.2717V92.2751V92.2785V92.2819V92.2853V92.2886V92.292V92.2954V92.2988V92.3022V92.3055V92.3089V92.3123V92.3157V92.3191V92.3225V92.3258V92.3292V92.3326V92.336V92.3394V92.3428V92.3461V92.3495V92.3529V92.3563V92.3597V92.3631V92.3665V92.3698V92.3732V92.3766V92.38V92.3834V92.3868V92.3902V92.3936V92.3969V92.4003V92.4037V92.4071V92.4105V92.4139V92.4173V92.4207V92.4241V92.4274V92.4308V92.4342V92.4376V92.441V92.4444V92.4478V92.4512V92.4546V92.458V92.4614V92.4648V92.4681V92.4715V92.4749V92.4783V92.4817V92.4851V92.4885V92.4919V92.4953V92.4987V92.5021V92.5055V92.5089V92.5123V92.5157V92.5191V92.5225V92.5259V92.5293V92.5326V92.536V92.5394V92.5428V92.5462V92.5496V92.553V92.5564V92.5598V92.5632V92.5666V92.57V92.5734V92.5768V92.5802V92.5836V92.587V92.5904V92.5938V92.5972V92.6006V92.604V92.6074V92.6108V92.6142V92.6176V92.621V92.6244V92.6278V92.6312V92.6346V92.638V92.6414V92.6448V92.6482V92.6516V92.655V92.6584V92.6618V92.6652V92.6686V92.672V92.6754V92.6788V92.6822V92.6856V92.6891V92.6925V92.6959V92.6993V92.7027V92.7061V92.7095V92.7129V92.7163V92.7197V92.7231V92.7265V92.7299V92.7333V92.7367V92.7401V92.7435V92.7469V92.7503V92.7537V92.7571V92.7605V92.7639V92.7673V92.7708V92.7742V92.7776V92.781V92.7844V92.7878V92.7912V92.7946V92.798V92.8014V92.8048V92.8082V92.8116V92.815V92.8184V92.8218V92.8252V92.8286V92.8321V92.8355V92.8389V92.8423V92.8457V92.8491V92.8525V92.8559V92.8593V92.8627V92.8661V92.8695V92.8729V92.8763V92.8797V92.8832V92.8866V92.89V92.8934V92.8968V92.9002V92.9036V92.907V92.9104V92.9138V92.9172V92.9206V92.924C145.975 106.397 140.623 119.319 131.096 128.846C121.569 138.373 108.648 143.725 95.175 143.725C81.702 143.725 68.7808 138.373 59.254 128.846C49.7271 119.319 44.375 106.397 44.375 92.924V92.9208V92.9176V92.9144V92.9112V92.908V92.9048V92.9016V92.8984V92.8951V92.8919V92.8887V92.8855V92.8823V92.8791V92.8758V92.8726V92.8694V92.8662V92.863V92.8597V92.8565V92.8533V92.8501V92.8469V92.8436V92.8404V92.8372V92.834V92.8307V92.8275V92.8243V92.821V92.8178V92.8146V92.8113V92.8081V92.8049V92.8016V92.7984V92.7952V92.7919V92.7887V92.7855V92.7822V92.779V92.7757V92.7725V92.7693V92.766V92.7628V92.7595V92.7563V92.753V92.7498V92.7465V92.7433V92.74V92.7368V92.7335V92.7303V92.727V92.7238V92.7205V92.7173V92.714V92.7108V92.7075V92.7043V92.701V92.6978V92.6945V92.6912V92.688V92.6847V92.6815V92.6782V92.6749V92.6717V92.6684V92.6651V92.6619V92.6586V92.6554V92.6521V92.6488V92.6456V92.6423V92.639V92.6357V92.6325V92.6292V92.6259V92.6227V92.6194V92.6161V92.6128V92.6096V92.6063V92.603V92.5997V92.5965V92.5932V92.5899V92.5866V92.5833V92.5801V92.5768V92.5735V92.5702V92.5669V92.5637V92.5604V92.5571V92.5538V92.5505V92.5472V92.5439V92.5407V92.5374V92.5341V92.5308V92.5275V92.5242V92.5209V92.5176V92.5143V92.511V92.5077V92.5045V92.5012V92.4979V92.4946V92.4913V92.488V92.4847V92.4814V92.4781V92.4748V92.4715V92.4682V92.4649V92.4616V92.4583V92.455V92.4517V92.4484V92.4451V92.4417V92.4384V92.4351V92.4318V92.4285V92.4252V92.4219V92.4186V92.4153V92.412V92.4087V92.4054V92.402V92.3987V92.3954V92.3921V92.3888V92.3855V92.3822V92.3788V92.3755V92.3722V92.3689V92.3656V92.3623V92.3589V92.3556V92.3523V92.349V92.3457V92.3423V92.339V92.3357V92.3324V92.3291V92.3257V92.3224V92.3191V92.3158V92.3124V92.3091V92.3058V92.3024V92.2991V92.2958V92.2925V92.2891V92.2858V92.2825V92.2791V92.2758V92.2725V92.2691V92.2658V92.2625V92.2592V92.2558V92.2525V92.2491V92.2458V92.2425V92.2391V92.2358V92.2325V92.2291V92.2258V92.2225V92.2191V92.2158V92.2124V92.2091V92.2058V92.2024V92.1991V92.1957V92.1924V92.189V92.1857V92.1824V92.179V92.1757V92.1723V92.169V92.1656V92.1623V92.1589V92.1556V92.1522V92.1489V92.1455V92.1422V92.1388V92.1355V92.1321V92.1288V92.1254V92.1221V92.1187V92.1154V92.112V92.1088L65.8423 105.32L65.8429 105.32L69.7752 107.748L69.7753 107.748L87.7131 118.829C89.9528 120.213 92.5337 120.946 95.1665 120.946C97.7992 120.946 100.38 120.213 102.62 118.829C102.62 118.829 102.62 118.829 102.62 118.829L124.507 105.32L124.508 105.32L145.975 92.1088ZM124.745 80.5144L140.783 70.6033C143.273 75.6728 144.896 81.1249 145.582 86.7325L124.745 99.6029V80.5144ZM65.5723 99.6039L44.7341 86.7325C45.4194 81.1246 47.0419 75.6722 49.5333 70.6028L65.6045 80.5144L65.5723 99.6039Z" fill="#E95258" stroke="#E95258"/>
</svg>
