<svg width="360" height="180" viewBox="0 0 360 180" fill="none" xmlns="http://www.w3.org/2000/svg">
<g clip-path="url(#clip0)">
<rect width="360" height="180" rx="20" fill="#2A2A2A"/>
<path d="M74 57L302 43L291.5 90L58 104L74 57Z" fill="white"/>
<path d="M122.784 73.2007H93V99.0001H122.784V73.2007Z" fill="#2A2A2A"/>
<path d="M116.827 85.4554H113.104V89.3253H116.827V85.4554Z" fill="white"/>
<path d="M116.827 82.2305H113.104V85.4554H116.827V82.2305Z" fill="white"/>
<path d="M116.827 79.0056H102.68V82.2305H116.827V79.0056Z" fill="white"/>
<path d="M107.725 89.0925V82.2305H102.68V89.0925V92.5503H107.725H116.827V89.0925H107.725Z" fill="white"/>
<path d="M106.291 55.7862L93 73.2008L96.2242 74.5895L110.014 56.1087L106.291 55.7862Z" fill="#2A2A2A"/>
<path d="M108.525 58.0436L119.581 75.2344L122.784 73.2008L110.014 56.1086L108.525 58.0436Z" fill="#2A2A2A"/>
<path d="M147.383 75.625L150.934 67.9375H154.777L149.176 78.8125V85H145.602V78.8125L140 67.9375H143.855L147.383 75.625ZM154.812 78.543C154.812 77.2852 155.055 76.1641 155.539 75.1797C156.023 74.1953 156.719 73.4336 157.625 72.8945C158.539 72.3555 159.598 72.0859 160.801 72.0859C162.512 72.0859 163.906 72.6094 164.984 73.6562C166.07 74.7031 166.676 76.125 166.801 77.9219L166.824 78.7891C166.824 80.7344 166.281 82.2969 165.195 83.4766C164.109 84.6484 162.652 85.2344 160.824 85.2344C158.996 85.2344 157.535 84.6484 156.441 83.4766C155.355 82.3047 154.812 80.7109 154.812 78.6953V78.543ZM158.199 78.7891C158.199 79.9922 158.426 80.9141 158.879 81.5547C159.332 82.1875 159.98 82.5039 160.824 82.5039C161.645 82.5039 162.285 82.1914 162.746 81.5664C163.207 80.9336 163.438 79.9258 163.438 78.543C163.438 77.3633 163.207 76.4492 162.746 75.8008C162.285 75.1523 161.637 74.8281 160.801 74.8281C159.973 74.8281 159.332 75.1523 158.879 75.8008C158.426 76.4414 158.199 77.4375 158.199 78.7891ZM176.504 83.7109C175.668 84.7266 174.512 85.2344 173.035 85.2344C171.676 85.2344 170.637 84.8438 169.918 84.0625C169.207 83.2812 168.844 82.1367 168.828 80.6289V72.3203H172.215V80.5117C172.215 81.832 172.816 82.4922 174.02 82.4922C175.168 82.4922 175.957 82.0938 176.387 81.2969V72.3203H179.785V85H176.598L176.504 83.7109ZM189.465 75.4961C189.004 75.4336 188.598 75.4023 188.246 75.4023C186.965 75.4023 186.125 75.8359 185.727 76.7031V85H182.34V72.3203H185.539L185.633 73.832C186.312 72.668 187.254 72.0859 188.457 72.0859C188.832 72.0859 189.184 72.1367 189.512 72.2383L189.465 75.4961ZM197.691 79.0586H191.094V76.3281H197.691V79.0586ZM204.148 78.9883V85H200.633V67.9375H207.289C208.57 67.9375 209.695 68.1719 210.664 68.6406C211.641 69.1094 212.391 69.7773 212.914 70.6445C213.438 71.5039 213.699 72.4844 213.699 73.5859C213.699 75.2578 213.125 76.5781 211.977 77.5469C210.836 78.5078 209.254 78.9883 207.23 78.9883H204.148ZM204.148 76.1406H207.289C208.219 76.1406 208.926 75.9219 209.41 75.4844C209.902 75.0469 210.148 74.4219 210.148 73.6094C210.148 72.7734 209.902 72.0977 209.41 71.582C208.918 71.0664 208.238 70.8008 207.371 70.7852H204.148V76.1406ZM219.477 85H216.078V67H219.477V85ZM229.625 85C229.469 84.6953 229.355 84.3164 229.285 83.8633C228.465 84.7773 227.398 85.2344 226.086 85.2344C224.844 85.2344 223.812 84.875 222.992 84.1562C222.18 83.4375 221.773 82.5312 221.773 81.4375C221.773 80.0938 222.27 79.0625 223.262 78.3438C224.262 77.625 225.703 77.2617 227.586 77.2539H229.145V76.5273C229.145 75.9414 228.992 75.4727 228.688 75.1211C228.391 74.7695 227.918 74.5938 227.27 74.5938C226.699 74.5938 226.25 74.7305 225.922 75.0039C225.602 75.2773 225.441 75.6523 225.441 76.1289H222.055C222.055 75.3945 222.281 74.7148 222.734 74.0898C223.188 73.4648 223.828 72.9766 224.656 72.625C225.484 72.2656 226.414 72.0859 227.445 72.0859C229.008 72.0859 230.246 72.4805 231.16 73.2695C232.082 74.0508 232.543 75.1523 232.543 76.5742V82.0703C232.551 83.2734 232.719 84.1836 233.047 84.8008V85H229.625ZM226.824 82.6445C227.324 82.6445 227.785 82.5352 228.207 82.3164C228.629 82.0898 228.941 81.7891 229.145 81.4141V79.2344H227.879C226.184 79.2344 225.281 79.8203 225.172 80.9922L225.16 81.1914C225.16 81.6133 225.309 81.9609 225.605 82.2344C225.902 82.5078 226.309 82.6445 226.824 82.6445ZM240.418 82.5039C241.043 82.5039 241.551 82.332 241.941 81.9883C242.332 81.6445 242.535 81.1875 242.551 80.6172H245.727C245.719 81.4766 245.484 82.2656 245.023 82.9844C244.562 83.6953 243.93 84.25 243.125 84.6484C242.328 85.0391 241.445 85.2344 240.477 85.2344C238.664 85.2344 237.234 84.6602 236.188 83.5117C235.141 82.3555 234.617 80.7617 234.617 78.7305V78.5078C234.617 76.5547 235.137 74.9961 236.176 73.832C237.215 72.668 238.641 72.0859 240.453 72.0859C242.039 72.0859 243.309 72.5391 244.262 73.4453C245.223 74.3438 245.711 75.543 245.727 77.043H242.551C242.535 76.3867 242.332 75.8555 241.941 75.4492C241.551 75.0352 241.035 74.8281 240.395 74.8281C239.605 74.8281 239.008 75.1172 238.602 75.6953C238.203 76.2656 238.004 77.1953 238.004 78.4844V78.8359C238.004 80.1406 238.203 81.0781 238.602 81.6484C239 82.2188 239.605 82.5039 240.418 82.5039ZM253.496 85.2344C251.637 85.2344 250.121 84.6641 248.949 83.5234C247.785 82.3828 247.203 80.8633 247.203 78.9648V78.6367C247.203 77.3633 247.449 76.2266 247.941 75.2266C248.434 74.2188 249.129 73.4453 250.027 72.9062C250.934 72.3594 251.965 72.0859 253.121 72.0859C254.855 72.0859 256.219 72.6328 257.211 73.7266C258.211 74.8203 258.711 76.3711 258.711 78.3789V79.7617H250.637C250.746 80.5898 251.074 81.2539 251.621 81.7539C252.176 82.2539 252.875 82.5039 253.719 82.5039C255.023 82.5039 256.043 82.0312 256.777 81.0859L258.441 82.9492C257.934 83.668 257.246 84.2305 256.379 84.6367C255.512 85.0352 254.551 85.2344 253.496 85.2344ZM253.109 74.8281C252.438 74.8281 251.891 75.0547 251.469 75.5078C251.055 75.9609 250.789 76.6094 250.672 77.4531H255.383V77.1836C255.367 76.4336 255.164 75.8555 254.773 75.4492C254.383 75.0352 253.828 74.8281 253.109 74.8281Z" fill="#2A2A2A"/>
<path d="M65.6172 151.797H63.7422V149H56.25V151.797H54.3438L54.2812 147.422H55.1953C55.6484 146.984 56.0104 146.349 56.2812 145.516C56.5521 144.677 56.7266 143.729 56.8047 142.672L57.1016 137.625H64.2734V147.422H65.7188L65.6172 151.797ZM57.4297 147.422H62.3047V139.219H58.9844L58.7969 142.422C58.6562 144.562 58.2005 146.229 57.4297 147.422ZM74.6719 137.625H76.6484V149H74.6719V140.898L69.6797 149H67.7031V137.625H69.6797V145.734L74.6719 137.625ZM85.2031 140.727C85.2031 140.216 85.0104 139.81 84.625 139.508C84.2396 139.206 83.7161 139.055 83.0547 139.055C82.487 139.055 82.013 139.206 81.6328 139.508C81.2526 139.805 81.0625 140.19 81.0625 140.664H79.0938C79.0938 140.044 79.2656 139.492 79.6094 139.008C79.9531 138.523 80.4297 138.148 81.0391 137.883C81.6484 137.612 82.3203 137.477 83.0547 137.477C84.3568 137.477 85.3672 137.76 86.0859 138.328C86.8099 138.896 87.1719 139.69 87.1719 140.711C87.1719 141.227 87.0156 141.701 86.7031 142.133C86.3906 142.565 85.9531 142.906 85.3906 143.156C86.026 143.375 86.5104 143.708 86.8438 144.156C87.1823 144.599 87.3516 145.151 87.3516 145.812C87.3516 146.833 86.9609 147.646 86.1797 148.25C85.3984 148.849 84.3568 149.148 83.0547 149.148C82.2526 149.148 81.526 149.005 80.875 148.719C80.2292 148.432 79.7422 148.042 79.4141 147.547C79.0911 147.052 78.9297 146.484 78.9297 145.844H80.8984C80.8984 146.333 81.1016 146.747 81.5078 147.086C81.9141 147.419 82.4297 147.586 83.0547 147.586C83.7526 147.586 84.3125 147.422 84.7344 147.094C85.1615 146.766 85.375 146.339 85.375 145.812C85.375 145.172 85.1875 144.708 84.8125 144.422C84.4427 144.13 83.8984 143.984 83.1797 143.984H81.8438V142.422H83.1094C84.5052 142.422 85.2031 141.857 85.2031 140.727ZM96.0547 146.352H91.6484L90.7266 149H88.6719L92.9688 137.625H94.7422L99.0469 149H96.9844L96.0547 146.352ZM92.2031 144.758H95.5L93.8516 140.039L92.2031 144.758ZM107.812 137.625H109.789V149H107.812V140.898L102.82 149H100.844V137.625H102.82V145.734L107.812 137.625ZM107.875 134.727C107.875 135.383 107.646 135.914 107.188 136.32C106.729 136.727 106.117 136.93 105.352 136.93C104.586 136.93 103.974 136.727 103.516 136.32C103.057 135.914 102.828 135.383 102.828 134.727H104.25C104.25 135.07 104.346 135.339 104.539 135.531C104.737 135.719 105.008 135.812 105.352 135.812C105.695 135.812 105.964 135.719 106.156 135.531C106.349 135.339 106.445 135.07 106.445 134.727H107.875ZM121.688 149H119.719V143.945H114.633V149H112.656V137.625H114.633V142.359H119.719V137.625H121.688V149ZM137.695 145.297C137.581 146.51 137.133 147.458 136.352 148.141C135.57 148.818 134.531 149.156 133.234 149.156C132.328 149.156 131.529 148.943 130.836 148.516C130.148 148.083 129.617 147.471 129.242 146.68C128.867 145.888 128.672 144.969 128.656 143.922V142.859C128.656 141.786 128.846 140.841 129.227 140.023C129.607 139.206 130.151 138.576 130.859 138.133C131.573 137.69 132.396 137.469 133.328 137.469C134.583 137.469 135.594 137.81 136.359 138.492C137.125 139.174 137.57 140.138 137.695 141.383H135.727C135.633 140.565 135.393 139.977 135.008 139.617C134.628 139.253 134.068 139.07 133.328 139.07C132.469 139.07 131.807 139.385 131.344 140.016C130.885 140.641 130.651 141.56 130.641 142.773V143.781C130.641 145.01 130.859 145.948 131.297 146.594C131.74 147.24 132.385 147.562 133.234 147.562C134.01 147.562 134.594 147.388 134.984 147.039C135.375 146.69 135.622 146.109 135.727 145.297H137.695ZM147.953 139.219H144.406V149H142.445V139.219H138.93V137.625H147.953V139.219ZM154.047 143.57L156.328 137.625H158.523L154.562 147.062L154.203 147.773C153.682 148.701 152.839 149.164 151.672 149.164L150.859 149.117L150.875 147.555C151 147.576 151.221 147.586 151.539 147.586C152.102 147.586 152.497 147.346 152.727 146.867L153.133 145.906L149.242 137.625H151.398L154.047 143.57ZM170.352 151.797H168.477V149H160.984V151.797H159.078L159.016 147.422H159.93C160.383 146.984 160.745 146.349 161.016 145.516C161.286 144.677 161.461 143.729 161.539 142.672L161.836 137.625H169.008V147.422H170.453L170.352 151.797ZM162.164 147.422H167.039V139.219H163.719L163.531 142.422C163.391 144.562 162.935 146.229 162.164 147.422ZM179.406 137.625H181.383V149H179.406V140.898L174.414 149H172.438V137.625H174.414V145.734L179.406 137.625ZM189.859 149V144.75H187.656L185.461 149H183.344L185.883 144.164C184.56 143.539 183.898 142.516 183.898 141.094C183.898 140.005 184.255 139.159 184.969 138.555C185.688 137.945 186.688 137.635 187.969 137.625H191.836V149H189.859ZM185.867 141.18C185.867 141.82 186.047 142.32 186.406 142.68C186.766 143.039 187.305 143.219 188.023 143.219H189.859V139.219H188.023C187.294 139.219 186.753 139.393 186.398 139.742C186.044 140.091 185.867 140.57 185.867 141.18ZM206.141 137.625H208.117V149H206.141V140.898L201.148 149H199.172V137.625H201.148V145.734L206.141 137.625ZM220.016 149H218.047V143.945H212.961V149H210.984V137.625H212.961V142.359H218.047V137.625H220.016V149ZM230.844 139.219H227.297V149H225.336V139.219H221.82V137.625H230.844V139.219ZM239.492 143.922H234.82V147.422H240.281V149H232.844V137.625H240.227V139.219H234.82V142.359H239.492V143.922ZM244.367 144.773V149H242.391V137.625H246.742C248.013 137.625 249.021 137.956 249.766 138.617C250.516 139.279 250.891 140.154 250.891 141.242C250.891 142.357 250.523 143.224 249.789 143.844C249.06 144.464 248.036 144.773 246.719 144.773H244.367ZM244.367 143.188H246.742C247.445 143.188 247.982 143.023 248.352 142.695C248.721 142.362 248.906 141.883 248.906 141.258C248.906 140.643 248.719 140.154 248.344 139.789C247.969 139.419 247.453 139.229 246.797 139.219H244.367V143.188ZM255.07 141.977H257.398C258.232 141.977 258.958 142.12 259.578 142.406C260.198 142.693 260.669 143.099 260.992 143.625C261.315 144.151 261.477 144.76 261.477 145.453C261.477 146.516 261.115 147.37 260.391 148.016C259.672 148.661 258.69 148.99 257.445 149H253.094V137.625H255.07V141.977ZM255.07 143.562V147.422H257.391C258.057 147.422 258.576 147.242 258.945 146.883C259.32 146.518 259.508 146.036 259.508 145.438C259.508 144.865 259.326 144.411 258.961 144.078C258.596 143.745 258.091 143.573 257.445 143.562H255.07ZM270.336 143.922H265.664V147.422H271.125V149H263.688V137.625H271.07V139.219H265.664V142.359H270.336V143.922ZM275.211 144.773V149H273.234V137.625H277.586C278.857 137.625 279.865 137.956 280.609 138.617C281.359 139.279 281.734 140.154 281.734 141.242C281.734 142.357 281.367 143.224 280.633 143.844C279.904 144.464 278.88 144.773 277.562 144.773H275.211ZM275.211 143.188H277.586C278.289 143.188 278.826 143.023 279.195 142.695C279.565 142.362 279.75 141.883 279.75 141.258C279.75 140.643 279.562 140.154 279.188 139.789C278.812 139.419 278.297 139.229 277.641 139.219H275.211V143.188ZM293.047 143.609C293.047 144.724 292.854 145.703 292.469 146.547C292.083 147.385 291.531 148.031 290.812 148.484C290.099 148.932 289.276 149.156 288.344 149.156C287.422 149.156 286.599 148.932 285.875 148.484C285.156 148.031 284.599 147.388 284.203 146.555C283.812 145.721 283.615 144.76 283.609 143.672V143.031C283.609 141.922 283.805 140.943 284.195 140.094C284.591 139.245 285.146 138.596 285.859 138.148C286.578 137.695 287.401 137.469 288.328 137.469C289.255 137.469 290.076 137.693 290.789 138.141C291.508 138.583 292.062 139.224 292.453 140.062C292.844 140.896 293.042 141.867 293.047 142.977V143.609ZM291.07 143.016C291.07 141.755 290.831 140.789 290.352 140.117C289.878 139.445 289.203 139.109 288.328 139.109C287.474 139.109 286.805 139.445 286.32 140.117C285.841 140.784 285.596 141.729 285.586 142.953V143.609C285.586 144.859 285.828 145.826 286.312 146.508C286.802 147.19 287.479 147.531 288.344 147.531C289.219 147.531 289.891 147.198 290.359 146.531C290.833 145.865 291.07 144.891 291.07 143.609V143.016ZM295.516 149V137.625H299.414C300.701 137.625 301.68 137.883 302.352 138.398C303.023 138.914 303.359 139.682 303.359 140.703C303.359 141.224 303.219 141.693 302.938 142.109C302.656 142.526 302.245 142.849 301.703 143.078C302.318 143.245 302.792 143.56 303.125 144.023C303.464 144.482 303.633 145.034 303.633 145.68C303.633 146.747 303.289 147.568 302.602 148.141C301.919 148.714 300.94 149 299.664 149H295.516ZM297.492 143.867V147.422H299.688C300.307 147.422 300.792 147.268 301.141 146.961C301.49 146.654 301.664 146.227 301.664 145.68C301.664 144.497 301.06 143.893 299.852 143.867H297.492ZM297.492 142.414H299.43C300.044 142.414 300.523 142.276 300.867 142C301.216 141.719 301.391 141.323 301.391 140.812C301.391 140.25 301.229 139.844 300.906 139.594C300.589 139.344 300.091 139.219 299.414 139.219H297.492V142.414Z" fill="#DB883A"/>
<path d="M54 158H304V160H54V158Z" fill="#DB883A"/>
<path d="M-87 175L52.1396 52.1303C53.3228 51.0823 54 49.5789 54 48C54 46.4211 53.3228 44.9177 52.1396 43.8697L-87 -79" stroke="white" stroke-width="1.5" stroke-linecap="round" stroke-linejoin="round"/>
<path d="M401.071 -128L313.772 35.8164C313.031 37.2123 312.923 38.8577 313.476 40.3366C314.029 41.8155 315.19 42.9866 316.665 43.5538L490.023 109.915" stroke="white" stroke-width="1.5" stroke-linecap="round" stroke-linejoin="round"/>
</g>
<defs>
<clipPath id="clip0">
<rect width="360" height="180" rx="20" fill="white"/>
</clipPath>
</defs>
</svg>
