<svg width="77" height="77" viewBox="0 0 77 77" fill="none" xmlns="http://www.w3.org/2000/svg">
<path d="M54.5417 35.2917V9.625H22.4583V22.4583H9.625V67.375H35.2917V54.5417H41.7083V67.375H67.375V35.2917H54.5417ZM22.4583 60.9583H16.0417V54.5417H22.4583V60.9583ZM22.4583 48.125H16.0417V41.7083H22.4583V48.125ZM22.4583 35.2917H16.0417V28.875H22.4583V35.2917ZM35.2917 48.125H28.875V41.7083H35.2917V48.125ZM35.2917 35.2917H28.875V28.875H35.2917V35.2917ZM35.2917 22.4583H28.875V16.0417H35.2917V22.4583ZM48.125 48.125H41.7083V41.7083H48.125V48.125ZM48.125 35.2917H41.7083V28.875H48.125V35.2917ZM48.125 22.4583H41.7083V16.0417H48.125V22.4583ZM60.9583 60.9583H54.5417V54.5417H60.9583V60.9583ZM60.9583 48.125H54.5417V41.7083H60.9583V48.125Z" fill="#F7941D"/>
</svg>
