<svg width="270" height="160" viewBox="0 0 270 160" fill="none" xmlns="http://www.w3.org/2000/svg">
<rect width="270" height="160" fill="#FF5A5F"/>
<path fill-rule="evenodd" clip-rule="evenodd" d="M65.209 47.3297C61.696 48.0551 59.59 49.8131 57.481 53.7821C55.2658 57.9503 50.575 67.3259 48.0322 72.6677C47.7184 73.3265 47.0248 74.7731 46.4908 75.8825C45.9568 76.9913 45.379 78.2111 45.2062 78.5921C45.0334 78.9737 44.7322 79.6259 44.5372 80.0417C44.3422 80.4581 43.9558 81.2801 43.6792 81.8699C42.898 83.5337 42.268 84.9095 42.268 84.9521C42.268 84.9731 41.9896 85.5785 41.6494 86.2979C41.3092 87.0167 40.8238 88.1153 40.5718 88.7393C40.3192 89.3633 40.0648 89.9873 40.0066 90.1259C39.9484 90.2645 39.8128 90.7187 39.7054 91.1345C39.598 91.5503 39.4366 92.1743 39.3472 92.5211C38.4454 96.0173 39.997 101.126 42.802 103.897C48.9946 110.016 57.3628 108.928 65.422 100.955C66.292 100.095 67.0408 99.3905 67.0864 99.3905C67.1314 99.3905 67.8478 100.077 68.6782 100.915C69.5086 101.754 70.6138 102.781 71.1334 103.196C71.6536 103.613 72.1924 104.047 72.331 104.162C79.3348 109.976 89.1616 108.536 93.3532 101.084C95.6578 96.9857 95.482 92.9807 92.7268 86.7887C92.1514 85.4945 92.0806 85.3379 91.6906 84.4853C90.787 82.5089 90.496 81.8795 90.0436 80.9243C89.7814 80.3699 89.4244 79.6037 89.2504 79.2227C89.077 78.8411 88.6228 77.8769 88.2418 77.0795C87.8614 76.2827 87.253 75.0065 86.8906 74.2439C86.5282 73.4813 85.9756 72.3185 85.6624 71.6597C84.9736 70.2095 82.3066 64.7633 80.2612 60.6299C79.438 58.9661 78.5038 57.1511 78.1852 56.5967C77.866 56.0417 77.2492 54.9101 76.8142 54.0815C73.9468 48.6209 70.0198 46.3361 65.209 47.3297ZM69.2344 51.2999C70.8754 51.9275 72.2068 53.3327 73.531 55.8335C74.4184 57.5093 79.2994 67.2683 80.5954 69.9581C82.2988 73.4927 83.242 75.4649 83.5798 76.1975C83.7556 76.5785 84.1528 77.4293 84.4624 78.0881C84.7714 78.7469 85.1674 79.5977 85.342 79.9787C85.516 80.3603 85.936 81.2555 86.2744 81.9683C86.6128 82.6811 86.89 83.2889 86.89 83.3189C86.89 83.3483 87.151 83.9279 87.4696 84.6065C87.7888 85.2851 88.1902 86.1521 88.3618 86.5337C88.5334 86.9147 88.807 87.5105 88.9696 87.8573C89.2804 88.5203 89.8306 89.7401 90.106 90.3779C91.7524 94.1885 91.081 98.5637 88.438 101.258C83.7784 106.008 76.7536 104.534 70.3306 97.4591L69.3604 96.3905L70.5784 94.7705C71.8564 93.0713 72.1204 92.6783 73.3624 90.6299C76.8292 84.9125 77.9074 79.1609 76.2256 75.3593C76.1284 75.1403 76.0498 74.9201 76.0498 74.8691C76.0498 73.9553 72.646 70.6181 71.323 70.2341C71.1838 70.1939 70.7302 70.0415 70.3144 69.8963C67.2274 68.8151 63.8698 69.2933 60.907 71.2367C60.1444 71.7371 59.794 72.0665 58.9234 73.1051C57.217 75.1385 56.4736 78.8873 57.136 82.1219C57.463 83.7203 57.628 84.4025 57.7618 84.7061C57.8224 84.8447 58.0546 85.4399 58.2772 86.0291C58.7044 87.1607 59.8318 89.4845 60.3586 90.3185C60.5308 90.5909 60.6712 90.8411 60.6712 90.8747C60.6712 90.9383 61.972 92.9363 62.1532 93.1511C62.2114 93.2207 62.4964 93.6173 62.7856 94.0337C63.0748 94.4495 63.5686 95.1209 63.8824 95.5259C64.5922 96.4409 64.6048 96.3341 63.6664 97.3457C60.8056 100.427 58.5478 102.098 55.4404 103.431C50.7094 105.461 44.7028 102.548 43.2658 97.5251C42.676 95.4635 43.0168 91.6241 43.9 90.3779C43.9492 90.3089 44.0938 89.9687 44.2216 89.6219C44.3494 89.2751 44.5858 88.7423 44.7478 88.4369C44.9092 88.1321 45.0412 87.8309 45.0412 87.7685C45.0412 87.6581 45.1558 87.3923 45.94 85.6829C46.1392 85.2497 46.4776 84.5123 46.6918 84.0443C46.9066 83.5763 47.3038 82.7255 47.5744 82.1531C47.845 81.5813 48.301 80.6171 48.5884 80.0105C48.8752 79.4039 49.477 78.1415 49.9252 77.2061C50.374 76.2701 50.8978 75.1637 51.0904 74.7479C53.3638 69.8261 60.0754 56.4821 61.2772 54.4961C63.1708 51.3659 66.2134 50.1437 69.2344 51.2999ZM135.482 58.0295C132.121 58.9115 131.494 63.5609 134.529 65.0993C137.915 66.8165 141.444 63.3221 139.688 59.9903C138.904 58.5023 137.024 57.6257 135.482 58.0295ZM158.739 74.5589V91.1975H161.243C164.205 91.1975 164.411 91.1273 164.411 90.1169C164.411 89.4371 164.393 89.4377 165.203 90.0827C167.877 92.2133 172.146 92.3447 175.755 90.4079C183.558 86.2211 183.811 74.4839 176.196 69.9431C172.698 67.8557 168.036 67.8149 165.356 69.8465C165.009 70.1093 164.707 70.3697 164.684 70.4249C164.463 70.9535 164.411 69.7817 164.411 64.2227V57.9203H161.575H158.739V74.5589ZM207.899 74.5589V91.1975H210.482C213.477 91.1975 213.57 91.1651 213.57 90.1337C213.57 89.3909 213.666 89.3657 214.262 89.9501C216.052 91.7093 219.999 92.3021 222.962 91.2575C227.054 89.8139 229.418 87.2771 230.603 83.0585C230.946 81.8345 231.023 78.4685 230.732 77.3951C229.311 72.1589 225.903 69.0815 220.818 68.4449C218.172 68.1137 215.078 68.9573 213.966 70.3127C213.604 70.7543 213.57 70.2347 213.57 64.1519V57.9203H210.734H207.899V74.5589ZM116.953 68.2121C114.4 68.5121 111.854 69.7595 110.135 71.5523C104.09 77.8589 106.44 88.3577 114.516 91.1213C117.91 92.2829 121.32 91.8989 123.283 90.1343C124.062 89.4341 124.075 89.4329 124.075 90.0689C124.075 91.1189 124.293 91.1975 127.22 91.1975H129.747V79.9787V68.7605H127.22C124.293 68.7605 124.075 68.8385 124.075 69.8891C124.075 70.5185 124.059 70.5185 123.338 69.8801C121.859 68.5727 119.387 67.9265 116.953 68.2121ZM152.751 68.2109C151.304 68.5073 149.924 69.1793 148.97 70.0517C148.466 70.5131 148.403 70.4927 148.398 69.8633C148.391 68.8355 148.372 68.8289 145.372 68.7851L142.73 68.7461V79.9721V91.1975H145.566H148.403V83.2583V75.3185L149.127 74.7467C150.938 73.3169 154.083 72.7583 156.055 73.5149C156.185 73.5647 156.218 73.0397 156.218 70.9349V68.2919L155.443 68.2109C154.62 68.1251 153.171 68.1251 152.751 68.2109ZM194.537 68.2019C192.792 68.5073 191.447 69.0527 190.413 69.8759C189.604 70.5191 189.621 70.5191 189.621 69.8555C189.621 68.8121 189.485 68.7605 186.717 68.7605H184.327V79.9787V91.1975H187.163H189.999V83.2667V75.3365L190.598 74.8085C193.141 72.5645 197.232 72.6641 198.486 74.9999C199.055 76.0613 199.075 76.3607 199.075 83.9723V91.1975H201.919H204.764L204.719 83.1617C204.668 74.2181 204.686 74.4155 203.781 72.5621C202.364 69.6593 197.993 67.5977 194.537 68.2019ZM133.529 79.9787V91.1975H136.365H139.201V79.9787V68.7605H136.365H133.529V79.9787ZM68.1604 72.7349C68.5702 72.7799 68.9956 72.8597 69.1054 72.9113C70.5832 73.6049 70.9018 73.8119 71.638 74.5553C73.8328 76.7723 74.1094 79.5701 72.5542 83.8235C72.1252 84.9965 71.2018 86.9261 70.6756 87.7487C70.4422 88.1135 70.2514 88.4393 70.2514 88.4723C70.2514 88.7021 67.132 93.0725 66.9598 93.0833C66.742 93.0971 64.0552 89.2829 63.1888 87.7313C59.7988 81.6551 59.5192 77.1767 62.3578 74.4095C63.4984 73.2971 65.7598 72.4403 67.1002 72.6119C67.2736 72.6341 67.7506 72.6893 68.1604 72.7349ZM120.813 73.6139C121.824 73.9619 122.709 74.4707 123.396 75.0977L124.075 75.7187V79.9787V84.2393L123.381 84.8735C119.605 88.3241 113.273 86.1557 112.472 81.1367C111.881 77.4419 113.944 74.3657 117.583 73.5125C118.202 73.3679 120.287 73.4333 120.813 73.6139ZM171.785 73.7669C174.603 74.8601 176.112 76.9517 176.129 79.7897C176.164 85.6205 169.343 88.7471 165.083 84.8531L164.411 84.2393V79.9763V75.7133L165.123 75.0785C166.878 73.5143 169.701 72.9587 171.785 73.7669ZM220.512 73.6181C224.657 74.7899 226.511 79.1351 224.567 83.1185C222.782 86.7779 217.16 87.6959 214.235 84.8057L213.57 84.1493V79.9331V75.7163L214.227 75.1265C215.895 73.6265 218.409 73.0229 220.512 73.6181Z" fill="#FCFBFB"/>
<path fill-rule="evenodd" clip-rule="evenodd" d="M66.3788 47.0462C66.7802 47.0714 67.4042 47.0708 67.7654 47.0456C68.1272 47.0204 67.799 46.9994 67.0364 47C66.2738 47 65.978 47.021 66.3788 47.0462ZM74.0948 49.9778C74.5064 50.3942 74.8718 50.7344 74.9066 50.7344C74.9414 50.7344 74.6324 50.3942 74.2208 49.9778C73.8092 49.562 73.4444 49.2218 73.4096 49.2218C73.3748 49.2218 73.6832 49.562 74.0948 49.9778ZM59.7818 50.0726L59.3474 50.5454L59.8196 50.111C60.26 49.7066 60.3506 49.5998 60.254 49.5998C60.233 49.5998 60.0206 49.8128 59.7818 50.0726ZM66.5666 51.0788C66.8636 51.1058 67.3172 51.1052 67.5752 51.0782C67.8332 51.0512 67.5908 51.029 67.0364 51.0296C66.4814 51.0302 66.2702 51.0524 66.5666 51.0788ZM71.2538 52.7828C71.5628 53.1122 71.8322 53.3816 71.8526 53.3816C71.9468 53.3816 71.8472 53.2682 71.2904 52.7456L70.6916 52.184L71.2538 52.7828ZM136.816 57.8384C136.845 57.8636 137.038 57.9218 137.246 57.9686C137.523 58.0298 137.574 58.0184 137.436 57.9248C137.265 57.8096 136.689 57.7292 136.816 57.8384ZM164.44 63.9938C164.411 70.1168 164.442 70.64 164.806 70.1762C164.961 69.9782 164.956 69.9734 164.758 70.1288C164.55 70.292 164.537 69.968 164.505 64.0154L164.471 57.7304L164.44 63.9938ZM138.948 58.8644C139.183 59.1074 139.404 59.306 139.438 59.306C139.473 59.306 139.309 59.1074 139.074 58.8644C138.839 58.622 138.618 58.4234 138.583 58.4234C138.549 58.4234 138.713 58.622 138.948 58.8644ZM132.472 60.7604C132.429 60.8726 132.398 61.0598 132.404 61.1756C132.41 61.2908 132.465 61.2182 132.526 61.0136C132.645 60.6158 132.603 60.419 132.472 60.7604ZM140.176 61.4792C140.244 62.6228 140.304 62.768 140.318 61.8266C140.325 61.376 140.286 60.9362 140.23 60.8486C140.175 60.7616 140.151 61.0454 140.176 61.4792ZM133.522 64.5056C133.831 64.8344 134.101 65.1038 134.121 65.1038C134.216 65.1038 134.116 64.991 133.56 64.4684L132.961 63.9068L133.522 64.5056ZM136.364 65.6084L135.481 65.69L136.301 65.7104C136.752 65.7212 137.205 65.6756 137.31 65.6084C137.413 65.5412 137.442 65.495 137.373 65.5064C137.303 65.5178 136.849 65.5634 136.364 65.6084ZM116.794 68.09C116.916 68.1218 117.114 68.1218 117.236 68.09C117.357 68.0582 117.258 68.0324 117.015 68.0324C116.773 68.0324 116.673 68.0582 116.794 68.09ZM119.043 68.0486C119.071 68.0738 119.35 68.1278 119.662 68.1692C120.041 68.219 120.146 68.207 119.977 68.1326C119.737 68.0258 118.933 67.9538 119.043 68.0486ZM155.24 68.09C155.361 68.1218 155.56 68.1218 155.681 68.09C155.802 68.0582 155.703 68.0324 155.461 68.0324C155.218 68.0324 155.119 68.0582 155.24 68.09ZM196.816 68.0486C196.845 68.0738 197.124 68.1278 197.436 68.1692C197.814 68.219 197.919 68.207 197.751 68.1326C197.51 68.0258 196.706 67.9538 196.816 68.0486ZM156.057 68.2202C156.169 68.2994 156.222 69.0632 156.25 70.9712L156.288 73.6124L156.284 70.913C156.28 68.6222 156.251 68.2052 156.091 68.1614C155.953 68.1242 155.944 68.1404 156.057 68.2202ZM167.688 68.513C167.55 68.6066 167.601 68.6186 167.877 68.5568C168.34 68.453 168.441 68.381 168.118 68.3834C167.985 68.3846 167.791 68.4428 167.688 68.513ZM172.488 68.4266C172.517 68.4518 172.711 68.51 172.918 68.5568C173.195 68.6186 173.246 68.6066 173.107 68.513C172.938 68.3978 172.362 68.3174 172.488 68.4266ZM66.5636 69.2288C66.7886 69.257 67.1576 69.257 67.3826 69.2288C67.6082 69.2012 67.424 69.1778 66.9734 69.1778C66.5228 69.1778 66.338 69.2012 66.5636 69.2288ZM189.642 69.6734C189.621 70.244 189.753 70.4402 189.948 70.1264C190.002 70.0394 189.982 70.0154 189.899 70.0664C189.81 70.1216 189.744 69.9626 189.712 69.6134L189.664 69.0746L189.642 69.6734ZM123.968 69.6956L123.948 70.19L123.601 69.8846L123.255 69.5786L123.562 69.9272C123.927 70.3412 124.113 70.2242 124.041 69.6266C123.989 69.206 123.988 69.2066 123.968 69.6956ZM201.154 69.5678C201.362 69.7466 201.584 69.893 201.648 69.8936C201.784 69.8942 201.783 69.893 201.217 69.5276L200.776 69.2432L201.154 69.5678ZM214.641 69.59L214.263 69.9146L214.673 69.644C214.898 69.4946 215.082 69.3482 215.082 69.3182C215.082 69.224 215.029 69.2564 214.641 69.59ZM64.2002 69.5216C64.0622 69.6152 64.1132 69.6266 64.3892 69.5648C64.8524 69.461 64.9532 69.389 64.631 69.392C64.4978 69.3926 64.304 69.4514 64.2002 69.5216ZM69.1268 69.4352C69.1556 69.4598 69.3494 69.5186 69.557 69.5648C69.8336 69.6266 69.8846 69.6152 69.746 69.5216C69.5762 69.4064 69.0002 69.326 69.1268 69.4352ZM176.889 70.1882C176.889 70.2224 177.116 70.4306 177.393 70.6502C177.67 70.8698 177.898 71.021 177.898 70.9868C177.898 70.952 177.67 70.7438 177.393 70.5242C177.116 70.3046 176.889 70.1534 176.889 70.1882ZM110.078 71.375L109.389 72.0998L110.114 71.411C110.787 70.7708 110.896 70.6502 110.803 70.6502C110.783 70.6502 110.457 70.9766 110.078 71.375ZM60.4568 71.3528L60.1034 71.6768L60.5132 71.3918C60.7382 71.2352 60.923 71.0894 60.923 71.0678C60.923 70.9682 60.7832 71.0534 60.4568 71.3528ZM227.562 71.4698C227.797 71.7122 228.018 71.9108 228.052 71.9108C228.087 71.9108 227.923 71.7122 227.688 71.4698C227.452 71.2268 227.232 71.0282 227.197 71.0282C227.162 71.0282 227.326 71.2268 227.562 71.4698ZM74.1578 72.0998C74.5346 72.4814 74.8712 72.7934 74.906 72.7934C74.9402 72.7934 74.6606 72.4814 74.2838 72.0998C73.9076 71.7188 73.571 71.4068 73.5362 71.4068C73.502 71.4068 73.7816 71.7188 74.1578 72.0998ZM67.5404 72.7934C68.0738 72.929 68.531 72.929 68.1074 72.7934C67.9346 72.7376 67.6508 72.6932 67.4774 72.6944C67.1942 72.6968 67.2008 72.707 67.5404 72.7934ZM152.845 73.3844C152.967 73.4162 153.165 73.4162 153.286 73.3844C153.408 73.3526 153.308 73.3268 153.066 73.3268C152.823 73.3268 152.724 73.3526 152.845 73.3844ZM118.813 73.514C119.005 73.5428 119.289 73.5422 119.443 73.5122C119.598 73.4822 119.442 73.4588 119.095 73.4594C118.749 73.4606 118.621 73.4846 118.813 73.514ZM154.988 73.5104C155.109 73.5422 155.308 73.5422 155.429 73.5104C155.55 73.4786 155.451 73.4528 155.208 73.4528C154.966 73.4528 154.867 73.4786 154.988 73.5104ZM169.107 73.514C169.299 73.5428 169.582 73.5422 169.738 73.5122C169.893 73.4822 169.736 73.4588 169.389 73.4594C169.042 73.4606 168.916 73.4846 169.107 73.514ZM193.024 73.5554C192.886 73.6484 192.937 73.6604 193.213 73.5986C193.676 73.4948 193.777 73.4228 193.454 73.4252C193.321 73.4264 193.128 73.4846 193.024 73.5554ZM218.265 73.5134C218.456 73.5428 218.768 73.5428 218.958 73.5134C219.149 73.4846 218.993 73.4612 218.612 73.4612C218.23 73.4612 218.074 73.4846 218.265 73.5134ZM62.978 74L62.6246 74.324L63.0338 74.039C63.2594 73.8824 63.4436 73.7366 63.4436 73.715C63.4436 73.6154 63.3044 73.7006 62.978 74ZM71.4482 74.558C71.7188 74.8352 71.9684 75.062 72.0032 75.062C72.038 75.062 71.8448 74.8352 71.5742 74.558C71.303 74.2808 71.0534 74.0534 71.0186 74.0534C70.9838 74.0534 71.177 74.2808 71.4482 74.558ZM190.432 75.0938L190.062 75.503L190.471 75.1328C190.696 74.9294 190.881 74.7452 190.881 74.7236C190.881 74.6258 190.777 74.7116 190.432 75.0938ZM114.299 75.3458L113.801 75.8816L114.337 75.383C114.835 74.9198 114.93 74.81 114.835 74.81C114.814 74.81 114.573 75.0512 114.299 75.3458ZM164.971 75.3458L164.473 75.8816L165.009 75.383C165.304 75.1088 165.544 74.8682 165.544 74.8472C165.544 74.7518 165.435 74.8472 164.971 75.3458ZM214.067 75.4088L213.633 75.8816L214.105 75.4472C214.366 75.2078 214.578 74.9954 214.578 74.9744C214.578 74.8778 214.471 74.969 214.067 75.4088ZM76.373 75.44C76.4198 75.6134 76.5098 75.8402 76.574 75.9446C76.6556 76.076 76.6652 76.0376 76.607 75.8186C76.5602 75.6452 76.4702 75.4184 76.4054 75.314C76.3244 75.1826 76.3148 75.221 76.373 75.44ZM123.726 75.6374C123.922 75.8702 123.948 76.3202 123.979 79.9862L124.015 84.0746L124.044 79.9658L124.074 75.8576L123.79 75.6176C123.507 75.3776 123.507 75.3776 123.726 75.6374ZM164.466 79.9778C164.466 82.2314 164.484 83.153 164.505 82.0262C164.526 80.9 164.526 79.0562 164.505 77.93C164.484 76.8032 164.466 77.7248 164.466 79.9778ZM76.79 76.8542C76.8482 77.2046 76.8662 77.222 76.9058 76.97C76.9316 76.8056 76.9004 76.6196 76.8368 76.556C76.7672 76.4864 76.7486 76.604 76.79 76.8542ZM199.007 84.3266C199.007 88.1396 199.023 89.7176 199.042 87.8336C199.062 85.9496 199.062 82.8296 199.042 80.9006C199.023 78.9722 199.007 80.5136 199.007 84.3266ZM230.869 77.7092C230.869 77.8826 230.912 78.1946 230.965 78.4022C231.051 78.74 231.061 78.7466 231.061 78.4652C231.061 78.2918 231.018 77.9804 230.965 77.7722C230.879 77.435 230.869 77.4278 230.869 77.7092ZM56.7974 78.0872C56.7974 78.3992 56.822 78.527 56.852 78.371C56.882 78.215 56.882 77.9594 56.852 77.8034C56.822 77.6474 56.7974 77.7752 56.7974 78.0872ZM175.764 78.35C175.768 78.5174 175.824 78.7682 175.887 78.9068C175.966 79.082 175.978 79.0058 175.924 78.6542C175.835 78.0692 175.751 77.9096 175.764 78.35ZM181.854 79.9778C181.854 80.8448 181.874 81.1994 181.899 80.7656C181.923 80.3324 181.923 79.6238 181.899 79.19C181.874 78.7568 181.854 79.1114 181.854 79.9778ZM60.4562 79.2218C60.4562 79.6028 60.4802 79.7588 60.509 79.5686C60.5378 79.3778 60.5378 79.0658 60.509 78.875C60.4802 78.6842 60.4562 78.8402 60.4562 79.2218ZM77.0996 79.4738C77.0996 79.994 77.1218 80.2064 77.1488 79.9466C77.1764 79.6868 77.1764 79.2614 77.1488 79.001C77.1218 78.7412 77.0996 78.9536 77.0996 79.4738ZM106.601 80.0408C106.602 80.873 106.622 81.197 106.647 80.7608C106.671 80.3246 106.671 79.6442 106.646 79.2482C106.621 78.8522 106.601 79.2092 106.601 80.0408ZM56.6732 79.5368C56.6738 79.8836 56.6984 80.0102 56.7272 79.8188C56.7566 79.6274 56.7554 79.3436 56.726 79.1882C56.696 79.0334 56.672 79.19 56.6732 79.5368ZM56.7974 81.1124C56.7974 81.4244 56.822 81.5522 56.852 81.3962C56.882 81.2402 56.882 80.9846 56.852 80.8286C56.822 80.6726 56.7974 80.8004 56.7974 81.1124ZM73.1648 80.9234C73.1546 81.062 73.1168 81.3176 73.0814 81.4904L73.0166 81.806L73.1516 81.4964C73.226 81.3266 73.2632 81.071 73.235 80.9294C73.1852 80.678 73.1834 80.678 73.1648 80.9234ZM60.7478 81.4274C60.851 81.8912 60.9236 81.9914 60.9206 81.6692C60.92 81.5366 60.8612 81.3428 60.791 81.2384C60.6974 81.1004 60.686 81.1514 60.7478 81.4274ZM106.823 82.625C106.823 82.7288 106.872 82.9274 106.931 83.066C106.999 83.225 107.04 83.2484 107.04 83.129C107.04 83.0252 106.991 82.8266 106.931 82.688C106.863 82.529 106.823 82.5062 106.823 82.625ZM114.242 84.5786C114.477 84.8216 114.698 85.0202 114.733 85.0202C114.768 85.0202 114.603 84.8216 114.368 84.5786C114.133 84.3362 113.912 84.1376 113.878 84.1376C113.843 84.1376 114.007 84.3362 114.242 84.5786ZM123.354 84.6452C123.062 84.9206 122.866 85.1462 122.919 85.1462C122.971 85.1462 123.236 84.9194 123.507 84.6416C124.14 83.993 124.042 83.9954 123.354 84.6452ZM165.035 84.6734C165.558 85.2302 165.67 85.3298 165.67 85.2356C165.67 85.2152 165.401 84.9458 165.072 84.6368L164.473 84.0746L165.035 84.6734ZM174.109 84.6104L173.675 85.0832L174.148 84.6488C174.588 84.2444 174.678 84.1376 174.582 84.1376C174.561 84.1376 174.348 84.3506 174.109 84.6104ZM213.822 84.3032C213.822 84.3248 214.006 84.509 214.231 84.713L214.641 85.0832L214.271 84.6734C213.926 84.2918 213.822 84.206 213.822 84.3032ZM108.807 87.1424C108.948 87.3392 109.162 87.5804 109.284 87.6782C109.405 87.776 109.314 87.6152 109.08 87.3206C108.598 86.7152 108.42 86.5988 108.807 87.1424ZM227.62 88.5812L226.868 89.369L227.656 88.6166C228.089 88.2026 228.444 87.848 228.444 87.8288C228.444 87.7352 228.319 87.8492 227.62 88.5812ZM109.956 88.4864C110.191 88.7288 110.412 88.9274 110.447 88.9274C110.482 88.9274 110.317 88.7288 110.082 88.4864C109.847 88.244 109.626 88.0454 109.592 88.0454C109.557 88.0454 109.721 88.244 109.956 88.4864ZM123.437 90.1568L123.003 90.629L123.475 90.1946L123.948 89.7608V90.2672C123.948 90.7466 124.323 91.3226 124.635 91.3226C124.692 91.3226 124.589 91.205 124.406 91.0616C124.137 90.8492 124.074 90.695 124.074 90.242C124.074 89.5622 123.993 89.5514 123.437 90.1568ZM164.391 90.3026C164.367 90.6422 164.389 90.8942 164.442 90.8618C164.494 90.83 164.536 90.5732 164.536 90.2912C164.536 89.8214 164.554 89.7932 164.757 89.9522C164.957 90.1088 164.961 90.1046 164.805 89.9042C164.529 89.5532 164.437 89.6414 164.391 90.3026ZM214.316 90.2342C214.483 90.4406 214.956 90.7532 214.956 90.6572C214.956 90.6332 214.772 90.479 214.547 90.314C214.293 90.128 214.205 90.098 214.316 90.2342ZM172.918 91.5746C172.759 91.643 172.737 91.6832 172.855 91.6832C172.96 91.6832 173.158 91.634 173.297 91.5746C173.455 91.5062 173.479 91.4666 173.36 91.4666C173.256 91.4666 173.057 91.5152 172.918 91.5746ZM117.677 91.9202C118.075 91.9448 118.728 91.9448 119.127 91.9202C119.525 91.895 119.199 91.8746 118.402 91.8746C117.604 91.8746 117.279 91.895 117.677 91.9202ZM169.61 91.9202C170.008 91.9448 170.661 91.9448 171.06 91.9202C171.458 91.895 171.132 91.8746 170.335 91.8746C169.537 91.8746 169.211 91.895 169.61 91.9202ZM218.769 91.9202C219.168 91.9448 219.82 91.9448 220.219 91.9202C220.618 91.895 220.291 91.8746 219.494 91.8746C218.697 91.8746 218.371 91.895 218.769 91.9202ZM39.071 93.1136C39.0284 93.2726 38.999 93.5444 39.0056 93.7178C39.0128 93.9032 39.0626 93.803 39.1274 93.4736C39.2432 92.8832 39.2024 92.6228 39.071 93.1136ZM71.5106 93.623C71.3252 93.8762 71.2946 93.9644 71.4308 93.854C71.6372 93.686 71.9498 93.2132 71.8544 93.2132C71.8304 93.2132 71.6756 93.3974 71.5106 93.623ZM43.0598 94.0328C43.0604 94.379 43.085 94.5062 43.1138 94.3148C43.1432 94.1228 43.142 93.8396 43.1126 93.6842C43.0826 93.5294 43.0586 93.686 43.0598 94.0328ZM90.839 94.7258C90.839 95.246 90.8612 95.4584 90.8888 95.1986C90.9158 94.9388 90.9158 94.5134 90.8888 94.253C90.8612 93.9932 90.839 94.2062 90.839 94.7258ZM43.0598 95.7974C43.0604 96.1442 43.085 96.2708 43.1138 96.0794C43.1432 95.8874 43.142 95.6042 43.1126 95.4488C43.0826 95.294 43.0586 95.4506 43.0598 95.7974ZM69.6152 96.182C69.4802 96.344 69.4928 96.4136 69.6872 96.5912C69.9086 96.794 69.9122 96.7934 69.7556 96.5852C69.6224 96.4088 69.6206 96.3266 69.746 96.1754C69.8324 96.0716 69.875 95.9864 69.8402 95.9864C69.8054 95.9864 69.704 96.0746 69.6152 96.182ZM39.0026 96.4382C39.0092 96.6404 39.0632 96.9476 39.122 97.121C39.1946 97.3334 39.2054 97.2308 39.1568 96.806C39.0746 96.0968 38.9834 95.879 39.0026 96.4382ZM63.5696 97.184C63.2636 97.496 63.0416 97.751 63.0764 97.751C63.1106 97.751 63.3896 97.496 63.6956 97.184C64.0022 96.872 64.2242 96.6164 64.1894 96.6164C64.1546 96.6164 63.8762 96.872 63.5696 97.184ZM90.5618 96.953C90.5522 97.1036 90.512 97.3304 90.4718 97.457C90.4034 97.676 90.407 97.676 90.5432 97.4636C90.6224 97.3406 90.6626 97.1138 90.6332 96.9596C90.5792 96.68 90.5792 96.68 90.5618 96.953ZM71.3222 98.3816C71.8034 98.8664 72.2258 99.2636 72.2606 99.2636C72.2954 99.2636 71.9294 98.8664 71.4482 98.3816C70.9664 97.8962 70.544 97.499 70.5092 97.499C70.4744 97.499 70.8404 97.8962 71.3222 98.3816ZM61.232 99.5474L60.7334 100.083L61.2692 99.5846C61.5638 99.311 61.805 99.0698 61.805 99.0488C61.805 98.954 61.6952 99.0494 61.232 99.5474ZM67.8554 100.335C68.2322 100.716 68.5688 101.028 68.603 101.028C68.6378 101.028 68.3582 100.716 67.9814 100.335C67.6052 99.9536 67.2686 99.6416 67.2338 99.6416C67.199 99.6416 67.4792 99.9536 67.8554 100.335ZM44.7854 100.395C44.9324 100.6 45.1166 100.809 45.1952 100.857C45.2738 100.906 45.1796 100.737 44.9852 100.483C44.564 99.9302 44.405 99.86 44.7854 100.395ZM65.4608 101.091C65.1542 101.403 64.9322 101.659 64.967 101.659C65.0018 101.659 65.2802 101.403 65.5868 101.091C65.8928 100.779 66.1148 100.524 66.08 100.524C66.0458 100.524 65.7668 100.779 65.4608 101.091ZM74.1578 100.822C74.1578 100.857 74.3282 101.007 74.5364 101.154C74.744 101.302 74.9144 101.395 74.9144 101.361C74.9144 101.326 74.744 101.176 74.5364 101.028C74.3282 100.881 74.1578 100.788 74.1578 100.822ZM88.1426 101.375L87.7082 101.848L88.181 101.413C88.6214 101.009 88.712 100.902 88.6154 100.902C88.5944 100.902 88.382 101.115 88.1426 101.375ZM69.6152 102.069C70.1372 102.625 70.2506 102.725 70.2506 102.63C70.2506 102.61 69.9812 102.34 69.6518 102.031L69.053 101.47L69.6152 102.069ZM92.309 102.825C92.1236 103.078 92.093 103.166 92.2292 103.056C92.4356 102.888 92.7482 102.415 92.6528 102.415C92.6288 102.415 92.474 102.6 92.309 102.825ZM70.7546 103.087C70.7546 103.122 70.9814 103.33 71.2586 103.549C71.5364 103.769 71.7632 103.92 71.7632 103.886C71.7632 103.851 71.5364 103.643 71.2586 103.423C70.9814 103.204 70.7546 103.053 70.7546 103.087ZM79.2632 103.549C79.4018 103.609 79.6004 103.658 79.7042 103.658C79.8236 103.658 79.8002 103.618 79.6412 103.549C79.5026 103.49 79.304 103.441 79.2002 103.441C79.0808 103.441 79.1042 103.481 79.2632 103.549ZM91.1078 104.211L90.3554 104.999L91.1432 104.247C91.5764 103.833 91.931 103.479 91.931 103.459C91.931 103.366 91.8068 103.479 91.1078 104.211ZM51.2522 103.894C51.5834 103.92 52.094 103.92 52.3868 103.894C52.679 103.867 52.4078 103.846 51.7838 103.846C51.1604 103.846 50.921 103.869 51.2522 103.894ZM81.4346 103.893C81.6584 103.92 82.0556 103.921 82.3172 103.894C82.5788 103.866 82.3952 103.843 81.9104 103.843C81.425 103.842 81.2108 103.864 81.4346 103.893ZM54.62 107.583C54.371 107.663 54.3578 107.684 54.557 107.684C54.6956 107.684 54.9512 107.638 55.1246 107.583C55.3742 107.503 55.3868 107.482 55.1876 107.482C55.049 107.482 54.7934 107.527 54.62 107.583ZM51.9734 107.835L50.3978 107.91L51.9104 107.927C52.742 107.936 53.5364 107.895 53.675 107.835C53.8136 107.776 53.8418 107.734 53.738 107.743C53.6336 107.753 52.8398 107.794 51.9734 107.835ZM81.3116 107.928C81.7448 107.953 82.454 107.953 82.8872 107.928C83.3204 107.904 82.9658 107.884 82.0994 107.884C81.2324 107.884 80.8784 107.904 81.3116 107.928Z" fill="#FC979B"/>
<path fill-rule="evenodd" clip-rule="evenodd" d="M59.8466 50.1354L59.2208 50.7972L59.8826 50.1714C60.4976 49.5906 60.6026 49.4736 60.5084 49.4736C60.4886 49.4736 60.1904 49.7712 59.8466 50.1354ZM74.4734 50.4822C74.744 50.7594 74.9936 50.9862 75.0284 50.9862C75.0632 50.9862 74.87 50.7594 74.5994 50.4822C74.3282 50.205 74.0786 49.9776 74.0438 49.9776C74.009 49.9776 74.2022 50.205 74.4734 50.4822ZM66.692 50.9514C66.9182 50.9796 67.259 50.979 67.448 50.9502C67.6376 50.9214 67.4522 50.8986 67.0364 50.8992C66.62 50.8998 66.4652 50.9232 66.692 50.9514ZM65.3348 51.1182C65.1962 51.2112 65.2472 51.2232 65.5238 51.1614C65.987 51.0576 66.0878 50.9856 65.765 50.988C65.6324 50.9892 65.4386 51.0474 65.3348 51.1182ZM68.1182 51.0318C68.147 51.0564 68.3408 51.1146 68.549 51.1614C68.825 51.2232 68.876 51.2112 68.738 51.1182C68.5676 51.003 67.9916 50.9226 68.1182 51.0318ZM71.3222 52.7508C71.5928 53.028 71.8424 53.2554 71.8772 53.2554C71.912 53.2554 71.7188 53.028 71.4482 52.7508C71.177 52.4736 70.9274 52.2468 70.8926 52.2468C70.8578 52.2468 71.051 52.4736 71.3222 52.7508ZM158.67 57.9504C158.637 58.0374 158.625 65.5674 158.643 74.6838L158.676 91.2594L158.707 74.5914L158.738 57.924L161.605 57.8874L164.473 57.8508L161.602 57.822C159.399 57.7998 158.716 57.8298 158.67 57.9504ZM210.733 57.8862L213.57 57.924V64.1532C213.57 70.4304 213.594 70.7478 214.026 70.2372L214.263 69.957L213.981 70.1958L213.698 70.4352L213.666 64.1454L213.633 57.8562L210.765 57.8526L207.897 57.849L210.733 57.8862ZM134.071 58.6212L133.717 58.9458L134.127 58.6608C134.352 58.5042 134.536 58.3578 134.536 58.3362C134.536 58.2372 134.397 58.3224 134.071 58.6212ZM138.696 58.7148C138.696 58.7364 138.88 58.9206 139.105 59.1246L139.515 59.4948L139.145 59.085C138.8 58.7034 138.696 58.6176 138.696 58.7148ZM132.996 63.7818C133.068 63.921 133.259 64.1478 133.422 64.2852C133.707 64.5258 133.706 64.5216 133.404 64.1574C132.901 63.5532 132.859 63.5142 132.996 63.7818ZM139.003 64.5054L138.633 64.9146L139.042 64.5444C139.268 64.341 139.452 64.1568 139.452 64.1352C139.452 64.0374 139.348 64.1232 139.003 64.5054ZM118.055 68.0898C118.176 68.1216 118.375 68.1216 118.496 68.0898C118.618 68.058 118.518 68.0322 118.276 68.0322C118.033 68.0322 117.934 68.058 118.055 68.0898ZM153.603 68.0934C153.795 68.1222 154.078 68.1216 154.233 68.0916C154.389 68.0616 154.231 68.0382 153.885 68.0388C153.538 68.04 153.411 68.0646 153.603 68.0934ZM195.514 68.0922C195.672 68.1222 195.898 68.121 196.019 68.0898C196.139 68.058 196.011 68.0334 195.733 68.0346C195.456 68.0364 195.358 68.0622 195.514 68.0922ZM115.566 68.3814C115.407 68.4492 115.383 68.4894 115.503 68.4894C115.606 68.4894 115.805 68.4408 115.944 68.3814C116.103 68.313 116.126 68.2728 116.007 68.2728C115.903 68.2728 115.704 68.3214 115.566 68.3814ZM169.231 68.3418C169.353 68.3736 169.551 68.3736 169.673 68.3418C169.794 68.3106 169.695 68.2842 169.452 68.2842C169.21 68.2842 169.11 68.3106 169.231 68.3418ZM170.471 68.301C170.5 68.3262 170.92 68.3778 171.406 68.4156C171.941 68.457 172.14 68.445 171.91 68.3844C171.527 68.2836 170.374 68.217 170.471 68.301ZM193.213 68.3814C193.054 68.4492 193.03 68.4894 193.15 68.4894C193.254 68.4894 193.452 68.4408 193.591 68.3814C193.75 68.313 193.773 68.2728 193.654 68.2728C193.55 68.2728 193.351 68.3214 193.213 68.3814ZM217.918 68.3874C217.67 68.4552 217.8 68.466 218.297 68.4198C218.713 68.3814 219.076 68.3286 219.106 68.3022C219.199 68.2182 218.307 68.2818 217.918 68.3874ZM219.967 68.3442C220.123 68.3742 220.378 68.3742 220.534 68.3442C220.69 68.3142 220.563 68.2896 220.251 68.2896C219.939 68.2896 219.811 68.3142 219.967 68.3442ZM124.66 68.7276C124.629 68.7798 125.759 68.8062 127.173 68.7858L129.745 68.7492L129.778 80.0046L129.811 91.2594L129.841 79.9464L129.873 68.6334H127.296C125.878 68.6334 124.693 68.676 124.66 68.7276ZM133.46 68.7906C133.427 68.8776 133.414 73.9686 133.433 80.1036L133.466 91.2594L133.497 80.0118L133.528 68.7642L136.395 68.7276L139.263 68.6916L136.392 68.6622C134.188 68.64 133.506 68.67 133.46 68.7906ZM142.662 68.7906C142.629 68.8776 142.617 73.9686 142.635 80.1036L142.668 91.2594L142.699 80.0022L142.729 68.745L145.365 68.784C146.815 68.805 147.935 68.7804 147.855 68.73C147.584 68.5578 142.728 68.6154 142.662 68.7906ZM184.258 68.7906C184.225 68.8776 184.213 73.9686 184.231 80.1036L184.264 91.2594L184.295 80.004L184.326 68.7492L186.772 68.7858C188.118 68.8056 189.192 68.7798 189.16 68.7276C189.052 68.5536 184.326 68.6148 184.258 68.7906ZM223.276 68.9274C223.276 68.9604 223.459 69.0504 223.683 69.1284C223.906 69.2064 224.034 69.2184 223.966 69.1548C223.822 69.021 223.276 68.8404 223.276 68.9274ZM65.9348 69.3528C66.0914 69.3828 66.3182 69.3816 66.4388 69.3504C66.5594 69.3186 66.431 69.294 66.1538 69.2952C65.8766 69.297 65.7782 69.3228 65.9348 69.3528ZM67.5734 69.3528C67.73 69.3828 67.9568 69.3816 68.0774 69.3504C68.198 69.3186 68.0696 69.294 67.7924 69.2952C67.5152 69.297 67.4168 69.3228 67.5734 69.3528ZM123.534 70.0224C123.757 70.2564 123.961 70.4226 123.987 70.3914C124.014 70.3602 123.831 70.1688 123.582 69.966L123.129 69.597L123.534 70.0224ZM148.846 70.017C148.722 70.1538 148.571 70.2354 148.511 70.1988C148.451 70.1616 148.402 70.191 148.402 70.2648C148.402 70.4682 148.519 70.4274 148.929 70.083C149.135 69.9096 149.251 69.768 149.187 69.768C149.124 69.768 148.969 69.8796 148.846 70.017ZM110.142 71.4378L109.389 72.2256L110.177 71.4732C110.61 71.0598 110.965 70.7052 110.965 70.6854C110.965 70.5924 110.841 70.7058 110.142 71.4378ZM72.6452 70.9368C72.6452 70.9614 72.83 71.1156 73.055 71.2806C73.3088 71.4666 73.3964 71.4966 73.286 71.3604C73.118 71.154 72.6452 70.8414 72.6452 70.9368ZM227.556 71.5638C228.078 72.1206 228.192 72.2208 228.192 72.126C228.192 72.1056 227.922 71.8362 227.593 71.5272L226.994 70.965L227.556 71.5638ZM203.106 71.4702C203.608 72.075 203.65 72.114 203.513 71.8464C203.442 71.7066 203.25 71.4804 203.088 71.343C202.803 71.1018 202.804 71.1066 203.106 71.4702ZM73.5278 71.5716C73.5278 71.5938 73.712 71.778 73.9376 71.9814L74.3474 72.3516L73.9772 71.9424C73.6316 71.5602 73.5278 71.4744 73.5278 71.5716ZM74.7992 72.9192C75.3038 73.6134 75.4928 73.821 75.317 73.4862C75.2438 73.3476 75.005 73.0356 74.7854 72.7932L74.3876 72.3516L74.7992 72.9192ZM153.157 73.2618C153.381 73.29 153.778 73.2906 154.039 73.263C154.301 73.236 154.118 73.2132 153.633 73.2126C153.148 73.212 152.934 73.2342 153.157 73.2618ZM194.316 73.263C194.575 73.29 195.001 73.29 195.261 73.263C195.521 73.236 195.308 73.2132 194.788 73.2132C194.268 73.2132 194.056 73.236 194.316 73.263ZM120.229 73.5492C120.368 73.6086 120.567 73.6578 120.67 73.6578C120.79 73.6578 120.766 73.6176 120.607 73.5492C120.469 73.4898 120.27 73.4412 120.166 73.4412C120.047 73.4412 120.07 73.4808 120.229 73.5492ZM219.683 73.5492C220.216 73.6848 220.674 73.6848 220.251 73.5492C220.077 73.494 219.793 73.4496 219.62 73.4508C219.337 73.4526 219.343 73.4628 219.683 73.5492ZM70.6916 73.7598C71.2796 74.3454 72.1508 75.0588 71.7632 74.6376C71.5202 74.3736 71.1518 74.04 70.9436 73.896C70.736 73.752 70.6226 73.6908 70.6916 73.7598ZM197.46 73.9332C197.577 74.0016 197.846 74.268 198.058 74.5254C198.27 74.7828 198.444 74.952 198.444 74.9016C198.444 74.7426 197.538 73.8012 197.389 73.8054C197.311 73.8072 197.342 73.8648 197.46 73.9332ZM190.924 74.5368C190.588 74.8026 190.228 75.1284 190.125 75.2616C190.02 75.3942 190.162 75.3042 190.44 75.0618C190.717 74.8188 191.114 74.4948 191.322 74.3406C191.53 74.187 191.662 74.0598 191.617 74.0574C191.571 74.055 191.259 74.271 190.924 74.5368ZM114.116 75.3768C113.81 75.6888 113.588 75.9444 113.622 75.9444C113.657 75.9444 113.936 75.6888 114.242 75.3768C114.548 75.0648 114.771 74.8098 114.736 74.8098C114.701 74.8098 114.422 75.0648 114.116 75.3768ZM214.035 75.2898L213.567 75.7692L213.601 79.9848L213.636 84.2004L213.666 79.983L213.696 75.7656L214.162 75.288C214.419 75.0246 214.601 74.8098 214.566 74.8098C214.531 74.8098 214.293 75.0258 214.035 75.2898ZM223.15 74.9754C223.15 74.997 223.334 75.1812 223.56 75.3852L223.969 75.7554L223.599 75.3456C223.254 74.9634 223.15 74.8776 223.15 74.9754ZM204.649 75.8184C204.649 76.0608 204.675 76.1598 204.707 76.0386C204.739 75.9174 204.739 75.7188 204.707 75.5976C204.675 75.4764 204.649 75.5754 204.649 75.8184ZM204.805 83.7594C204.805 87.8844 204.822 89.5716 204.841 87.5094C204.86 85.4466 204.86 82.0716 204.841 80.0094C204.822 77.9466 204.805 79.6344 204.805 83.7594ZM181.582 77.835C181.582 78.0774 181.608 78.177 181.64 78.0558C181.672 77.934 181.672 77.736 181.64 77.6142C181.608 77.493 181.582 77.5926 181.582 77.835ZM76.9604 78.213C76.9604 78.456 76.9862 78.555 77.018 78.4338C77.0498 78.3126 77.0498 78.114 77.018 77.9928C76.9862 77.871 76.9604 77.9706 76.9604 78.213ZM73.448 79.2846C73.448 79.9776 73.469 80.2452 73.4948 79.8792C73.5206 79.5126 73.52 78.9456 73.4942 78.6186C73.4684 78.2916 73.4474 78.591 73.448 79.2846ZM225.196 78.9696C225.196 79.212 225.222 79.3116 225.253 79.1898C225.285 79.0686 225.285 78.87 225.253 78.7488C225.222 78.6276 225.196 78.7266 225.196 78.9696ZM56.8022 79.5366C56.8028 79.9524 56.8262 80.1078 56.8544 79.881C56.8826 79.6542 56.882 79.314 56.8532 79.125C56.8244 78.9354 56.8016 79.1208 56.8022 79.5366ZM176.051 79.8516C176.051 80.4408 176.073 80.682 176.099 80.3874C176.125 80.0928 176.125 79.611 176.099 79.3158C176.073 79.0212 176.051 79.2624 176.051 79.8516ZM112.393 80.0406C112.393 80.526 112.416 80.709 112.443 80.4474C112.471 80.1864 112.47 79.7892 112.442 79.5654C112.414 79.3416 112.392 79.5558 112.393 80.0406ZM231.005 79.9776C231.005 80.4282 231.028 80.613 231.056 80.3874C231.084 80.1624 231.084 79.7934 231.056 79.5684C231.028 79.3428 231.005 79.527 231.005 79.9776ZM60.446 80.3562C60.4448 80.529 60.4892 80.8128 60.5444 80.9862C60.68 81.4098 60.68 80.952 60.5444 80.4192C60.458 80.0796 60.4484 80.073 60.446 80.3562ZM76.9628 80.7972C76.9646 81.0744 76.9904 81.1728 77.0204 81.0162C77.0504 80.8596 77.0492 80.6328 77.018 80.5122C76.9862 80.3916 76.9616 80.52 76.9628 80.7972ZM225.185 80.6712C225.173 80.8788 225.134 81.1908 225.098 81.3642L225.033 81.6798L225.169 81.369C225.243 81.198 225.282 80.886 225.256 80.6754L225.207 80.2932L225.185 80.6712ZM106.834 81.9948C106.834 82.2372 106.86 82.3368 106.892 82.215C106.924 82.0938 106.924 81.8952 106.892 81.774C106.86 81.6528 106.834 81.7518 106.834 81.9948ZM181.582 82.1208C181.582 82.3632 181.608 82.4628 181.64 82.341C181.672 82.2198 181.672 82.0212 181.64 81.9C181.608 81.7788 181.582 81.8778 181.582 82.1208ZM57.0242 82.131C57.029 82.299 57.0842 82.5492 57.1472 82.6878C57.227 82.8636 57.2378 82.7874 57.1844 82.4358C57.0956 81.8508 57.011 81.6906 57.0242 82.131ZM113.99 84.4524C114.225 84.6954 114.446 84.894 114.481 84.894C114.515 84.894 114.351 84.6954 114.116 84.4524C113.881 84.21 113.66 84.0114 113.625 84.0114C113.591 84.0114 113.755 84.21 113.99 84.4524ZM164.41 84.09C164.41 84.1566 164.68 84.4638 165.009 84.7728L165.607 85.335L165.04 84.7068C164.728 84.3618 164.459 84.0546 164.442 84.024C164.424 83.994 164.41 84.024 164.41 84.09ZM223.334 84.6732L222.708 85.335L223.37 84.7092C223.734 84.3654 224.032 84.0678 224.032 84.0474C224.032 83.9538 223.915 84.0582 223.334 84.6732ZM123.444 84.705C123.138 85.0164 122.916 85.272 122.95 85.272C122.985 85.272 123.264 85.0164 123.57 84.705C123.876 84.393 124.098 84.1374 124.063 84.1374C124.029 84.1374 123.75 84.393 123.444 84.705ZM229.977 84.8364C229.765 85.2996 229.806 85.3986 230.034 84.9774C230.141 84.7806 230.205 84.5958 230.176 84.567C230.147 84.5382 230.058 84.6594 229.977 84.8364ZM173.36 85.2834C173.151 85.4544 173.129 85.497 173.297 85.4106C173.708 85.1982 173.936 85.0236 173.801 85.0248C173.731 85.0248 173.533 85.1412 173.36 85.2834ZM166.805 85.9746C166.805 86.0598 167.46 86.298 167.522 86.2356C167.551 86.2068 167.401 86.1234 167.19 86.0496C166.978 85.9758 166.805 85.9422 166.805 85.9746ZM168.108 86.4354C168.189 86.487 168.765 86.5218 169.389 86.5134C170.685 86.496 170.501 86.4342 168.991 86.3796C168.425 86.3592 168.028 86.3844 168.108 86.4354ZM218.612 86.4066L217.414 86.484L218.549 86.4996C219.173 86.508 219.797 86.466 219.936 86.4066C220.074 86.3466 220.102 86.3052 219.999 86.3136C219.894 86.322 219.27 86.3634 218.612 86.4066ZM118.563 86.499C118.894 86.5254 119.405 86.5248 119.698 86.4984C119.99 86.472 119.719 86.451 119.095 86.451C118.471 86.4516 118.232 86.4732 118.563 86.499ZM45.1598 87.369C45.0902 87.552 45.0566 87.7254 45.0854 87.7536C45.1142 87.7824 45.1976 87.633 45.2714 87.4212C45.4352 86.9508 45.3362 86.9052 45.1598 87.369ZM110.019 88.4232C110.29 88.7004 110.54 88.9272 110.575 88.9272C110.61 88.9272 110.416 88.7004 110.145 88.4232C109.875 88.146 109.625 87.9192 109.59 87.9192C109.555 87.9192 109.749 88.146 110.019 88.4232ZM178.269 88.644L177.835 89.1162L178.307 88.6818C178.747 88.278 178.838 88.1712 178.741 88.1712C178.72 88.1712 178.508 88.3836 178.269 88.644ZM227.238 88.833L226.868 89.2428L227.278 88.8726C227.659 88.527 227.745 88.4232 227.648 88.4232C227.626 88.4232 227.442 88.6074 227.238 88.833ZM93.9692 89.8164C94.043 90.0276 94.1264 90.1776 94.1552 90.1488C94.2176 90.0864 93.98 89.4318 93.8948 89.4318C93.8618 89.4318 93.8954 89.6046 93.9692 89.8164ZM213.62 89.6088C213.583 89.706 213.576 89.9754 213.604 90.2076C213.65 90.5826 213.658 90.5688 213.676 90.0858C213.69 89.7108 213.741 89.5704 213.841 89.6328C213.931 89.6886 213.952 89.667 213.897 89.577C213.778 89.385 213.703 89.3934 213.62 89.6088ZM123.437 90.0306L123.003 90.5028L123.505 90.0618C123.782 89.8194 124.032 89.6064 124.062 89.589C124.092 89.5716 124.061 89.5578 123.994 89.5578C123.927 89.5578 123.676 89.7702 123.437 90.0306ZM68.612 90.8184C68.4638 91.026 68.3708 91.1964 68.4056 91.1964C68.4404 91.1964 68.5898 91.026 68.738 90.8184C68.8862 90.6102 68.9786 90.4398 68.9444 90.4398C68.9096 90.4398 68.7602 90.6102 68.612 90.8184ZM90.4364 91.4484C90.4364 91.5522 90.485 91.7508 90.5444 91.8894C90.6128 92.0484 90.653 92.0718 90.653 91.9524C90.653 91.8486 90.6044 91.65 90.5444 91.5114C90.4766 91.3524 90.4364 91.329 90.4364 91.4484ZM116.164 91.6614C116.286 91.6932 116.484 91.6932 116.605 91.6614C116.727 91.6296 116.628 91.6038 116.385 91.6038C116.142 91.6038 116.043 91.6296 116.164 91.6614ZM221.29 91.6614C221.412 91.6932 221.61 91.6932 221.731 91.6614C221.853 91.6296 221.754 91.6038 221.511 91.6038C221.268 91.6038 221.169 91.6296 221.29 91.6614ZM39.3206 92.2206C39.2156 92.7456 39.3176 92.8476 39.431 92.331C39.479 92.1126 39.4916 91.9086 39.4598 91.8762C39.4274 91.8438 39.365 91.9992 39.3206 92.2206ZM90.8258 93.213C90.8258 93.456 90.8516 93.555 90.8834 93.4338C90.9152 93.3126 90.9152 93.114 90.8834 92.9928C90.8516 92.871 90.8258 92.9706 90.8258 93.213ZM62.1836 93.2868C62.1842 93.3504 62.3306 93.5724 62.5094 93.7806L62.8346 94.1586L62.5496 93.7176C62.1842 93.1512 62.183 93.15 62.1836 93.2868ZM42.932 94.3476C42.932 94.6596 42.9566 94.7874 42.9866 94.6314C43.0166 94.4754 43.0166 94.2198 42.9866 94.0638C42.9566 93.9078 42.932 94.0356 42.932 94.3476ZM94.9988 94.7256C94.9988 95.2458 95.021 95.4582 95.048 95.1984C95.0756 94.9386 95.0756 94.5132 95.048 94.2528C95.021 93.993 94.9988 94.206 94.9988 94.7256ZM90.9632 94.7256C90.9632 95.1762 90.986 95.361 91.0142 95.1354C91.0418 94.9098 91.0418 94.5414 91.0142 94.3158C90.986 94.0908 90.9632 94.275 90.9632 94.7256ZM39.0278 94.9776C39.0278 95.3592 39.0512 95.5152 39.08 95.3244C39.1094 95.1336 39.1094 94.8216 39.08 94.6314C39.0512 94.4406 39.0278 94.5966 39.0278 94.9776ZM63.4424 95.1024C63.6614 95.3784 63.9062 95.6454 63.9866 95.6952C64.067 95.745 63.914 95.5188 63.647 95.1924C63.38 94.8666 63.1352 94.5996 63.1028 94.5996C63.071 94.5996 63.2234 94.8258 63.4424 95.1024ZM69.488 96.183C69.3488 96.3504 69.398 96.4488 69.8168 96.8448L70.3088 97.3098L69.8816 96.8424C69.5228 96.4488 69.4802 96.3438 69.6158 96.1806C69.7046 96.0738 69.749 95.9862 69.7142 95.9862C69.6794 95.9862 69.5774 96.075 69.488 96.183ZM63.815 97.089L63.3806 97.5618L63.8534 97.1274C64.2932 96.723 64.3838 96.6162 64.2878 96.6162C64.2668 96.6162 64.0538 96.8292 63.815 97.089ZM39.26 97.3728C39.26 97.4766 39.3086 97.6752 39.368 97.8138C39.4364 97.9728 39.4766 97.9962 39.4766 97.8768C39.4766 97.773 39.428 97.5744 39.368 97.4358C39.2996 97.2768 39.26 97.2534 39.26 97.3728ZM71.2586 98.4444C71.8454 99.0336 72.353 99.5154 72.3878 99.5154C72.4226 99.5154 71.9714 99.0336 71.3852 98.4444C70.799 97.8552 70.2908 97.3728 70.256 97.3728C70.2212 97.3728 70.6724 97.8552 71.2586 98.4444ZM61.1678 99.7362L60.7334 100.209L61.2062 99.7746C61.6466 99.3702 61.7372 99.2634 61.6406 99.2634C61.6196 99.2634 61.4072 99.4764 61.1678 99.7362ZM66.7052 99.5988C66.5468 99.7902 66.5558 99.7932 66.8144 99.6324C67.0826 99.4656 67.1552 99.5124 68.201 100.526L69.305 101.596L68.2364 100.493C67.115 99.3354 66.9854 99.2598 66.7052 99.5988ZM72.5192 99.555C72.5192 99.5766 72.704 99.7614 72.929 99.9648L73.3388 100.335L72.9686 99.9252C72.6236 99.5436 72.5192 99.4578 72.5192 99.555ZM44.9252 100.728C45.0926 100.944 45.2546 101.098 45.2858 101.071C45.317 101.043 45.1796 100.867 44.9816 100.678L44.621 100.335L44.9252 100.728ZM69.8096 102.163C70.0802 102.44 70.3298 102.667 70.3646 102.667C70.3994 102.667 70.2062 102.44 69.9356 102.163C69.6644 101.885 69.4148 101.659 69.38 101.659C69.3452 101.659 69.5384 101.885 69.8096 102.163ZM63.7532 102.572L63.2546 103.108L63.7904 102.61C64.2884 102.146 64.3838 102.037 64.2884 102.037C64.268 102.037 64.0268 102.278 63.7532 102.572ZM55.0298 103.438C54.8048 103.503 54.62 103.584 54.62 103.618C54.62 103.71 55.2938 103.535 55.433 103.407C55.5704 103.281 55.5752 103.281 55.0298 103.438ZM91.049 104.116C90.7424 104.428 90.5204 104.684 90.5552 104.684C90.59 104.684 90.8684 104.428 91.175 104.116C91.481 103.805 91.703 103.549 91.6688 103.549C91.634 103.549 91.355 103.805 91.049 104.116ZM79.8932 103.795C80.1356 103.905 80.8106 103.976 80.702 103.881C80.6732 103.856 80.423 103.8 80.1452 103.758C79.7942 103.705 79.7174 103.716 79.8932 103.795ZM83.486 103.801C83.2322 103.882 83.2202 103.903 83.423 103.906C83.5616 103.908 83.7884 103.861 83.927 103.801C84.248 103.663 83.9168 103.663 83.486 103.801ZM51.44 104.019C51.6662 104.047 52.0064 104.046 52.196 104.017C52.3856 103.989 52.2002 103.966 51.7838 103.966C51.368 103.967 51.2132 103.991 51.44 104.019ZM81.6896 104.017C81.8456 104.047 82.1006 104.047 82.2566 104.017C82.4126 103.987 82.2854 103.962 81.9734 103.962C81.6614 103.962 81.5336 103.987 81.6896 104.017ZM49.61 107.67C49.7312 107.701 49.9298 107.701 50.051 107.67C50.1722 107.638 50.0732 107.612 49.8302 107.612C49.5878 107.612 49.4882 107.638 49.61 107.67ZM84.0212 107.67C84.143 107.701 84.3416 107.701 84.4628 107.67C84.584 107.638 84.485 107.612 84.242 107.612C83.9996 107.612 83.9 107.638 84.0212 107.67Z" fill="#FCB4B4"/>
<path fill-rule="evenodd" clip-rule="evenodd" d="M207.834 74.621L207.835 91.2596L210.387 91.2638L212.94 91.2674L210.419 91.2296L207.898 91.1912L207.866 74.5868L207.833 57.9824L207.834 74.621ZM139.231 79.9442L139.2 91.1918L136.332 91.2284L133.465 91.2644L136.336 91.2938C138.54 91.316 139.222 91.286 139.268 91.1648C139.301 91.0784 139.313 85.9874 139.295 79.8518L139.262 68.6966L139.231 79.9442ZM148.432 83.2844L148.402 91.1918L145.534 91.2284L142.666 91.2644L145.538 91.2938C147.741 91.316 148.423 91.286 148.47 91.1648C148.503 91.0784 148.515 87.4904 148.497 83.1926L148.463 75.377L148.432 83.2844ZM190.029 83.2844L189.999 91.1918L187.131 91.2284L184.263 91.2644L187.135 91.2938C189.337 91.316 190.02 91.286 190.066 91.1648C190.099 91.0784 190.111 87.4904 190.093 83.1926L190.059 75.377L190.029 83.2844ZM225.201 79.8518C225.201 80.1638 225.225 80.2916 225.255 80.1356C225.285 79.9796 225.285 79.7246 225.255 79.5686C225.225 79.4126 225.201 79.5398 225.201 79.8518ZM125.933 91.2908C126.644 91.313 127.807 91.313 128.517 91.2908C129.228 91.268 128.646 91.2494 127.225 91.2494C125.804 91.2494 125.223 91.268 125.933 91.2908ZM159.973 91.2908C160.688 91.313 161.823 91.313 162.495 91.2902C163.167 91.268 162.582 91.2494 161.196 91.2494C159.81 91.2494 159.259 91.268 159.973 91.2908ZM200.499 91.2908C201.318 91.3124 202.623 91.3124 203.398 91.2908C204.174 91.2686 203.505 91.2506 201.91 91.2506C200.316 91.2506 199.681 91.2686 200.499 91.2908Z" fill="#FCA8AC"/>
</svg>
