<svg width="8" height="4" viewBox="0 0 8 4" fill="none" xmlns="http://www.w3.org/2000/svg">
<path d="M3.67063 3.8848C3.70733 3.92033 3.75644 3.94938 3.81372 3.96945C3.871 3.98951 3.93475 4 3.99946 4C4.06417 4 4.12791 3.98951 4.1852 3.96945C4.24248 3.94938 4.29158 3.92033 4.32828 3.8848L7.92857 0.418371C7.97024 0.378389 7.99468 0.331559 7.99922 0.282969C8.00377 0.234379 7.98826 0.185887 7.95436 0.142762C7.92047 0.0996371 7.86949 0.0635286 7.80697 0.0383596C7.74445 0.0131906 7.67278 -7.63531e-05 7.59974 3.30552e-07H0.399176C0.326308 0.000200959 0.2549 0.0136385 0.192632 0.0388678C0.130364 0.064097 0.079592 0.100164 0.0457757 0.143189C0.0119594 0.186214 -0.00362155 0.23457 0.000708374 0.283056C0.0050383 0.331542 0.0291153 0.378324 0.0703501 0.418371L3.67063 3.8848Z" fill="white"/>
</svg>
