<svg width="17" height="15" viewBox="0 0 17 15" fill="none" xmlns="http://www.w3.org/2000/svg">
<g clip-path="url(#clip0)">
<path d="M5.28799 7.46878C6.37484 7.46878 7.25915 6.48814 7.25915 5.28289C7.25915 4.07765 6.37484 3.09701 5.28799 3.09701C4.20113 3.09701 3.31682 4.07765 3.31682 5.28289C3.31682 6.48814 4.20113 7.46878 5.28799 7.46878ZM13.9611 3.97136H8.44186C8.22404 3.97136 8.04762 4.167 8.04762 4.40854V8.34313H2.52835V2.65983C2.52835 2.41829 2.35193 2.22266 2.13412 2.22266H1.34565C1.12784 2.22266 0.951416 2.41829 0.951416 2.65983V12.2777C0.951416 12.5193 1.12784 12.7149 1.34565 12.7149H2.13412C2.35193 12.7149 2.52835 12.5193 2.52835 12.2777V10.9662H15.1438V12.2777C15.1438 12.5193 15.3202 12.7149 15.5381 12.7149H16.3265C16.5443 12.7149 16.7208 12.5193 16.7208 12.2777V7.0316C16.7208 5.34137 15.4853 3.97136 13.9611 3.97136Z" fill="#F7941D"/>
</g>
<defs>
<clipPath id="clip0">
<rect x="0.951416" y="0.474121" width="15.7693" height="13.9897" rx="2" fill="white"/>
</clipPath>
</defs>
</svg>
