<svg width="23" height="23" viewBox="0 0 23 23" fill="none" xmlns="http://www.w3.org/2000/svg">
<path d="M3.16251 4.02485C3.16251 3.7961 3.25338 3.57672 3.41513 3.41497C3.57688 3.25322 3.79626 3.16235 4.02501 3.16235H18.975C19.2038 3.16235 19.4231 3.25322 19.5849 3.41497C19.7466 3.57672 19.8375 3.7961 19.8375 4.02485C19.8375 4.2536 19.7466 4.47298 19.5849 4.63473C19.4231 4.79648 19.2038 4.88735 18.975 4.88735H4.02501C3.79626 4.88735 3.57688 4.79648 3.41513 4.63473C3.25338 4.47298 3.16251 4.2536 3.16251 4.02485V4.02485Z" fill="#F7941D"/>
<path d="M3.16251 17.8249C3.16251 17.5962 3.25338 17.3768 3.41513 17.215C3.57688 17.0533 3.79626 16.9624 4.02501 16.9624H18.975C19.2038 16.9624 19.4231 17.0533 19.5849 17.215C19.7466 17.3768 19.8375 17.5962 19.8375 17.8249C19.8375 18.0537 19.7466 18.273 19.5849 18.4348C19.4231 18.5965 19.2038 18.6874 18.975 18.6874H4.02501C3.79626 18.6874 3.57688 18.5965 3.41513 18.4348C3.25338 18.273 3.16251 18.0537 3.16251 17.8249V17.8249Z" fill="#F7941D"/>
<path d="M8.9125 9.7749C8.9125 9.08865 9.18511 8.43051 9.67036 7.94526C10.1556 7.46001 10.8138 7.1874 11.5 7.1874C12.1862 7.1874 12.8444 7.46001 13.3296 7.94526C13.8149 8.43051 14.0875 9.08865 14.0875 9.7749V15.5249C14.0875 15.7537 14.1784 15.973 14.3401 16.1348C14.5019 16.2965 14.7213 16.3874 14.95 16.3874C15.1787 16.3874 15.3981 16.2965 15.5599 16.1348C15.7216 15.973 15.8125 15.7537 15.8125 15.5249V9.7749C15.8125 9.20858 15.701 8.6478 15.4842 8.12458C15.2675 7.60136 14.9499 7.12596 14.5494 6.7255C14.1489 6.32505 13.6735 6.0074 13.1503 5.79067C12.6271 5.57395 12.0663 5.4624 11.5 5.4624C10.9337 5.4624 10.3729 5.57395 9.84968 5.79067C9.32646 6.0074 8.85105 6.32505 8.4506 6.7255C8.05015 7.12596 7.73249 7.60136 7.51577 8.12458C7.29905 8.6478 7.1875 9.20858 7.1875 9.7749V15.5249C7.1875 15.7537 7.27837 15.973 7.44012 16.1348C7.60187 16.2965 7.82125 16.3874 8.05 16.3874C8.27875 16.3874 8.49813 16.2965 8.65988 16.1348C8.82163 15.973 8.9125 15.7537 8.9125 15.5249V9.7749Z" fill="#F7941D"/>
</svg>
