<svg width="52" height="40" viewBox="0 0 52 40" fill="none" xmlns="http://www.w3.org/2000/svg">
<path d="M50.7801 11.875H44.6996L43.0096 7.65C41.2728 3.30617 37.1281 0.5 32.4491 0.5H19.5507C14.8727 0.5 10.7269 3.30617 8.98917 7.65L7.29917 11.875H1.21964C0.426437 11.875 -0.155516 12.6205 0.0374529 13.3893L0.646828 15.8268C0.781906 16.3691 1.26941 16.75 1.82902 16.75H3.86738C2.50339 17.9413 1.62487 19.673 1.62487 21.625V26.5C1.62487 28.1372 2.2505 29.6149 3.24987 30.7585V36.25C3.24987 38.0446 4.70527 39.5 6.49988 39.5H9.74987C11.5445 39.5 12.9999 38.0446 12.9999 36.25V33H38.9999V36.25C38.9999 38.0446 40.4553 39.5 42.2499 39.5H45.4999C47.2945 39.5 48.7499 38.0446 48.7499 36.25V30.7585C49.7492 29.6159 50.3749 28.1382 50.3749 26.5V21.625C50.3749 19.673 49.4964 17.9413 48.1334 16.75H50.1717C50.7314 16.75 51.2189 16.3691 51.3539 15.8268L51.9633 13.3893C52.1553 12.6205 51.5733 11.875 50.7801 11.875ZM15.024 10.0641C15.7644 8.21367 17.557 7 19.5507 7H32.4491C34.4428 7 36.2353 8.21367 36.9757 10.0641L38.9999 15.125H12.9999L15.024 10.0641ZM9.74987 26.4797C7.79987 26.4797 6.49988 25.1838 6.49988 23.2398C6.49988 21.2959 7.79987 20 9.74987 20C11.6999 20 14.6249 22.9159 14.6249 24.8598C14.6249 26.8037 11.6999 26.4797 9.74987 26.4797ZM42.2499 26.4797C40.2999 26.4797 37.3749 26.8037 37.3749 24.8598C37.3749 22.9159 40.2999 20 42.2499 20C44.1999 20 45.4999 21.2959 45.4999 23.2398C45.4999 25.1838 44.1999 26.4797 42.2499 26.4797Z" fill="#F7941D"/>
</svg>
