<svg width="19" height="19" viewBox="0 0 19 19" fill="none" xmlns="http://www.w3.org/2000/svg">
<path d="M9.5 0.296875C4.41602 0.296875 0.296875 4.41602 0.296875 9.5C0.296875 14.584 4.41602 18.7031 9.5 18.7031C14.584 18.7031 18.7031 14.584 18.7031 9.5C18.7031 4.41602 14.584 0.296875 9.5 0.296875ZM9.5 16.9219C5.39941 16.9219 2.07812 13.6006 2.07812 9.5C2.07812 5.39941 5.39941 2.07812 9.5 2.07812C13.6006 2.07812 16.9219 5.39941 16.9219 9.5C16.9219 13.6006 13.6006 16.9219 9.5 16.9219ZM11.7934 13.0477L8.64277 10.758C8.52773 10.6727 8.46094 10.5391 8.46094 10.398V4.30469C8.46094 4.05977 8.66133 3.85938 8.90625 3.85938H10.0938C10.3387 3.85938 10.5391 4.05977 10.5391 4.30469V9.56309L13.018 11.3666C13.2184 11.5113 13.2592 11.7896 13.1145 11.99L12.4168 12.9512C12.2721 13.1479 11.9937 13.1924 11.7934 13.0477Z" fill="#F7941D"/>
</svg>
