<svg width="15" height="18" viewBox="0 0 15 18" fill="none" xmlns="http://www.w3.org/2000/svg">
<path d="M6.82601 1.91524L12.0619 3.36602C12.1278 3.38245 12.1871 3.42684 12.2297 3.49163C12.2724 3.55643 12.2957 3.63765 12.2957 3.72146V14.6023C12.2957 14.6861 12.2724 14.7674 12.2297 14.8322C12.1871 14.897 12.1278 14.9413 12.0619 14.9578L6.82601 16.4086C6.78382 16.4191 6.74029 16.4178 6.69856 16.4048C6.65682 16.3918 6.61791 16.3674 6.58464 16.3334C6.55136 16.2994 6.52455 16.2567 6.50613 16.2082C6.48771 16.1597 6.47814 16.1068 6.47811 16.0531V2.27068C6.47814 2.21704 6.48771 2.16408 6.50613 2.1156C6.52455 2.06713 6.55136 2.02435 6.58464 1.99036C6.61791 1.95636 6.65682 1.93199 6.69856 1.919C6.74029 1.90601 6.78382 1.90472 6.82601 1.91524ZM5.89635 3.35877V14.965H3.42387C3.31843 14.965 3.21656 14.9174 3.1371 14.831C3.05764 14.7446 3.00596 14.6252 2.99162 14.495L2.98755 14.421V3.90281C2.98755 3.77134 3.02574 3.64432 3.09504 3.54524C3.16434 3.44616 3.26007 3.38172 3.36453 3.36384L3.42387 3.35877H5.89635ZM8.2234 8.4365C8.06911 8.4365 7.92113 8.51293 7.81203 8.64897C7.70293 8.785 7.64164 8.96951 7.64164 9.1619C7.64164 9.35428 7.70293 9.53879 7.81203 9.67482C7.92113 9.81086 8.06911 9.88729 8.2234 9.88729C8.37769 9.88729 8.52566 9.81086 8.63476 9.67482C8.74387 9.53879 8.80516 9.35428 8.80516 9.1619C8.80516 8.96951 8.74387 8.785 8.63476 8.64897C8.52566 8.51293 8.37769 8.4365 8.2234 8.4365Z" fill="#F7941D"/>
</svg>
