<svg width="18" height="18" viewBox="0 0 18 18" fill="none" xmlns="http://www.w3.org/2000/svg">
<path d="M14.25 0.75C14.4489 0.75 14.6397 0.829018 14.7803 0.96967C14.921 1.11032 15 1.30109 15 1.5V16.5C15 16.6989 14.921 16.8897 14.7803 17.0303C14.6397 17.171 14.4489 17.25 14.25 17.25H3.75C3.55109 17.25 3.36032 17.171 3.21967 17.0303C3.07902 16.8897 3 16.6989 3 16.5V1.5C3 1.30109 3.07902 1.11032 3.21967 0.96967C3.36032 0.829018 3.55109 0.75 3.75 0.75H14.25ZM13.5 9H4.5V15.75H13.5V9ZM7.5 10.5V13.5H6V10.5H7.5ZM13.5 2.25H4.5V7.5H13.5V2.25ZM7.5 3.75V6H6V3.75H7.5Z" fill="#F7941D"/>
</svg>
