<svg width="47" height="52" viewBox="0 0 47 52" fill="none" xmlns="http://www.w3.org/2000/svg">
<path d="M43.24 24.3487L26.1111 16.7602V13.0179C26.1111 11.5885 24.9361 10.4191 23.5 10.4191C22.0639 10.4191 20.8889 9.24961 20.8889 7.82026C20.8889 6.39092 22.0639 5.22145 23.5 5.22145C24.4922 5.22145 25.38 5.79319 25.7978 6.59882C26.2156 7.40445 27.1294 7.82026 28.0172 7.82026C29.9494 7.82026 31.3072 5.7672 30.3933 4.07798C28.8267 1.21929 25.5367 -0.547902 21.9333 0.153776C18.8783 0.751502 16.3978 3.27235 15.8233 6.31295C15.0661 10.3671 17.4161 13.9275 20.8889 15.1489V16.7861L3.76 24.3747C1.46222 25.3622 0 27.6232 0 30.092V30.118C0 33.6004 2.82 36.4072 6.31889 36.4072H10.4444V46.8024C10.4444 49.6611 12.7944 52 15.6667 52H31.3333C34.2056 52 36.5556 49.6611 36.5556 46.8024V36.4072H40.6811C44.18 36.4072 47 33.6004 47 30.118V30.092C47 27.6232 45.5378 25.3622 43.24 24.3487ZM40.6811 31.2095H35.8244C34.9105 29.6502 33.2656 28.6107 31.3333 28.6107H15.6667C13.7344 28.6107 12.0633 29.6502 11.1756 31.2095H6.31889C5.11778 31.2095 4.80444 29.5203 5.875 29.1045L23.5 21.3081L41.125 29.1045C42.2217 29.5983 41.8561 31.2095 40.6811 31.2095Z" fill="#F7941D"/>
</svg>
