<svg width="20" height="20" viewBox="0 0 20 20" fill="none" xmlns="http://www.w3.org/2000/svg">
<path d="M10.4313 2.22314C7.37578 2.22314 4.90454 4.65579 4.90454 7.66356C4.90454 11.7439 10.4313 17.7672 10.4313 17.7672C10.4313 17.7672 15.958 11.7439 15.958 7.66356C15.958 4.65579 13.4868 2.22314 10.4313 2.22314ZM10.4313 9.60657C9.90778 9.60657 9.40573 9.40186 9.03556 9.03748C8.66539 8.67309 8.45744 8.17888 8.45744 7.66356C8.45744 7.14825 8.66539 6.65403 9.03556 6.28965C9.40573 5.92527 9.90778 5.72056 10.4313 5.72056C10.9548 5.72056 11.4568 5.92527 11.827 6.28965C12.1971 6.65403 12.4051 7.14825 12.4051 7.66356C12.4051 8.17888 12.1971 8.67309 11.827 9.03748C11.4568 9.40186 10.9548 9.60657 10.4313 9.60657Z" fill="#F7941D"/>
</svg>
