<svg width="47" height="39" viewBox="0 0 47 39" fill="none" xmlns="http://www.w3.org/2000/svg">
<path fill-rule="evenodd" clip-rule="evenodd" d="M15.5 0.126154C16.0047 -0.0420512 16.4812 -0.0420512 16.9858 0.126154L31 3.62615L42 0.626099C45.1837 -0.435134 46.5 -0.360711 46.5 2.9952L46 32.2292C46 34.3455 46.0077 35.4569 44 36.1261L31.5 38.1262C30.9954 38.2944 30.0047 38.2944 29.5 38.1262L16 34.6262L5.50005 38.1262C2.31635 39.1875 1.00005 38.8629 1.00005 35.507L1.00014 6.27297C1.00014 4.15669 0.492318 3.66442 2.5 2.9952L15.5 0.126154ZM16.5 32.2292L30.181 34.7511V6.27297L16.5 2.9952V32.2292ZM13.75 2.9952V32.2292L3.91671 35.507V6.27297L13.75 2.9952ZM33.4167 6.27297V35.507L43.2501 32.2292V2.9952L33.4167 6.27297Z" fill="#F7941D"/>
</svg>
