<svg width="22" height="22" viewBox="0 0 22 22" fill="none" xmlns="http://www.w3.org/2000/svg">
<path d="M3.66668 4.58325C3.18045 4.58325 2.71413 4.77641 2.37031 5.12022C2.0265 5.46404 1.83334 5.93035 1.83334 6.41659V15.5833C1.83334 16.0695 2.0265 16.5358 2.37031 16.8796C2.71413 17.2234 3.18045 17.4166 3.66668 17.4166H18.3333C18.8196 17.4166 19.2859 17.2234 19.6297 16.8796C19.9735 16.5358 20.1667 16.0695 20.1667 15.5833V6.41659C20.1667 5.93035 19.9735 5.46404 19.6297 5.12022C19.2859 4.77641 18.8196 4.58325 18.3333 4.58325H3.66668ZM3.66668 6.41659H14.6667V15.5833H3.66668V6.41659ZM17.4167 6.41659C17.6598 6.41659 17.8929 6.51316 18.0649 6.68507C18.2368 6.85698 18.3333 7.09014 18.3333 7.33325C18.3333 7.57637 18.2368 7.80952 18.0649 7.98143C17.8929 8.15334 17.6598 8.24992 17.4167 8.24992C17.1736 8.24992 16.9404 8.15334 16.7685 7.98143C16.5966 7.80952 16.5 7.57637 16.5 7.33325C16.5 7.09014 16.5966 6.85698 16.7685 6.68507C16.9404 6.51316 17.1736 6.41659 17.4167 6.41659V6.41659ZM11.9167 8.24992V13.7499H13.75V8.24992H11.9167ZM17.4167 10.0833C17.6598 10.0833 17.8929 10.1798 18.0649 10.3517C18.2368 10.5236 18.3333 10.7568 18.3333 10.9999C18.3333 11.243 18.2368 11.4762 18.0649 11.6481C17.8929 11.82 17.6598 11.9166 17.4167 11.9166C17.1736 11.9166 16.9404 11.82 16.7685 11.6481C16.5966 11.4762 16.5 11.243 16.5 10.9999C16.5 10.7568 16.5966 10.5236 16.7685 10.3517C16.9404 10.1798 17.1736 10.0833 17.4167 10.0833Z" fill="#F7941D"/>
</svg>
