<svg width="270" height="160" viewBox="0 0 270 160" fill="none" xmlns="http://www.w3.org/2000/svg">
<rect width="270" height="159.601" fill="#C4C4C4"/>
<rect width="270" height="160" fill="#24E5DB"/>
<path d="M155.56 79.7153V117.431H146.623H137.687V79.7153V41.9999H146.623H155.56V79.7153ZM106.575 49.4521C117.996 51.8453 127.296 60.7213 130.295 72.1419C131.022 74.8078 131.113 75.7469 131.113 79.8668C131.113 83.6534 130.992 85.0167 130.477 86.8343C128.417 94.4682 124.63 100.224 118.662 104.738C116.118 106.676 111.998 108.706 108.453 109.766C105.909 110.524 105.333 110.584 100.123 110.584C94.882 110.584 94.3367 110.524 91.7921 109.766C84.4307 107.525 78.5538 103.314 74.4339 97.3461C67.1938 86.8343 67.1938 72.8993 74.4036 62.236C79.2203 55.1473 87.5813 50.058 96.2149 48.9977C98.9716 48.6342 103.788 48.8463 106.575 49.4521ZM178.795 64.4777L182.218 67.9008L185.641 64.4777L189.034 61.0848H195.032H201V67.0526V73.0507L197.607 76.4436L194.184 79.8668L197.607 83.2899L201 86.6828V92.6809V98.6487H195.032H189.034L185.641 95.2558L182.218 91.8327L178.795 95.2558L175.372 98.6487L169.404 98.5881L163.406 98.4972V92.6203V86.7131L166.829 83.2899L170.252 79.8668L166.829 76.4436L163.406 73.0204L163.345 67.0526L163.285 61.0848H169.343H175.402L178.795 64.4777Z" fill="#002F34"/>
<path d="M97.0331 70.9302C90.3686 73.384 88.6116 81.9873 93.7614 86.6525C95.7305 88.4095 97.4572 89.076 100.123 89.076C102.001 89.1063 102.698 88.9548 104.122 88.2581C106 87.3493 107.606 85.7437 108.666 83.7443C109.211 82.6841 109.332 81.9267 109.332 79.8668C109.363 77.6554 109.241 77.0798 108.545 75.7469C107.515 73.7778 105.091 71.5664 103.243 70.9605C101.547 70.385 98.5781 70.3547 97.0331 70.9302Z" fill="#24E5DB"/>
</svg>
