<svg width="23" height="23" viewBox="0 0 23 23" fill="none" xmlns="http://www.w3.org/2000/svg">
<path d="M4.3125 20.125C4.3125 20.125 2.875 20.125 2.875 18.6875C2.875 17.25 4.3125 12.9375 11.5 12.9375C18.6875 12.9375 20.125 17.25 20.125 18.6875C20.125 20.125 18.6875 20.125 18.6875 20.125H4.3125ZM11.5 11.5C12.6437 11.5 13.7406 11.0456 14.5494 10.2369C15.3581 9.42815 15.8125 8.33125 15.8125 7.1875C15.8125 6.04375 15.3581 4.94685 14.5494 4.1381C13.7406 3.32935 12.6437 2.875 11.5 2.875C10.3563 2.875 9.25935 3.32935 8.4506 4.1381C7.64185 4.94685 7.1875 6.04375 7.1875 7.1875C7.1875 8.33125 7.64185 9.42815 8.4506 10.2369C9.25935 11.0456 10.3563 11.5 11.5 11.5Z" fill="#23397A"/>
</svg>
