      <svg  width="18" height="18" viewBox="0 0 18 18" fill="none"
                xmlns="http://www.w3.org/2000/svg">
                <path
                  d="M7.61012 10.32C8.65386 11.3789 9.91676 12.1963 11.3101 12.715L13.1951 11.215C13.251 11.1766 13.3173 11.1559 13.3851 11.1559C13.453 11.1559 13.5192 11.1766 13.5751 11.215L17.0751 13.47C17.208 13.5499 17.3205 13.6596 17.4037 13.7904C17.4869 13.9213 17.5385 14.0696 17.5545 14.2239C17.5705 14.3781 17.5504 14.5339 17.4959 14.679C17.4413 14.8241 17.3538 14.9546 17.2401 15.06L15.6001 16.68C15.3653 16.9121 15.0766 17.0824 14.7599 17.1758C14.4432 17.2691 14.1083 17.2826 13.7851 17.215C10.5612 16.5492 7.58969 14.9898 5.21012 12.715C2.88336 10.4177 1.27326 7.49446 0.575119 4.30004C0.506152 3.98186 0.520547 3.65126 0.616907 3.34028C0.713268 3.0293 0.888327 2.74848 1.12512 2.52504L2.82512 0.885041C2.93032 0.776935 3.05861 0.694029 3.20039 0.64253C3.34217 0.591032 3.49377 0.572275 3.64382 0.587666C3.79388 0.603056 3.93851 0.652195 4.06689 0.731401C4.19526 0.810608 4.30406 0.917831 4.38512 1.04504L6.71512 4.50004C6.75531 4.55429 6.777 4.62002 6.777 4.68754C6.777 4.75506 6.75531 4.82079 6.71512 4.87504L5.18012 6.72004C5.71291 8.08551 6.54299 9.31525 7.61012 10.32Z"
                  fill="#fff" />
              </svg>
