<svg width="14" height="14" viewBox="0 0 14 14" fill="none" xmlns="http://www.w3.org/2000/svg">
<path d="M5.91909 8.0267C6.73089 8.85022 7.71315 9.48604 8.79687 9.88947L10.263 8.72281C10.3064 8.69287 10.358 8.67685 10.4108 8.67685C10.4635 8.67685 10.5151 8.69287 10.5585 8.72281L13.2808 10.4767C13.3841 10.5388 13.4716 10.6241 13.5363 10.7259C13.601 10.8276 13.6412 10.9431 13.6536 11.063C13.6661 11.1829 13.6505 11.3041 13.608 11.417C13.5656 11.5299 13.4975 11.6313 13.4091 11.7134L12.1335 12.9734C11.9509 13.1539 11.7263 13.2863 11.48 13.3589C11.2337 13.4315 10.9732 13.442 10.7219 13.3895C8.21439 12.8716 5.9032 11.6587 4.05242 9.88947C2.24272 8.10263 0.990419 5.82903 0.447424 3.34448C0.393783 3.097 0.404978 2.83987 0.479925 2.59799C0.554873 2.35612 0.69103 2.13771 0.875201 1.96392L2.19742 0.688365C2.27925 0.604283 2.37903 0.5398 2.4893 0.499746C2.59958 0.459691 2.71748 0.445103 2.83419 0.457073C2.9509 0.469044 3.0634 0.507262 3.16324 0.568868C3.26309 0.630473 3.34771 0.713868 3.41076 0.81281L5.22298 3.50003C5.25424 3.54223 5.27111 3.59335 5.27111 3.64586C5.27111 3.69838 5.25424 3.7495 5.22298 3.7917L4.02909 5.2267C4.44348 6.28873 5.0891 7.24519 5.91909 8.0267V8.0267Z" fill="#5E5E5E"/>
<ellipse cx="7.38889" cy="5.83333" rx="0.388889" ry="0.388889" fill="#5E5E5E"/>
<ellipse cx="8.94455" cy="5.83333" rx="0.388889" ry="0.388889" fill="#5E5E5E"/>
<ellipse cx="10.5002" cy="5.83333" rx="0.388889" ry="0.388889" fill="#5E5E5E"/>
</svg>
