<svg width="19" height="19" viewBox="0 0 19 19" fill="none" xmlns="http://www.w3.org/2000/svg">
<path d="M8.03263 10.8933C9.13436 12.011 10.4674 12.8738 11.9382 13.4214L13.9279 11.838C13.9869 11.7974 14.0568 11.7757 14.1285 11.7757C14.2001 11.7757 14.27 11.7974 14.329 11.838L18.0235 14.2183C18.1637 14.3026 18.2824 14.4184 18.3703 14.5565C18.4581 14.6946 18.5126 14.8512 18.5295 15.014C18.5464 15.1768 18.5252 15.3413 18.4676 15.4944C18.41 15.6476 18.3176 15.7853 18.1976 15.8966L16.4665 17.6066C16.2186 17.8516 15.9139 18.0314 15.5796 18.1299C15.2453 18.2284 14.8918 18.2427 14.5507 18.1714C11.1477 17.4685 8.01106 15.8225 5.4993 13.4214C3.04328 10.9964 1.34372 7.91076 0.606799 4.53887C0.534001 4.20302 0.549195 3.85405 0.650909 3.52579C0.752623 3.19753 0.937407 2.90111 1.18735 2.66526L2.9818 0.934151C3.09284 0.820039 3.22826 0.732527 3.37792 0.678167C3.52758 0.623808 3.68759 0.604009 3.84599 0.620255C4.00438 0.6365 4.15705 0.688368 4.29255 0.771976C4.42806 0.855583 4.5429 0.968762 4.62847 1.10304L7.08791 4.74998C7.13033 4.80725 7.15323 4.87663 7.15323 4.9479C7.15323 5.01917 7.13033 5.08855 7.08791 5.14582L5.46763 7.09332C6.03002 8.53465 6.90621 9.83271 8.03263 10.8933Z" fill="#F7941D"/>
</svg>
