<svg width="14" height="14" viewBox="0 0 14 14" fill="none" xmlns="http://www.w3.org/2000/svg">
<path d="M5.91885 8.02669C6.73065 8.85022 7.7129 9.48603 8.79662 9.88947L10.2627 8.7228C10.3062 8.69287 10.3577 8.67684 10.4105 8.67684C10.4633 8.67684 10.5148 8.69287 10.5583 8.7228L13.2805 10.4767C13.3839 10.5388 13.4713 10.6241 13.5361 10.7259C13.6008 10.8276 13.6409 10.943 13.6534 11.063C13.6658 11.1829 13.6502 11.3041 13.6078 11.417C13.5653 11.5299 13.4972 11.6313 13.4088 11.7134L12.1333 12.9734C11.9506 13.1539 11.7261 13.2863 11.4798 13.3589C11.2335 13.4315 10.973 13.442 10.7216 13.3895C8.21415 12.8716 5.90295 11.6587 4.05218 9.88947C2.24248 8.10262 0.990175 5.82902 0.447179 3.34447C0.393539 3.097 0.404734 2.83986 0.479681 2.59799C0.554628 2.35612 0.690785 2.1377 0.874957 1.96392L2.19718 0.688362C2.279 0.604279 2.37878 0.539796 2.48906 0.499742C2.59933 0.459687 2.71724 0.445099 2.83395 0.45707C2.95066 0.46904 3.06315 0.507259 3.163 0.568864C3.26285 0.630469 3.34746 0.713865 3.41051 0.812806L5.22273 3.50003C5.25399 3.54222 5.27087 3.59335 5.27087 3.64586C5.27087 3.69837 5.25399 3.7495 5.22273 3.79169L4.02885 5.22669C4.44324 6.28873 5.08885 7.24519 5.91885 8.02669V8.02669Z" fill="#5E5E5E"/>
</svg>
