<svg width="16" height="16" viewBox="0 0 16 16" fill="none" xmlns="http://www.w3.org/2000/svg">
<g clip-path="url(#clip0)">
<path d="M6.76436 9.17346C7.69213 10.1146 8.81471 10.8413 10.0532 11.3023L11.7288 9.96901C11.7785 9.9348 11.8374 9.91649 11.8977 9.91649C11.958 9.91649 12.0169 9.9348 12.0666 9.96901L15.1777 11.9735C15.2958 12.0445 15.3958 12.142 15.4697 12.2583C15.5437 12.3745 15.5896 12.5064 15.6038 12.6435C15.618 12.7806 15.6002 12.9191 15.5517 13.0481C15.5032 13.1771 15.4254 13.293 15.3244 13.3868L13.8666 14.8268C13.6578 15.0331 13.4012 15.1845 13.1197 15.2674C12.8382 15.3504 12.5405 15.3624 12.2532 15.3023C9.38756 14.7105 6.7462 13.3243 4.63103 11.3023C2.5628 9.26024 1.13159 6.66184 0.511027 3.82235C0.449723 3.53952 0.462518 3.24566 0.548172 2.96923C0.633826 2.6928 0.789434 2.44318 0.999916 2.24457L2.51103 0.786795C2.60454 0.6907 2.71858 0.617006 2.8446 0.571229C2.97063 0.525453 3.10538 0.508781 3.23877 0.522461C3.37215 0.536141 3.50071 0.57982 3.61482 0.650226C3.72893 0.720632 3.82564 0.815941 3.89769 0.929017L5.9688 4.00013C6.00453 4.04835 6.02381 4.10678 6.02381 4.16679C6.02381 4.22681 6.00453 4.28524 5.9688 4.33346L4.60436 5.97346C5.07795 7.18721 5.8158 8.28031 6.76436 9.17346Z" fill="#23397A"/>
</g>
<defs>
<clipPath id="clip0">
<rect width="16" height="16" fill="white"/>
</clipPath>
</defs>
</svg>
