<svg width="17" height="17" viewBox="0 0 17 17" fill="none" xmlns="http://www.w3.org/2000/svg">
<path d="M13.5376 6.90625C13.4473 6.90625 13.0581 6.90891 12.9177 6.91654L10.9995 6.96701L6.57622 1.59375H4.49073L6.96735 7.05932L3.73636 7.10713L2.26612 5.3125H0.535908L1.22022 8.43957C1.22521 8.4575 1.23118 8.4751 1.23782 8.49236C1.23831 8.49399 1.23831 8.49572 1.23782 8.49734C1.23102 8.5145 1.22514 8.53201 1.22022 8.5498L0.526611 11.6875H2.24587L3.75495 9.86133L6.96802 9.93338L4.4904 15.4062H6.5822L10.9982 10.0356L12.9164 10.0868C13.0588 10.0944 13.4476 10.0971 13.5359 10.0971C14.3444 10.0971 15.0058 9.98617 15.5019 9.76703C16.3433 9.39648 16.4688 8.8141 16.4688 8.5C16.4688 7.50191 15.3731 6.90625 13.5376 6.90625Z" fill="#F7941D"/>
</svg>
