<svg width="17" height="17" viewBox="0 0 17 17" fill="none" xmlns="http://www.w3.org/2000/svg">
<g clip-path="url(#clip0)">
<path d="M2.26668 1.30333C2.38045 0.867043 2.66288 0.493817 3.05183 0.265761C3.24442 0.152838 3.45736 0.078955 3.6785 0.0483289C3.89965 0.0177029 4.12466 0.030934 4.34068 0.0872667C4.55671 0.143599 4.75953 0.241931 4.93756 0.376646C5.11559 0.511361 5.26534 0.679822 5.37826 0.872411C5.49118 1.065 5.56506 1.27794 5.59569 1.49909C5.62632 1.72023 5.61308 1.94524 5.55675 2.16127C5.44298 2.59756 5.16056 2.97078 4.77161 3.19884C4.38266 3.4269 3.91904 3.4911 3.48275 3.37733C3.04646 3.26356 2.67324 2.98114 2.44518 2.59219C2.21712 2.20324 2.15292 1.73962 2.26668 1.30333V1.30333ZM14.7334 13.9627C14.7613 14.109 14.7601 14.2594 14.7299 14.4052C14.6996 14.5511 14.6409 14.6895 14.5572 14.8127C14.4734 14.9358 14.3661 15.0413 14.2416 15.1229C14.117 15.2046 13.9776 15.2609 13.8312 15.2887H13.8267C13.5918 15.3362 13.3479 15.3081 13.13 15.2083C12.9121 15.1085 12.7315 14.9422 12.614 14.7333L10.71 10.914L9.06669 11.2427L8.81735 11.3333H8.74935V13.77L9.45202 13.6H9.61068C9.74597 13.6025 9.87626 13.6516 9.97968 13.7388C10.0831 13.8261 10.1533 13.9463 10.1786 14.0792C10.2038 14.2122 10.1826 14.3497 10.1184 14.4688C10.0542 14.588 9.95095 14.6813 9.82602 14.7333L4.15935 15.8667C4.09558 15.8774 4.03045 15.8774 3.96668 15.8667C3.83045 15.8667 3.69841 15.8195 3.59305 15.7331C3.48769 15.6467 3.41551 15.5265 3.3888 15.3929C3.36208 15.2593 3.38247 15.1206 3.4465 15.0003C3.51054 14.8801 3.61426 14.7857 3.74002 14.7333L8.44335 13.7927V11.3333L4.79402 11.9907C4.51014 12.0647 4.20862 12.0257 3.95287 11.882C3.69713 11.7383 3.50707 11.501 3.42268 11.22H3.40002L2.26668 6.60733C2.23135 6.44681 2.23135 6.28052 2.26668 6.12C2.31859 5.90541 2.43205 5.71064 2.59312 5.55964C2.75419 5.40864 2.95586 5.30797 3.17335 5.27L8.50002 4.68067V0H8.74935V4.64667H8.81735L9.06669 4.624L9.52002 4.53333H9.75802C9.90355 4.56832 10.0293 4.65946 10.1079 4.78687C10.1865 4.91427 10.2114 5.06758 10.1774 5.21333C10.1533 5.34233 10.0843 5.45863 9.98263 5.54161C9.88098 5.62459 9.75322 5.6689 9.62202 5.66667L9.06669 5.75733H8.74935V8.99867H8.81735L9.06669 8.93067L11.118 8.52267C11.3543 8.50322 11.5908 8.55837 11.7941 8.68036C11.9974 8.80234 12.1573 8.98502 12.2514 9.20267L14.518 13.668C14.6053 13.7539 14.678 13.8534 14.7334 13.9627V13.9627ZM8.50002 5.814L5.66668 6.12L6.50535 9.452L8.50002 9.06667V5.814Z" fill="#F7941D"/>
</g>
<defs>
<clipPath id="clip0">
<rect width="17" height="17" fill="white"/>
</clipPath>
</defs>
</svg>
