<svg width="83" height="83" viewBox="0 0 83 83" fill="none" xmlns="http://www.w3.org/2000/svg">
<path d="M72.625 41.5L83 51.875L70.0312 57.0625L72.625 72.625L57.0625 70.0312L51.875 83L41.5 72.625L31.125 83L25.9375 70.0312L10.375 72.625L12.9688 57.0625L0 51.875L10.375 41.5L0 31.125L12.9688 25.9375L10.375 10.375L25.9375 12.9688L31.125 0L41.5 10.375L51.875 0L57.0625 12.9688L72.625 10.375L70.0312 25.9375L83 31.125L72.625 41.5ZM28.5312 20.75C26.3698 20.75 24.5326 21.7632 23.0195 23.7896C21.5065 25.8159 20.75 28.2611 20.75 31.125C20.75 33.9889 21.5065 36.4341 23.0195 38.4604C24.5326 40.4868 26.3698 41.5 28.5312 41.5C30.6927 41.5 32.5299 40.4868 34.043 38.4604C35.556 36.4341 36.3125 33.9889 36.3125 31.125C36.3125 28.2611 35.556 25.8159 34.043 23.7896C32.5299 21.7632 30.6927 20.75 28.5312 20.75ZM54.4688 20.75H51.875C51.6589 20.75 51.4562 20.7905 51.2671 20.8716C51.078 20.9526 50.9294 21.0202 50.8213 21.0742C50.7132 21.1283 50.5646 21.2769 50.3755 21.52C50.1864 21.7632 50.0648 21.9253 50.0107 22.0063C49.9567 22.0874 49.8351 22.3035 49.646 22.6548C49.4569 23.006 49.3353 23.2357 49.2812 23.3438L26.3428 59.6562C25.9645 60.3047 26.0456 60.8991 26.5859 61.4395C27.1263 61.9798 27.7747 62.25 28.5312 62.25H31.125C31.3411 62.25 31.5168 62.2365 31.6519 62.2095C31.7869 62.1825 31.9355 62.1149 32.0977 62.0068C32.2598 61.8988 32.3813 61.8042 32.4624 61.7231C32.5435 61.6421 32.6515 61.4935 32.7866 61.2773C32.9217 61.0612 33.0163 60.8991 33.0703 60.791C33.1243 60.6829 33.2324 60.4938 33.3945 60.2236C33.5566 59.9534 33.6647 59.7643 33.7188 59.6562L56.6572 23.3438C57.0355 22.6953 56.9544 22.1009 56.4141 21.5605C55.8737 21.0202 55.2253 20.75 54.4688 20.75ZM54.4688 41.5C52.3073 41.5 50.4701 42.5132 48.957 44.5396C47.444 46.5659 46.6875 49.0111 46.6875 51.875C46.6875 54.7389 47.444 57.1841 48.957 59.2104C50.4701 61.2368 52.3073 62.25 54.4688 62.25C56.6302 62.25 58.4674 61.2368 59.9805 59.2104C61.4935 57.1841 62.25 54.7389 62.25 51.875C62.25 49.0111 61.4935 46.5659 59.9805 44.5396C58.4674 42.5132 56.6302 41.5 54.4688 41.5ZM54.4688 57.0625C53.7663 57.0625 53.1584 56.5492 52.645 55.5225C52.1317 54.4958 51.875 53.2664 51.875 51.8345C51.875 50.4025 52.1317 49.1867 52.645 48.187C53.1584 47.1873 53.7663 46.6875 54.4688 46.6875C55.1712 46.6875 55.7791 47.1873 56.2925 48.187C56.8058 49.1867 57.0625 50.4025 57.0625 51.8345C57.0625 53.2664 56.8058 54.4958 56.2925 55.5225C55.7791 56.5492 55.1712 57.0625 54.4688 57.0625ZM28.5312 36.3125C27.8288 36.3125 27.2209 35.7992 26.7075 34.7725C26.1942 33.7458 25.9375 32.5164 25.9375 31.0845C25.9375 29.6525 26.1942 28.4367 26.7075 27.437C27.2209 26.4373 27.8288 25.9375 28.5312 25.9375C29.2337 25.9375 29.8416 26.4373 30.355 27.437C30.8683 28.4367 31.125 29.6525 31.125 31.0845C31.125 32.5164 30.8683 33.7458 30.355 34.7725C29.8416 35.7992 29.2337 36.3125 28.5312 36.3125Z" fill="#F7941D"/>
</svg>
