<svg width="90" height="76" viewBox="0 0 90 76" fill="none" xmlns="http://www.w3.org/2000/svg">
<path d="M43.8958 25.125C43.0172 25.125 42.1747 25.474 41.5535 26.0952C40.9322 26.7164 40.5833 27.559 40.5833 28.4375C40.5833 29.316 40.9322 30.1586 41.5535 30.7798C42.1747 31.401 43.0172 31.75 43.8958 31.75C49.7346 31.75 55.8738 35.1022 58.9566 39.5057C59.206 39.8621 59.5232 40.1659 59.89 40.3997C60.2568 40.6336 60.6661 40.7929 61.0944 40.8685C61.5228 40.9442 61.9619 40.9348 62.3866 40.8407C62.8113 40.7467 63.2134 40.5699 63.5698 40.3205C63.9262 40.0711 64.23 39.754 64.4639 39.3872C64.6977 39.0204 64.857 38.6111 64.9327 38.1827C65.0083 37.7543 64.9989 37.3152 64.9049 36.8905C64.8108 36.4658 64.6341 36.0637 64.3847 35.7073C60.074 29.5505 51.9208 25.125 43.8958 25.125Z" fill="#F7941D"/>
<path d="M33.9583 11.8749C33.9583 8.94649 35.1216 6.138 37.1924 4.06728C39.2631 1.99657 42.0716 0.833252 45 0.833252C47.9284 0.833252 50.7369 1.99657 52.8076 4.06728C54.8783 6.138 56.0417 8.94649 56.0417 11.8749V15.7616C63.4195 18.104 69.859 22.7365 74.4256 28.9868C78.9922 35.2371 81.4483 42.78 81.4375 50.5208C81.4375 51.3993 81.0885 52.2418 80.4673 52.863C79.8461 53.4843 79.0035 53.8333 78.125 53.8333H11.875C10.9965 53.8333 10.1539 53.4843 9.53271 52.863C8.91149 52.2418 8.5625 51.3993 8.5625 50.5208C8.5625 34.2718 19.2597 20.5183 33.9583 15.8146V11.8749ZM49.4167 11.8749C49.4167 10.7035 48.9513 9.58015 48.123 8.75186C47.2948 7.92358 46.1714 7.45825 45 7.45825C43.8286 7.45825 42.7052 7.92358 41.8769 8.75186C41.0487 9.58015 40.5833 10.7035 40.5833 11.8749V14.3615C43.5162 13.9995 46.482 13.9921 49.4167 14.3394V11.8749ZM15.373 47.2083H74.6314C72.9972 32.2976 60.4274 20.7083 45.0927 20.7083C29.7448 20.7083 17.0292 32.3153 15.3686 47.2083H15.373Z" fill="#F7941D"/>
<path d="M9.66658 58.25C7.32384 58.25 5.07705 59.1807 3.42047 60.8372C1.7639 62.4938 0.833252 64.7406 0.833252 67.0833C0.833252 69.4261 1.7639 71.6729 3.42047 73.3294C5.07705 74.986 7.32384 75.9167 9.66658 75.9167H80.3332C82.676 75.9167 84.9228 74.986 86.5793 73.3294C88.2359 71.6729 89.1666 69.4261 89.1666 67.0833C89.1666 64.7406 88.2359 62.4938 86.5793 60.8372C84.9228 59.1807 82.676 58.25 80.3332 58.25H9.66658ZM7.45825 67.0833C7.45825 66.4976 7.69091 65.9359 8.10506 65.5218C8.5192 65.1077 9.0809 64.875 9.66658 64.875H80.3332C80.9189 64.875 81.4806 65.1077 81.8948 65.5218C82.3089 65.9359 82.5416 66.4976 82.5416 67.0833C82.5416 67.669 82.3089 68.2307 81.8948 68.6449C81.4806 69.059 80.9189 69.2917 80.3332 69.2917H9.66658C9.0809 69.2917 8.5192 69.059 8.10506 68.6449C7.69091 68.2307 7.45825 67.669 7.45825 67.0833Z" fill="#F7941D"/>
</svg>
