<svg width="15" height="20" viewBox="0 0 15 20" fill="none" xmlns="http://www.w3.org/2000/svg">
<g clip-path="url(#clip0)">
<path d="M9.20486 6.25H3.29626C2.67236 6.24998 2.07099 6.48324 1.61029 6.90397C1.1496 7.3247 0.862863 7.90248 0.806419 8.52383L0.0111065 17.2738C-0.0203176 17.6198 0.020688 17.9684 0.131509 18.2976C0.242329 18.6268 0.420533 18.9293 0.654756 19.1858C0.888979 19.4423 1.17408 19.6472 1.49188 19.7874C1.80969 19.9275 2.15321 20 2.50056 20H10.0006C10.3479 20 10.6915 19.9276 11.0094 19.7875C11.3272 19.6473 11.6124 19.4424 11.8466 19.1859C12.0809 18.9294 12.2591 18.6269 12.37 18.2977C12.4808 17.9685 12.5218 17.6198 12.4904 17.2738L11.6951 8.52383C11.6386 7.90242 11.3519 7.32457 10.8911 6.90384C10.4303 6.4831 9.82883 6.24988 9.20486 6.25V6.25ZM6.25056 16.25C4.95681 16.25 3.90681 15.2215 3.90681 13.9551C3.90681 12.9785 5.30134 11.007 5.93806 10.1555C5.97451 10.107 6.02174 10.0677 6.07601 10.0406C6.13028 10.0136 6.19011 9.99953 6.25075 9.99961C6.3114 9.99968 6.37119 10.0139 6.4254 10.0411C6.4796 10.0683 6.52673 10.1077 6.56306 10.1562C7.20095 11.0078 8.59431 12.9793 8.59431 13.9559C8.59431 15.2215 7.54431 16.25 6.25056 16.25ZM14.8174 3.67422L13.1256 1.98203C12.6567 1.51331 12.0209 1.25 11.358 1.25H8.75056C8.75056 0.918479 8.61886 0.600537 8.38444 0.366117C8.15002 0.131696 7.83208 0 7.50056 0L5.00056 0C4.66904 0 4.3511 0.131696 4.11668 0.366117C3.88226 0.600537 3.75056 0.918479 3.75056 1.25V5H8.75056V3.75H11.358L13.0498 5.4418C13.1078 5.49985 13.1767 5.5459 13.2526 5.57732C13.3284 5.60873 13.4097 5.62491 13.4918 5.62491C13.5739 5.62491 13.6551 5.60873 13.731 5.57732C13.8068 5.5459 13.8757 5.49985 13.9338 5.4418L14.8174 4.5582C14.8754 4.50016 14.9215 4.43126 14.9529 4.35542C14.9843 4.27958 15.0005 4.1983 15.0005 4.11621C15.0005 4.03412 14.9843 3.95284 14.9529 3.877C14.9215 3.80116 14.8754 3.73226 14.8174 3.67422Z" fill="#F7941D"/>
</g>
<defs>
<clipPath id="clip0">
<rect width="15" height="20" fill="white"/>
</clipPath>
</defs>
</svg>
