<svg width="59" height="59" viewBox="0 0 59 59" fill="none" xmlns="http://www.w3.org/2000/svg">
<path d="M58.0165 1.96664C58.5598 1.96664 59 1.52641 59 0.983545C59 0.440233 58.5598 1.67557e-06 58.0165 1.67557e-06H32.6019C31.6278 -0.000898593 30.6879 0.361009 29.9659 1.0146L1.62183 26.6151C0.590126 27.5478 0.000900269 28.8734 0 30.2643V33.4333C0 33.9766 0.440231 34.4168 0.983543 34.4168C1.52641 34.4168 1.96664 33.9766 1.96664 33.4333V30.2643C1.96754 29.4298 2.32089 28.6348 2.93938 28.0749L6.88345 24.5125V47.2002H0.983543C0.440231 47.2002 0 47.6404 0 48.1833C0 48.7266 0.440231 49.1668 0.983543 49.1668H1.96664V57.0334C1.96799 58.1191 2.84755 58.9986 3.93327 59H57.0334C58.1191 58.9986 58.9986 58.1191 59 57.0334V19.6668C58.9986 18.5811 58.1191 17.7011 57.0334 17.7002H51.1335V1.96664H58.0165ZM32.6019 1.96664H39.3332V17.7002H33.4333C32.8904 17.7002 32.4502 18.1404 32.4502 18.6833C32.4502 19.2266 32.8904 19.6668 33.4333 19.6668H34.4168V26.5498C34.4164 27.0927 33.9761 27.5329 33.4333 27.5334H30.4835V3.19686L31.2843 2.47349C31.6453 2.14669 32.1148 1.96619 32.6019 1.96664ZM24.5832 27.5334H22.6165C22.0737 27.5334 21.6335 27.9736 21.6335 28.5165C21.6335 29.0598 22.0737 29.5 22.6165 29.5H23.6001V36.3835C23.5996 36.9263 23.1594 37.3661 22.6165 37.3665H19.6668V12.9666L28.5165 4.97354V27.5334H24.5832ZM8.85009 22.7363L17.7002 14.7432V37.3665H11.7998C11.257 37.3665 10.8167 37.8068 10.8167 38.3501C10.8167 38.893 11.257 39.3332 11.7998 39.3332H12.7834V46.2166C12.7829 46.7595 12.3427 47.1997 11.7998 47.2002H8.85009V22.7363ZM39.3332 57.0334C38.2479 57.032 37.3679 56.1525 37.3665 55.0667V49.1668H47.2002V55.0667C47.1988 56.1525 46.3188 57.032 45.2335 57.0334H39.3332ZM40.2915 42.9248C38.2006 42.2555 36.3321 41.0275 34.8886 39.3728C33.5733 37.6146 32.7617 35.5313 32.5416 33.3464C34.6333 34.0148 36.5018 35.2433 37.9454 36.898C39.2603 38.6566 40.0714 40.7399 40.2915 42.9248ZM40.6903 37.529C40.6503 36.9817 40.6561 36.4316 40.7065 35.8852C41.0302 33.4576 42.0209 31.1673 43.568 29.2691C44.7262 31.4257 45.2664 33.86 45.1287 36.3042C45.0954 36.6553 45.0382 37.0037 44.9576 37.3472C44.3567 38.4608 43.9079 39.6496 43.6243 40.8825C43.6189 40.8951 43.6198 40.9087 43.6149 40.9217C43.4353 41.6937 43.311 42.4774 43.2444 43.2665H42.3059C42.1474 41.267 41.5987 39.3174 40.6903 37.529ZM47.6053 36.8984C49.0516 35.246 50.9205 34.0189 53.0119 33.3486C52.7922 35.5336 51.9797 37.6168 50.6617 39.3728C49.215 41.0252 47.346 42.2523 45.2551 42.923C45.4748 40.7381 46.2873 38.6548 47.6053 36.8984ZM49.1668 45.2335L49.1677 47.2002H35.3999V45.2335H49.1668ZM57.0334 57.0334H48.6195C48.9737 56.4383 49.1628 55.759 49.1668 55.0667V49.1668C50.2521 49.1655 51.1321 48.2855 51.1335 47.2002V45.2335C51.1321 44.1478 50.2521 43.2678 49.1668 43.2665H49.1286C50.2904 42.5584 51.3252 41.6604 52.1908 40.6107C54.0346 38.1178 55.0415 35.1055 55.0667 32.005C55.0618 31.7142 54.9285 31.4401 54.7026 31.2569C54.4762 31.0741 54.1809 31.0003 53.895 31.0561C51.3725 31.6291 49.0372 32.8346 47.1093 34.5591C46.8779 31.8763 45.9956 29.2902 44.539 27.0256C44.3747 26.7857 44.1123 26.6308 43.8228 26.6029C43.5334 26.5764 43.2471 26.6781 43.0391 26.8811C40.8938 29.1133 39.4381 31.9181 38.8475 34.9574C36.857 33.0169 34.3669 31.6665 31.6548 31.0566C31.3694 31.0007 31.0737 31.0741 30.8477 31.2573C30.6217 31.4405 30.4885 31.7142 30.4835 32.005C30.5083 35.1055 31.5153 38.1178 33.3595 40.6107C34.2246 41.6604 35.2595 42.5584 36.4213 43.2665H35.3999C34.3142 43.2678 33.4346 44.1478 33.4333 45.2335V47.2002C33.4346 48.2855 34.3142 49.1655 35.3999 49.1668V55.0667C35.404 55.759 35.593 56.4383 35.9468 57.0334H3.93327V49.1668H11.7998C13.4284 49.165 14.7482 47.8452 14.75 46.2166V39.3332H22.6165C24.2451 39.3314 25.5649 38.012 25.5667 36.3835V29.5H33.4333C35.0619 29.4982 36.3817 28.1784 36.3835 26.5498V19.6668H40.3181L50.1454 19.6659L50.1499 19.6668L50.1549 19.6655H57.0334V57.0334ZM49.1668 17.7002H41.2998V1.96664H49.1668V17.7002Z" fill="#F7941D"/>
<path d="M44.2498 54.083H40.3166C39.7732 54.083 39.333 54.5232 39.333 55.0666C39.333 55.6094 39.7732 56.0496 40.3166 56.0496H44.2498C44.7927 56.0496 45.2334 55.6094 45.2334 55.0666C45.2334 54.5232 44.7927 54.083 44.2498 54.083Z" fill="#F7941D"/>
</svg>
