<svg width="48" height="51" viewBox="0 0 48 51" fill="none" xmlns="http://www.w3.org/2000/svg">
<path d="M27.9582 0.916748V20.5834H47.6248C47.6248 9.71758 38.824 0.916748 27.9582 0.916748ZM32.8748 15.6667V6.66925C37.054 8.14425 40.3728 11.463 41.8723 15.6667H32.8748ZM11.8315 23.0417L9.49609 18.1251H0.916504V23.0417H6.374C6.374 23.0417 11.0203 33.0472 11.5857 33.9076C8.8815 35.358 7.06234 38.2097 7.06234 41.4792C7.06234 46.2238 10.9219 50.0834 15.6665 50.0834C19.9932 50.0834 23.5823 46.8876 24.1723 42.7084H29.2857C29.8757 46.8876 33.4648 50.0834 37.7915 50.0834C42.5361 50.0834 46.3957 46.2238 46.3957 41.4792C46.3957 38.9226 45.2648 36.6363 43.4948 35.063C46.1729 31.6282 47.6265 27.3971 47.6248 23.0417H11.8315ZM15.6665 45.1667C13.6261 45.1667 11.979 43.5197 11.979 41.4792C11.979 39.4388 13.6261 37.7917 15.6665 37.7917C17.7069 37.7917 19.354 39.4388 19.354 41.4792C19.354 43.5197 17.7069 45.1667 15.6665 45.1667ZM37.7915 45.1667C35.7511 45.1667 34.104 43.5197 34.104 41.4792C34.104 39.4388 35.7511 37.7917 37.7915 37.7917C39.8319 37.7917 41.479 39.4388 41.479 41.4792C41.479 43.5197 39.8319 45.1667 37.7915 45.1667ZM39.6107 32.0392L38.8978 32.9488C37.0969 32.7182 35.2692 33.0622 33.6755 33.9319C32.0818 34.8016 30.8036 36.1525 30.0232 37.7917H23.4348C22.2057 35.2351 19.7473 33.3667 16.8465 32.9488L15.7648 31.3017C15.519 30.8838 14.929 29.6055 14.1178 27.9584H41.8723C41.3561 29.4088 40.594 30.7855 39.6107 32.0392Z" fill="#F7941D"/>
</svg>
