<svg width="30" height="30" viewBox="0 0 30 30" fill="none" xmlns="http://www.w3.org/2000/svg">
<path d="M15 30C23.2843 30 30 23.2843 30 15C30 6.71573 23.2843 0 15 0C6.71573 0 0 6.71573 0 15C0 23.2843 6.71573 30 15 30Z" fill="url(#paint0_linear)"/>
<path fill-rule="evenodd" clip-rule="evenodd" d="M6.78977 14.8414C11.1626 12.9363 14.0785 11.6803 15.5374 11.0734C19.7031 9.34081 20.5687 9.03983 21.1329 9.02989C21.257 9.02771 21.5344 9.05846 21.7141 9.20429C21.8659 9.32742 21.9076 9.49376 21.9276 9.6105C21.9476 9.72725 21.9725 9.9932 21.9527 10.201C21.7269 12.5729 20.7502 18.3287 20.2533 20.9852C20.043 22.1093 19.629 22.4862 19.2281 22.5231C18.3571 22.6032 17.6956 21.9474 16.8519 21.3944C15.5317 20.529 14.7859 19.9902 13.5044 19.1458C12.0235 18.1698 12.9835 17.6334 13.8275 16.7568C14.0484 16.5274 17.8864 13.0365 17.9607 12.7198C17.9699 12.6802 17.9786 12.5325 17.8909 12.4546C17.8032 12.3766 17.6737 12.4033 17.5803 12.4245C17.4479 12.4545 15.3389 13.8485 11.2532 16.6065C10.6546 17.0175 10.1123 17.2178 9.62652 17.2073C9.09094 17.1958 8.0607 16.9045 7.29483 16.6555C6.35545 16.3502 5.60886 16.1888 5.67387 15.6702C5.70773 15.4001 6.0797 15.1238 6.78977 14.8414Z" fill="white"/>
<defs>
<linearGradient id="paint0_linear" x1="15" y1="0" x2="15" y2="29.7775" gradientUnits="userSpaceOnUse">
<stop stop-color="#2AABEE"/>
<stop offset="1" stop-color="#229ED9"/>
</linearGradient>
</defs>
</svg>
