<svg width="18" height="22" viewBox="0 0 18 22" fill="none" xmlns="http://www.w3.org/2000/svg">
<path d="M5.20834 15.3333C6.10581 15.3333 6.83334 14.6057 6.83334 13.7083C6.83334 12.8108 6.10581 12.0833 5.20834 12.0833C4.31088 12.0833 3.58334 12.8108 3.58334 13.7083C3.58334 14.6057 4.31088 15.3333 5.20834 15.3333Z" fill="#F7941D"/>
<path d="M12.7917 15.3333C13.6891 15.3333 14.4167 14.6057 14.4167 13.7083C14.4167 12.8108 13.6891 12.0833 12.7917 12.0833C11.8942 12.0833 11.1667 12.8108 11.1667 13.7083C11.1667 14.6057 11.8942 15.3333 12.7917 15.3333Z" fill="#F7941D"/>
<path d="M16.4436 1.613C15.1913 0.206831 13.8848 0.166748 13.7396 0.166748H4.25609C4.01343 0.166748 2.74051 0.237165 1.54451 1.63033C0.366927 3.00075 0.333344 4.35058 0.333344 4.50008V17.5001C0.333344 17.7874 0.44748 18.0629 0.650645 18.2661C0.853809 18.4693 1.12936 18.5834 1.41668 18.5834H3.58334L1.41668 21.8334H3.92676L4.64934 20.7501H13.316L14.0494 21.8334H16.5833L14.4167 18.5834H16.5833C16.8707 18.5834 17.1462 18.4693 17.3494 18.2661C17.5525 18.0629 17.6667 17.7874 17.6667 17.5001V4.50008C17.6678 4.2975 17.632 2.94658 16.4436 1.613ZM4.26043 2.33341L13.6973 2.33233C13.719 2.3345 14.2293 2.38541 14.8251 3.05383C14.9356 3.17733 15.0223 3.29866 15.0992 3.41675H2.92251C3.00051 3.29433 3.07743 3.17083 3.18901 3.04083C3.75993 2.37566 4.25934 2.3345 4.26043 2.33341V2.33341ZM2.50001 6.66675V5.58341H15.5V8.83341H2.50001V6.66675ZM15.5 16.4167H2.50001V11.0001H15.5V16.4167Z" fill="#F7941D"/>
</svg>
