<svg width="270" height="160" viewBox="0 0 270 160" fill="none" xmlns="http://www.w3.org/2000/svg">
<rect width="270" height="160" fill="white"/>
<path fill-rule="evenodd" clip-rule="evenodd" d="M162.959 54.9121C162.922 54.9498 162.891 55.0563 162.891 55.15C162.891 55.2436 162.798 55.403 162.685 55.504C162.446 55.7169 162.349 100.368 162.587 100.368C162.647 100.368 162.76 100.522 162.84 100.71C163.15 101.442 164.768 101.327 165.041 100.552C165.111 100.355 165.153 99.2038 165.153 97.4792C165.153 94.1158 165.184 94.0269 166.072 94.8464C166.359 95.1104 166.593 95.3872 166.593 95.462C166.593 95.5368 166.709 95.6731 166.85 95.7643C166.992 95.8556 167.107 95.9772 167.107 96.0344C167.107 96.1415 167.238 96.2838 168.419 97.4591C169.44 98.4756 169.741 98.7457 169.851 98.7457C169.905 98.7457 170.051 98.8595 170.174 98.9994C170.296 99.1387 170.465 99.2525 170.548 99.2525C170.631 99.2525 170.858 99.3893 171.052 99.5572C171.245 99.7245 171.549 99.89 171.727 99.9253C171.906 99.9606 172.109 100.07 172.178 100.169C172.249 100.267 172.514 100.402 172.767 100.469C173.02 100.535 173.319 100.673 173.432 100.776C173.55 100.883 173.945 101.013 174.358 101.081C174.754 101.147 175.24 101.298 175.438 101.417C175.994 101.752 181.974 101.755 182.534 101.42C182.732 101.302 183.195 101.147 183.563 101.076C183.93 101.005 184.324 100.865 184.437 100.765C184.55 100.665 184.874 100.532 185.157 100.469C185.44 100.407 185.764 100.273 185.877 100.172C185.99 100.071 186.202 99.9612 186.347 99.9277C186.493 99.8936 186.759 99.7282 186.938 99.5591C187.117 99.3906 187.354 99.2525 187.464 99.2525C187.575 99.2525 187.725 99.1685 187.799 99.0657C187.873 98.9635 188.037 98.8254 188.163 98.7597C188.289 98.6934 188.504 98.5383 188.64 98.4136C189.191 97.9129 189.826 97.4275 189.931 97.4275C189.992 97.4275 190.042 97.3849 190.042 97.3326C190.042 97.2803 190.231 97.0175 190.462 96.7492C190.692 96.4809 191.005 96.1111 191.156 95.9267C191.307 95.743 191.549 95.4693 191.693 95.3184C191.838 95.1682 192.01 94.9194 192.077 94.7661C192.143 94.6128 192.241 94.4874 192.294 94.4874C192.348 94.4874 192.469 94.2563 192.564 93.9734C192.659 93.6905 192.798 93.4363 192.873 93.4083C192.947 93.3797 193.062 93.1363 193.127 92.8662C193.193 92.5968 193.357 92.2287 193.491 92.0487C193.626 91.8692 193.765 91.5115 193.801 91.2542C193.837 90.9969 193.957 90.6592 194.07 90.5029C194.209 90.3076 194.302 89.9341 194.369 89.3045C194.476 88.2795 194.522 88.0446 194.746 87.3901C195.009 86.6218 194.977 83.6921 194.696 82.7267C194.574 82.3081 194.429 81.4656 194.373 80.8542C194.298 80.0372 194.228 79.7106 194.107 79.6236C194.013 79.5548 193.899 79.2355 193.839 78.8699C193.733 78.2232 193.594 77.86 193.453 77.86C193.354 77.86 193.128 77.2517 193.128 76.9834C193.128 76.8715 193.019 76.6793 192.886 76.5558C192.753 76.4329 192.589 76.1506 192.522 75.9298C192.455 75.709 192.354 75.5277 192.298 75.5277C192.243 75.5277 192.142 75.4024 192.076 75.2491C192.008 75.0958 191.797 74.788 191.607 74.5647C191.416 74.3415 191.16 74.0306 191.037 73.8731C190.914 73.7155 190.64 73.418 190.428 73.2118C190.216 73.0056 190.042 72.7805 190.042 72.7124C190.042 72.6436 189.991 72.5877 189.928 72.5877C189.864 72.5877 189.506 72.3206 189.13 71.9945C188.755 71.6679 188.332 71.3412 188.191 71.2688C188.05 71.1958 187.878 71.0583 187.809 70.9628C187.74 70.8673 187.548 70.7627 187.382 70.7298C187.216 70.697 186.956 70.5571 186.805 70.419C186.653 70.2803 186.404 70.1398 186.251 70.1069C186.098 70.0734 185.847 69.9396 185.693 69.8088C185.538 69.6786 185.235 69.5436 185.018 69.5095C184.8 69.4748 184.511 69.3617 184.375 69.2577C184.233 69.1488 183.805 69.0216 183.364 68.9578C182.859 68.8848 182.493 68.7686 182.284 68.6141C181.798 68.2533 176.287 68.2472 175.798 68.6068C175.596 68.7552 175.205 68.8763 174.667 68.9578C174.119 69.0405 173.792 69.1427 173.69 69.2638C173.605 69.3635 173.316 69.4846 173.049 69.5326C172.781 69.5813 172.48 69.7115 172.38 69.8228C172.28 69.9341 172.036 70.085 171.838 70.158C171.64 70.231 171.395 70.3746 171.294 70.4762C171.193 70.5777 171.072 70.6611 171.026 70.6611C170.979 70.6611 170.738 70.8205 170.49 71.0151C170.241 71.2098 169.989 71.3692 169.929 71.3698C169.869 71.3704 169.717 71.5079 169.592 71.6752C169.466 71.8425 169.299 71.9793 169.22 71.9793C169.14 71.9793 169.046 72.0706 169.01 72.1825C168.974 72.2938 168.857 72.4313 168.751 72.4873C168.561 72.5877 168.106 73.0415 167.584 73.6522C167.44 73.8195 167.139 74.1717 166.915 74.4352C166.689 74.6986 166.477 75.0045 166.441 75.1147C166.406 75.2248 166.284 75.344 166.171 75.3793C166.057 75.4146 165.922 75.5539 165.87 75.6889C165.769 75.9511 165.479 76.0113 165.276 75.8118C165.182 75.7187 165.153 73.3195 165.153 65.6296V55.5691L164.807 55.2071C164.469 54.8531 163.221 54.6542 162.959 54.9121ZM37.6738 57.1441C37.5608 57.1726 37.348 57.3077 37.2011 57.444C37.0548 57.5796 36.7654 57.7372 36.5587 57.7937C36.352 57.8497 36.1823 57.9574 36.1823 58.0322C36.1823 58.107 35.9891 58.2451 35.7522 58.3382C35.5158 58.4319 35.1882 58.6192 35.0246 58.7549C34.8605 58.8906 34.6692 59.0019 34.5988 59.0019C34.5285 59.0019 34.3748 59.1114 34.2564 59.2452C34.1385 59.379 33.8985 59.5196 33.7232 59.5573C33.5473 59.5956 33.3585 59.7106 33.303 59.8128C33.2468 59.9156 33.0506 60.0488 32.8667 60.1084C32.6822 60.1687 32.3971 60.3323 32.2323 60.4716C32.0682 60.6109 31.8713 60.7253 31.7954 60.7253C31.7195 60.7253 31.5616 60.8196 31.4449 60.9345C31.3283 61.0495 31.0278 61.2302 30.7766 61.336C30.5255 61.4425 30.32 61.5715 30.32 61.6232C30.32 61.6749 30.141 61.788 29.922 61.8744C29.7035 61.9602 29.498 62.0977 29.4666 62.1792C29.4351 62.2607 29.2321 62.3824 29.0161 62.4499C28.8001 62.5174 28.5767 62.6275 28.5206 62.6944C28.4638 62.7613 28.2558 62.9049 28.0577 63.0126C27.8597 63.1209 27.5665 63.3119 27.4067 63.4372C27.2469 63.5631 27.0525 63.6653 26.9748 63.6653C26.8976 63.6653 26.7057 63.7827 26.549 63.9263C26.3922 64.0693 26.1337 64.2122 25.9745 64.2438C25.8153 64.2749 25.6283 64.3795 25.5598 64.4756C25.4413 64.6411 25.0729 64.8662 24.1331 65.3467C23.906 65.4629 23.6894 65.601 23.6518 65.6533C23.5395 65.8109 23.0359 66.0986 22.873 66.0986C22.7897 66.0986 22.6607 66.182 22.5867 66.2842C22.5126 66.3864 22.2948 66.5232 22.1016 66.5889C21.9091 66.654 21.6882 66.797 21.6104 66.9065C21.5327 67.0154 21.3112 67.134 21.1174 67.1699C20.915 67.207 20.699 67.3341 20.6095 67.4692C20.5244 67.5976 20.2788 67.7594 20.0647 67.8287C19.8505 67.8981 19.6173 68.0355 19.5469 68.1341C19.476 68.2326 19.2834 68.3428 19.118 68.378C18.9533 68.4139 18.7922 68.5113 18.7595 68.594C18.7274 68.6773 18.4892 68.8373 18.2307 68.9505C17.9721 69.063 17.7352 69.22 17.7049 69.299C17.6741 69.3781 17.463 69.4974 17.2366 69.5643C17.0101 69.6312 16.7719 69.7687 16.7083 69.8697C16.6442 69.9706 16.5386 70.0528 16.4738 70.0528C16.409 70.0528 16.1202 70.2128 15.8327 70.408C15.5451 70.6027 15.2644 70.7627 15.2094 70.7627C15.1545 70.7627 14.9848 70.877 14.8318 71.0164C14.6794 71.1557 14.4955 71.2694 14.4233 71.2694C14.3511 71.2694 14.161 71.3783 14.0012 71.5103C13.8414 71.6429 13.5433 71.837 13.3391 71.9416C12.4696 72.3863 12.116 72.6832 12.1154 72.9691C12.0432 92.2439 12.1265 108.135 12.3005 108.251C12.6504 108.484 63.977 108.435 64.0708 108.202C64.1917 107.9 64.172 72.9058 64.0504 72.6826C63.9918 72.5743 63.8795 72.4861 63.8011 72.4861C63.7228 72.4861 63.5278 72.3808 63.3679 72.2519C63.2081 72.1229 62.9008 71.9368 62.6854 71.8382C62.4695 71.7403 62.2683 71.5949 62.2368 71.5152C62.206 71.4361 62.0949 71.371 61.99 71.371C61.8845 71.371 61.6469 71.2426 61.4605 71.0851C61.2748 70.9281 60.9724 70.7402 60.7885 70.6672C60.6046 70.5948 60.4547 70.4962 60.4547 70.4488C60.4547 70.4013 60.2233 70.2645 59.94 70.1446C59.6574 70.0248 59.426 69.8654 59.426 69.7912C59.426 69.7164 59.2409 69.6062 59.0144 69.546C58.7886 69.4858 58.6034 69.3933 58.6034 69.3398C58.6034 69.2863 58.3936 69.1457 58.1375 69.0271C57.8808 68.9085 57.6149 68.7315 57.5457 68.6347C57.4766 68.5374 57.2699 68.4255 57.0866 68.3859C56.9027 68.3458 56.6942 68.2326 56.6238 68.1341C56.5529 68.0349 56.2752 67.8591 56.0061 67.7423C55.7377 67.6255 55.518 67.4874 55.518 67.4363C55.518 67.3852 55.3094 67.2648 55.0552 67.1687C54.8003 67.0732 54.5924 66.9314 54.5924 66.8548C54.5924 66.7781 54.4147 66.668 54.1968 66.6102C53.9796 66.5524 53.7198 66.4156 53.6192 66.3061C53.5187 66.196 53.2792 66.0554 53.0879 65.9934C52.896 65.9307 52.6948 65.7981 52.6412 65.6984C52.5869 65.5986 52.4005 65.4891 52.2271 65.455C52.0537 65.421 51.8038 65.278 51.6717 65.1375C51.5397 64.997 51.3607 64.882 51.2731 64.882C51.1861 64.882 50.9207 64.7226 50.6838 64.5273C50.4468 64.3321 50.1666 64.1727 50.0605 64.1727C49.955 64.1727 49.8229 64.0881 49.7668 63.9853C49.7106 63.8825 49.4545 63.7189 49.1978 63.6221C48.9405 63.5254 48.7301 63.4025 48.7301 63.3496C48.7301 63.2961 48.5264 63.1671 48.2784 63.0619C48.0303 62.9572 47.7946 62.8197 47.7557 62.7571C47.7162 62.6944 47.5015 62.5709 47.2781 62.4833C47.0553 62.3951 46.8295 62.2437 46.7764 62.1457C46.7233 62.0484 46.5382 61.9407 46.3648 61.9066C46.1914 61.8726 45.9446 61.7327 45.8162 61.5958C45.6879 61.4595 45.4564 61.3166 45.3028 61.2782C45.1485 61.2399 44.9659 61.1298 44.8961 61.0325C44.827 60.9352 44.6549 60.822 44.5129 60.78C44.3716 60.7387 44.0853 60.5726 43.8761 60.4108C43.6675 60.249 43.4515 60.117 43.396 60.117C43.3405 60.117 43.1609 60.0056 42.9974 59.87C42.8332 59.7343 42.5777 59.5932 42.429 59.5561C42.2803 59.5196 42.0853 59.3797 41.9965 59.2452C41.907 59.1114 41.7447 59.0019 41.6348 59.0019C41.525 59.0019 41.2831 58.8729 41.0967 58.716C40.911 58.559 40.6086 58.3704 40.4247 58.2981C40.2408 58.2257 40.0909 58.1089 40.0909 58.0389C40.0909 57.9689 39.9416 57.8826 39.7595 57.8467C39.5769 57.8108 39.2875 57.649 39.1165 57.4872C38.8006 57.1885 38.1267 57.0285 37.6738 57.1441ZM38.7586 63.5163C38.9258 63.6008 39.0622 63.7103 39.0622 63.7584C39.0622 63.8071 39.2412 63.9172 39.4602 64.0036C39.6793 64.0893 39.8823 64.2226 39.9119 64.2986C39.9416 64.3746 40.1612 64.5006 40.3994 64.5778C40.6376 64.6557 40.8555 64.7786 40.8838 64.8516C40.9122 64.924 41.1332 65.07 41.3738 65.1752C41.6151 65.2798 41.8447 65.4179 41.8841 65.4806C41.9236 65.5432 42.123 65.6637 42.3266 65.7476C42.5302 65.8316 42.7567 65.9843 42.8301 66.0877C42.9029 66.1905 43.0998 66.3018 43.2676 66.3347C43.4349 66.3681 43.6583 66.4861 43.7638 66.5981C43.8693 66.71 44.1248 66.8706 44.3315 66.9558C44.5382 67.0409 44.7449 67.1729 44.79 67.2496C44.8357 67.3256 45.0498 67.4449 45.2658 67.5142C45.4824 67.5836 45.6835 67.704 45.7144 67.7819C45.7446 67.8603 45.9612 68.0076 46.1957 68.1104C46.4296 68.2126 46.6832 68.3701 46.7585 68.4596C46.8338 68.5496 47.0535 68.6749 47.2466 68.7376C47.4404 68.8008 47.5983 68.8945 47.5983 68.9468C47.5983 68.9991 47.8458 69.1494 48.1482 69.2814C48.4505 69.4134 48.7251 69.591 48.7585 69.6762C48.7918 69.7614 48.9578 69.8611 49.1275 69.8976C49.2966 69.9347 49.4959 70.0363 49.5699 70.1239C49.6434 70.2115 49.9025 70.3673 50.1451 70.4695C50.3869 70.5723 50.6128 70.7256 50.6455 70.8107C50.6788 70.8959 50.7652 70.9653 50.8374 70.9653C51.038 70.9653 51.4995 71.2238 51.7248 71.4623C51.8352 71.5791 52.0111 71.6752 52.1154 71.6752C52.2191 71.6752 52.3653 71.7476 52.44 71.8358C52.514 71.9246 52.7757 72.09 53.0213 72.2038C53.2669 72.317 53.5106 72.4897 53.5631 72.5871C53.6161 72.6844 53.7951 72.7902 53.9611 72.8231C54.1271 72.8559 54.39 72.9989 54.5455 73.1406C54.701 73.2824 54.8843 73.3986 54.9528 73.3986C55.0219 73.3986 55.2527 73.5354 55.4662 73.7027C55.6797 73.87 55.9197 74.0069 55.9993 74.0069C56.0789 74.0069 56.2554 74.117 56.3918 74.2508C56.5282 74.3853 56.8034 74.5483 57.0039 74.614C57.2051 74.6791 57.3693 74.7752 57.3693 74.8275C57.3693 74.8798 57.5772 75.0216 57.8315 75.1439C58.0857 75.2655 58.3183 75.4413 58.348 75.5344C58.3782 75.6275 58.4942 75.7856 58.6059 75.8854C58.8058 76.0636 58.8089 76.2522 58.8089 89.3805V102.695L58.5306 102.875C58.1628 103.113 17.787 103.16 17.5463 102.923C17.3513 102.731 17.2946 76.4518 17.4883 75.8787C17.5889 75.5788 17.7228 75.4389 18.0813 75.257C18.3356 75.1274 18.6478 74.934 18.7749 74.8269C18.9021 74.7192 19.1686 74.5787 19.3667 74.5142C19.5648 74.4498 19.7271 74.3536 19.7271 74.3013C19.7271 74.2484 19.8542 74.1505 20.0097 74.0835C20.1652 74.0166 20.4547 73.8378 20.6527 73.6869C20.8502 73.5354 21.1365 73.3815 21.2877 73.345C21.4395 73.3091 21.5882 73.2148 21.6185 73.137C21.6493 73.0585 21.861 72.9204 22.0887 72.8304C22.317 72.741 22.504 72.6302 22.504 72.5858C22.504 72.5408 22.7002 72.4052 22.9409 72.2847C23.1815 72.1637 23.5351 71.9544 23.7277 71.8193C23.9196 71.6843 24.1578 71.5736 24.2565 71.5736C24.3552 71.5736 24.4632 71.5036 24.4966 71.4172C24.5305 71.3315 24.7335 71.183 24.9483 71.0881C25.1624 70.9926 25.45 70.812 25.5857 70.6866C25.7221 70.5613 25.9393 70.4585 26.0689 70.4585C26.2022 70.4585 26.3731 70.3557 26.4626 70.2207C26.5496 70.0899 26.8075 69.9274 27.0359 69.8599C27.2642 69.7924 27.4752 69.6756 27.5048 69.6002C27.5338 69.5247 27.7054 69.4061 27.885 69.3362C28.0645 69.2668 28.3274 69.1086 28.4687 68.9851C28.6107 68.8617 28.863 68.729 29.0303 68.6901C29.1969 68.6512 29.3919 68.5374 29.4629 68.4377C29.5338 68.3379 29.7442 68.1955 29.9306 68.1219C30.1163 68.0483 30.3996 67.8822 30.5594 67.7533C30.7192 67.6237 30.9142 67.5185 30.9926 67.5185C31.0704 67.5185 31.2407 67.4114 31.3703 67.2806C31.4998 67.1498 31.7677 66.9813 31.9657 66.9065C32.1638 66.8311 32.3638 66.7082 32.41 66.6334C32.4563 66.5585 32.6729 66.4265 32.8908 66.3407C33.1086 66.255 33.3104 66.1242 33.3388 66.0506C33.3678 65.977 33.5677 65.8596 33.7843 65.7896C34.0003 65.7196 34.2335 65.5834 34.3026 65.4873C34.3718 65.3905 34.6118 65.2397 34.8358 65.1515C35.0592 65.0633 35.2807 64.927 35.327 64.8497C35.3733 64.7719 35.5849 64.6526 35.7966 64.5845C36.0089 64.5164 36.1823 64.4197 36.1823 64.3692C36.1823 64.3187 36.4106 64.1635 36.6895 64.0242C36.9684 63.8849 37.2276 63.7213 37.2659 63.6605C37.4566 63.3563 38.2872 63.276 38.7586 63.5163ZM91.8741 67.6645C90.8553 67.8658 90.6918 67.9212 90.6918 68.0654C90.6918 68.1414 90.5622 68.2564 90.4043 68.3209C90.2413 68.3872 90.0667 68.5684 90.0019 68.7388C89.9384 68.9036 89.8174 69.0393 89.7323 69.0393C89.6311 69.0393 89.5539 69.1865 89.5058 69.47C89.4663 69.7072 89.3466 70.1288 89.2398 70.408C88.9708 71.1125 88.9412 89.0764 89.2071 90.5333C89.2935 91.0072 89.4064 91.8911 89.4576 92.4976C89.5206 93.2367 89.6033 93.6565 89.7088 93.7714C89.7952 93.8657 89.9408 94.2703 90.0328 94.6712C90.1247 95.072 90.2352 95.3999 90.279 95.3999C90.3222 95.3999 90.461 95.6396 90.5869 95.9322C90.7134 96.2248 90.8985 96.5558 90.9991 96.6671C91.0997 96.779 91.217 96.984 91.2595 97.1233C91.3021 97.2632 91.4218 97.4682 91.5255 97.5796C92.2018 98.3053 92.337 98.4671 92.337 98.5505C92.337 98.6022 92.3795 98.6441 92.4314 98.6441C92.4838 98.6441 92.6788 98.8041 92.8658 98.9994C93.0522 99.1941 93.2558 99.3541 93.3181 99.3541C93.3805 99.3541 93.5323 99.4684 93.6551 99.6077C93.7779 99.747 93.942 99.8608 94.0191 99.8608C94.0969 99.8608 94.3351 99.9977 94.5486 100.165C94.7621 100.332 95.0163 100.469 95.1138 100.469C95.2113 100.469 95.4668 100.587 95.6816 100.731C95.905 100.88 96.3412 101.037 96.6991 101.096C97.0435 101.153 97.4872 101.298 97.6852 101.418C98.2449 101.756 103.48 101.753 104.113 101.415C104.339 101.295 104.802 101.141 105.141 101.076C105.481 101.01 105.851 100.873 105.965 100.772C106.078 100.672 106.369 100.537 106.613 100.473C106.856 100.41 107.079 100.295 107.109 100.22C107.138 100.144 107.295 100.028 107.458 99.9612C107.621 99.8949 107.825 99.7343 107.911 99.6047C107.997 99.4751 108.231 99.3109 108.43 99.2397C108.63 99.1685 108.793 99.0529 108.793 98.9824C108.793 98.9118 108.889 98.8035 109.006 98.7415C109.295 98.5894 109.974 97.9111 110.061 97.6891C110.099 97.5905 110.211 97.4889 110.31 97.4628C110.409 97.4372 110.601 97.1933 110.738 96.9207C110.959 96.4815 111.033 96.4183 111.399 96.3574C111.996 96.2577 112.083 96.425 112.086 97.6751C112.089 98.9215 112.183 99.351 112.534 99.7239C112.682 99.8821 112.804 100.067 112.804 100.135C112.804 100.203 112.908 100.312 113.035 100.377C113.162 100.441 113.383 100.597 113.524 100.723C114.24 101.361 117.328 101.404 117.844 100.783C117.928 100.681 118.073 100.557 118.166 100.508C118.527 100.316 119.06 99.5548 119.131 99.1272C119.171 98.8893 119.302 98.4896 119.423 98.239L119.643 97.7827V83.9768V70.1714L119.416 69.869C119.292 69.7024 119.161 69.4548 119.126 69.3179C119.07 69.0989 118.867 68.8708 118.013 68.0714C117.378 67.4759 114.55 67.4473 113.884 68.0301C113.186 68.6396 112.804 69.0861 112.696 69.4195C112.628 69.6288 112.497 69.8843 112.405 69.9877C112.255 70.1568 112.233 71.0942 112.184 79.5688C112.131 88.9352 112.114 89.3635 111.787 89.5624C111.731 89.5971 111.652 89.841 111.613 90.1051C111.535 90.6361 111.358 91.0376 111.114 91.2378C111.025 91.3101 110.953 91.4574 110.953 91.5644C110.953 91.6721 110.837 91.8656 110.695 91.9945C110.554 92.1235 110.439 92.2604 110.439 92.2987C110.439 92.4349 109.028 93.7775 108.885 93.7775C108.805 93.7775 108.685 93.8633 108.619 93.9679C108.553 94.072 108.375 94.1881 108.224 94.2259C108.073 94.263 107.823 94.3858 107.668 94.499C107.364 94.7204 106.77 94.8865 106.269 94.8908C106.097 94.892 105.775 94.9844 105.553 95.0958C105.031 95.358 104.126 95.3616 103.004 95.1061C102.539 95.0003 101.885 94.864 101.551 94.8038C101.216 94.7435 100.846 94.6079 100.728 94.5027C100.61 94.3974 100.378 94.2794 100.212 94.2405C99.7253 94.1267 98.5183 93.0889 98.111 92.4343C97.9808 92.2251 97.8333 92.0541 97.7833 92.0541C97.734 92.0541 97.642 91.8601 97.5791 91.6234C97.5162 91.3862 97.4001 91.1429 97.3218 91.0826C97.1144 90.9233 96.9651 90.478 96.9651 90.0168C96.9651 89.7954 96.838 89.3307 96.6825 88.9839L96.3999 88.3537L96.348 79.0025L96.2968 69.6513L96.0771 69.4998C95.9562 69.4165 95.8303 69.2406 95.797 69.1092C95.7636 68.9785 95.4606 68.6347 95.1243 68.3464C94.2697 67.6134 93.233 67.3956 91.8741 67.6645ZM126.59 67.6821C125.736 67.8348 124.788 68.566 124.663 69.1695C124.63 69.3246 124.506 69.5199 124.386 69.6026C124.053 69.8319 124.056 71.8644 124.39 72.171C124.531 72.3005 124.636 72.5603 124.683 72.8918C124.723 73.1808 124.837 73.4862 124.94 73.5817C125.041 73.6766 125.197 73.9947 125.285 74.2898C125.373 74.5848 125.534 74.9376 125.643 75.0745C125.753 75.2108 125.873 75.5277 125.911 75.7783C125.949 76.029 126.05 76.2723 126.135 76.3191C126.293 76.4067 126.573 77.068 126.581 77.3746C126.583 77.4701 126.675 77.5954 126.784 77.6532C126.913 77.7213 127.023 77.9495 127.098 78.3072C127.162 78.6089 127.278 78.8808 127.358 78.9106C127.437 78.941 127.579 79.23 127.672 79.553C127.766 79.8766 127.927 80.2325 128.03 80.3438C128.134 80.4552 128.263 80.7435 128.318 80.985C128.373 81.2259 128.494 81.5057 128.586 81.6067C128.679 81.7071 128.803 81.9662 128.862 82.1822C128.92 82.3982 129.076 82.734 129.207 82.9292C129.338 83.1245 129.478 83.4372 129.518 83.6245C129.557 83.8119 129.7 84.1258 129.836 84.3229C129.971 84.52 130.082 84.7737 130.082 84.8862C130.082 84.9988 130.215 85.3005 130.379 85.5566C130.542 85.8121 130.705 86.1862 130.741 86.3876C130.777 86.5895 130.895 86.8341 131.005 86.932C131.115 87.0294 131.235 87.308 131.272 87.5513C131.31 87.8038 131.444 88.1049 131.585 88.2545C131.72 88.3981 131.83 88.6256 131.83 88.7594C131.83 89.0338 132.03 89.5192 132.143 89.5192C132.233 89.5192 132.412 89.9609 132.499 90.3958C132.533 90.5716 132.65 90.7931 132.757 90.8892C132.865 90.9847 133.004 91.3089 133.067 91.6094C133.131 91.91 133.224 92.1557 133.275 92.1557C133.413 92.1557 133.682 92.7166 133.682 93.0043C133.682 93.1424 133.794 93.3864 133.93 93.5464C134.067 93.7064 134.212 94.0178 134.252 94.2386C134.291 94.4589 134.414 94.7369 134.524 94.8555C134.634 94.9747 134.792 95.33 134.876 95.6457C134.959 95.9614 135.112 96.3027 135.215 96.4043C135.318 96.5065 135.435 96.8009 135.474 97.0588C135.52 97.3587 135.614 97.5644 135.734 97.6282C135.843 97.6854 135.974 97.9385 136.045 98.228C136.112 98.5036 136.253 98.8066 136.359 98.9009C136.465 98.9951 136.604 99.3182 136.667 99.6187C136.73 99.9192 136.818 100.165 136.861 100.165C137.169 100.165 137.263 101.146 136.988 101.495C136.883 101.628 136.741 101.907 136.671 102.116C136.603 102.325 136.486 102.53 136.413 102.572C136.341 102.615 136.199 102.809 136.098 103.004C135.92 103.351 135.8 103.499 135.282 104.018C134.732 104.568 134.384 104.83 134.116 104.893C133.962 104.929 133.756 105.041 133.658 105.141C133.27 105.538 130.595 105.54 129.944 105.143C129.126 104.645 126.465 104.634 126.056 105.128C125.963 105.241 125.772 105.376 125.632 105.429C125.481 105.485 125.348 105.638 125.306 105.804C125.267 105.957 125.122 106.215 124.984 106.376C124.597 106.83 124.609 108.417 125.003 108.837C125.15 108.994 125.314 109.242 125.366 109.389C125.418 109.536 125.599 109.736 125.769 109.835C125.938 109.934 126.167 110.11 126.277 110.227C126.414 110.371 126.681 110.465 127.123 110.524C127.495 110.573 127.817 110.676 127.885 110.765C128.009 110.929 128.686 111.058 130.031 111.172C130.483 111.21 131.039 111.316 131.265 111.407C131.867 111.648 134.081 111.639 134.689 111.393C134.932 111.295 135.464 111.168 135.871 111.111C136.358 111.043 136.736 110.923 136.974 110.759C137.174 110.623 137.489 110.481 137.674 110.444C137.858 110.409 138.053 110.297 138.108 110.196C138.162 110.096 138.311 109.982 138.438 109.943C138.566 109.904 138.823 109.73 139.01 109.556C140.095 108.546 140.481 108.144 140.624 107.871C140.711 107.704 140.831 107.566 140.889 107.566C140.947 107.566 141.063 107.405 141.146 107.207C141.23 107.01 141.367 106.822 141.449 106.791C141.532 106.76 141.655 106.552 141.723 106.328C141.791 106.105 141.93 105.87 142.032 105.807C142.134 105.745 142.291 105.475 142.381 105.209C142.471 104.943 142.626 104.682 142.727 104.629C142.84 104.569 142.932 104.367 142.969 104.099C143.003 103.848 143.112 103.598 143.227 103.506C143.337 103.419 143.503 103.089 143.595 102.774C143.688 102.459 143.832 102.164 143.915 102.118C143.998 102.072 144.113 101.792 144.17 101.495C144.229 101.188 144.384 100.827 144.531 100.655C144.694 100.464 144.789 100.228 144.789 100.013C144.789 99.8036 144.883 99.5639 145.034 99.3869C145.169 99.2294 145.333 98.8388 145.401 98.5188C145.469 98.1988 145.592 97.8989 145.675 97.8527C145.759 97.8071 145.891 97.5005 145.968 97.1726C146.046 96.8441 146.188 96.5186 146.284 96.4493C146.381 96.3799 146.5 96.1038 146.551 95.8361C146.602 95.5684 146.735 95.2253 146.848 95.0739C146.96 94.923 147.101 94.5738 147.161 94.2983C147.221 94.0233 147.36 93.7179 147.47 93.62C147.58 93.522 147.669 93.3639 147.669 93.2677C147.669 92.9891 147.965 92.2378 148.124 92.1156C148.203 92.0541 148.323 91.7384 148.389 91.4142C148.455 91.0899 148.571 90.801 148.647 90.7724C148.722 90.7444 148.838 90.4956 148.905 90.22C148.972 89.9451 149.132 89.5685 149.259 89.383C149.386 89.1974 149.525 88.8671 149.565 88.6493C149.606 88.4309 149.726 88.1608 149.831 88.0495C149.936 87.9376 150.073 87.6255 150.134 87.356C150.195 87.0859 150.36 86.699 150.5 86.4958C150.64 86.2927 150.755 86.0201 150.755 85.89C150.755 85.6156 150.933 85.2433 151.117 85.1362C151.188 85.0949 151.276 84.8588 151.314 84.6106C151.351 84.3631 151.462 84.054 151.561 83.9251C151.81 83.5966 151.989 83.1646 151.989 82.8885C151.989 82.7601 152.098 82.5387 152.231 82.3969C152.364 82.2552 152.505 81.9413 152.545 81.6992C152.584 81.4565 152.703 81.1669 152.808 81.055C152.914 80.9424 153.067 80.5945 153.149 80.2806C153.232 79.9673 153.397 79.6138 153.518 79.4952C153.668 79.3468 153.737 79.1521 153.737 78.8729C153.737 78.5681 153.8 78.413 153.99 78.25C154.16 78.1046 154.266 77.8789 154.311 77.5662C154.348 77.3095 154.49 76.953 154.626 76.7736C154.762 76.5941 154.913 76.2376 154.962 75.9809C155.011 75.7242 155.141 75.4304 155.253 75.3276C155.376 75.215 155.483 74.9401 155.525 74.6353C155.562 74.3573 155.663 74.0714 155.75 74.0008C155.955 73.8329 156.205 73.2404 156.205 72.9235C156.205 72.6509 156.379 72.2732 156.555 72.1606C156.751 72.0347 156.705 69.7547 156.503 69.644C156.413 69.5935 156.263 69.3574 156.17 69.1184C155.407 67.1547 151.441 67.0148 150.46 68.9176C150.382 69.0679 150.235 69.2826 150.134 69.3939C150.033 69.5053 149.871 69.8703 149.776 70.2048C149.681 70.5394 149.542 70.8612 149.468 70.9196C149.394 70.9774 149.283 71.2931 149.221 71.621C149.16 71.9483 149.039 72.2932 148.953 72.3869C148.866 72.4812 148.71 72.8626 148.605 73.2349C148.5 73.6078 148.347 73.9905 148.265 74.0866C148.182 74.1821 148.056 74.5258 147.986 74.85C147.915 75.1743 147.794 75.4632 147.717 75.493C147.639 75.5222 147.544 75.7577 147.504 76.0168C147.422 76.5625 147.206 77.1161 147.056 77.1659C147 77.1854 146.906 77.4518 146.847 77.7584C146.788 78.065 146.647 78.4434 146.531 78.5992C146.415 78.7543 146.279 79.1302 146.229 79.4338C146.179 79.7373 146.049 80.0798 145.939 80.1954C145.83 80.3104 145.689 80.662 145.625 80.9765C145.561 81.291 145.422 81.6426 145.316 81.757C145.209 81.872 145.074 82.2485 145.014 82.5934C144.947 82.9803 144.824 83.3009 144.693 83.4299C144.576 83.5449 144.481 83.7462 144.481 83.877C144.481 84.2055 144.279 84.7572 144.055 85.0444C143.952 85.1758 143.837 85.5134 143.799 85.7944C143.761 86.0755 143.647 86.387 143.546 86.4873C143.444 86.5871 143.332 86.8432 143.295 87.0549C143.185 87.6991 143.043 88.0665 142.831 88.2557C142.711 88.3628 142.629 88.5666 142.629 88.7594C142.629 89.136 142.442 89.7224 142.321 89.7224C142.207 89.7224 142.012 90.2997 142.012 90.6361C142.012 90.7876 141.926 91.0206 141.822 91.1532C141.717 91.2864 141.572 91.5778 141.5 91.8005C141.335 92.3084 141.215 92.4599 140.976 92.4599C140.697 92.4599 140.087 91.6125 140.006 91.1124C139.968 90.8776 139.831 90.5254 139.701 90.3307C139.572 90.1355 139.411 89.7504 139.345 89.4754C139.278 89.2005 139.157 88.9267 139.076 88.8671C138.995 88.8075 138.882 88.5106 138.824 88.2065C138.766 87.9029 138.633 87.5604 138.529 87.4461C138.424 87.3317 138.284 87.0172 138.217 86.7477C138.151 86.4776 138.001 86.129 137.883 85.9727C137.766 85.8163 137.629 85.4702 137.579 85.2032C137.528 84.9361 137.399 84.6374 137.292 84.5389C137.179 84.4354 137.067 84.1465 137.026 83.8527C136.981 83.5339 136.866 83.2498 136.713 83.0886C136.571 82.9371 136.442 82.6372 136.4 82.3598C136.36 82.1007 136.24 81.8014 136.132 81.6949C136.024 81.5885 135.888 81.2411 135.828 80.9224C135.77 80.6042 135.633 80.2502 135.525 80.1352C135.417 80.0202 135.287 79.7093 135.237 79.4447C135.187 79.1795 135.048 78.8607 134.929 78.7354C134.81 78.6107 134.665 78.2621 134.607 77.961C134.55 77.6605 134.412 77.3198 134.303 77.2049C134.193 77.0899 134.072 76.7979 134.032 76.5564C133.993 76.3149 133.851 75.9894 133.718 75.8325C133.584 75.6755 133.428 75.3069 133.372 75.0118C133.315 74.7174 133.182 74.3974 133.077 74.3007C132.971 74.2034 132.853 73.9497 132.813 73.7362C132.774 73.5227 132.634 73.1881 132.501 72.9934C132.369 72.7981 132.23 72.4471 132.192 72.2141C132.154 71.9806 132.036 71.691 131.931 71.5705C131.825 71.4507 131.687 71.1106 131.626 70.815C131.563 70.52 131.429 70.2042 131.327 70.1136C131.226 70.023 131.079 69.7589 131.002 69.5272C130.924 69.2954 130.755 69.0016 130.626 68.8744C130.496 68.7467 130.391 68.594 130.391 68.5344C130.391 68.4748 130.275 68.3823 130.133 68.3294C129.992 68.2764 129.877 68.1663 129.877 68.0854C129.877 67.9114 129.79 67.8829 128.657 67.6754C127.676 67.496 127.629 67.4966 126.59 67.6821ZM214.109 68.4164C213.797 68.4547 213.424 68.5648 213.279 68.6609C213.132 68.757 212.625 68.8848 212.147 68.9456C211.611 69.0131 211.174 69.1287 211.004 69.2479C210.852 69.3538 210.506 69.4901 210.235 69.5497C209.964 69.6093 209.66 69.7456 209.56 69.852C209.459 69.9579 209.184 70.102 208.949 70.1714C208.714 70.2407 208.415 70.4025 208.286 70.5303C208.156 70.658 207.985 70.7627 207.907 70.7627C207.828 70.7627 207.684 70.8497 207.586 70.9561C207.489 71.0626 207.268 71.2068 207.097 71.2767C206.749 71.4185 206.669 71.4866 205.186 72.8857C204.607 73.4326 204.132 73.9284 204.132 73.9874C204.132 74.0464 204.037 74.1249 203.921 74.1608C203.805 74.1973 203.634 74.3828 203.542 74.5732C203.45 74.7636 203.321 74.9194 203.255 74.9194C203.19 74.9194 203.083 75.0976 203.017 75.3148C202.951 75.532 202.826 75.7364 202.74 75.7686C202.654 75.8015 202.495 76.0338 202.385 76.2863C202.276 76.5381 202.139 76.7444 202.082 76.7444C202.025 76.7444 201.905 76.995 201.814 77.301C201.724 77.607 201.591 77.8923 201.52 77.9349C201.363 78.0273 201.15 78.6065 201.15 78.9398C201.15 79.0706 201.046 79.2799 200.919 79.4052C200.738 79.5834 200.663 79.8347 200.567 80.5799C200.484 81.2247 200.385 81.5933 200.258 81.732C199.966 82.0502 199.97 87.9698 200.262 88.2886C200.4 88.4382 200.483 88.7661 200.556 89.4383C200.636 90.1695 200.71 90.439 200.89 90.6495C201.027 90.8101 201.149 91.1295 201.19 91.4349C201.234 91.767 201.346 92.042 201.505 92.2111C201.641 92.3546 201.782 92.6552 201.821 92.8784C201.859 93.1023 201.958 93.3109 202.042 93.3426C202.126 93.3742 202.312 93.6449 202.455 93.9436C202.599 94.2429 202.757 94.4874 202.806 94.4874C202.855 94.4874 202.963 94.6468 203.046 94.8421C203.128 95.0374 203.242 95.1974 203.297 95.1974C203.353 95.1974 203.425 95.2789 203.457 95.3792C203.489 95.479 203.684 95.7412 203.891 95.962C204.63 96.7522 205.367 97.4841 205.749 97.8077C205.963 97.9884 206.295 98.2737 206.487 98.441C206.68 98.6089 206.901 98.7457 206.979 98.7457C207.057 98.7457 207.15 98.8187 207.184 98.9075C207.219 98.997 207.458 99.1588 207.714 99.2671C207.972 99.376 208.242 99.5499 208.316 99.654C208.39 99.758 208.63 99.873 208.85 99.9095C209.083 99.9484 209.34 100.079 209.467 100.223C209.603 100.377 209.795 100.469 209.979 100.469C210.335 100.469 210.92 100.66 210.92 100.776C210.92 100.896 211.489 101.051 212.206 101.127C212.545 101.164 213.008 101.293 213.234 101.414C213.865 101.753 219.687 101.757 220.331 101.419C220.557 101.301 221.074 101.149 221.479 101.082C221.954 101.004 222.279 100.892 222.393 100.767C222.499 100.652 222.779 100.546 223.086 100.507C223.381 100.468 223.685 100.356 223.798 100.245C223.907 100.138 224.206 99.9873 224.463 99.9113C224.72 99.8352 224.995 99.6819 225.073 99.5712C225.152 99.4605 225.349 99.3413 225.511 99.3066C225.672 99.2713 225.904 99.1308 226.024 98.9939C226.144 98.8577 226.312 98.7457 226.395 98.7457C226.479 98.7457 226.624 98.632 226.717 98.4921C226.81 98.3528 226.945 98.239 227.019 98.239C227.093 98.239 227.346 98.0565 227.582 97.8332C227.817 97.61 228.05 97.4275 228.099 97.4275C228.147 97.4275 228.269 97.2906 228.37 97.1233C228.47 96.956 228.613 96.8192 228.687 96.8192C228.761 96.8192 228.851 96.7395 228.887 96.6421C228.923 96.5442 229.134 96.2589 229.356 96.0083C229.578 95.757 229.883 95.4036 230.034 95.2217C230.184 95.0404 230.407 94.78 230.529 94.6432C230.652 94.5069 230.784 94.252 230.822 94.0768C230.861 93.9016 231 93.6674 231.13 93.5555C231.261 93.4436 231.399 93.1856 231.437 92.9818C231.475 92.778 231.598 92.5146 231.71 92.396C231.822 92.2774 231.977 91.9422 232.055 91.6508C232.133 91.3594 232.272 91.0388 232.365 90.9385C232.456 90.8375 232.581 90.4214 232.64 90.0108C232.7 89.6014 232.835 89.125 232.94 88.9529C233.464 88.0957 233.459 81.9194 232.934 81.0538C232.832 80.8865 232.701 80.4193 232.642 80.0159C232.578 79.5731 232.455 79.1819 232.333 79.0286C232.221 78.8887 232.099 78.5693 232.061 78.3175C232.022 78.0626 231.88 77.7305 231.74 77.5662C231.602 77.4044 231.461 77.1337 231.427 76.9646C231.392 76.7955 231.254 76.5558 231.12 76.4311C230.985 76.307 230.847 76.0557 230.813 75.8738C230.778 75.6913 230.687 75.5186 230.611 75.4894C230.534 75.4608 230.4 75.2996 230.312 75.1317C230.224 74.9638 230.048 74.7162 229.921 74.5818C229.374 74.002 229.166 73.7636 229.021 73.5519C228.937 73.4278 228.474 72.9995 227.993 72.6004C227.512 72.2014 226.994 71.7616 226.842 71.6229C226.69 71.4842 226.447 71.3266 226.302 71.2718C226.157 71.2177 226.039 71.124 226.039 71.0644C226.039 71.0042 225.876 70.888 225.677 70.8059C225.477 70.7237 225.228 70.5717 225.123 70.4682C225.018 70.3648 224.695 70.2024 224.406 70.1081C224.117 70.0132 223.844 69.8715 223.799 69.793C223.755 69.7145 223.473 69.6044 223.173 69.5485C222.873 69.4925 222.551 69.3605 222.457 69.2546C222.332 69.1153 222.032 69.0308 221.359 68.9456C220.718 68.8641 220.34 68.7607 220.128 68.6098C219.804 68.378 215.534 68.2406 214.109 68.4164ZM255.25 68.6378C254.941 68.7473 254.303 68.8921 253.833 68.959C253.296 69.0356 252.905 69.1476 252.782 69.2607C252.674 69.3599 252.364 69.4895 252.091 69.5491C251.819 69.6081 251.527 69.7364 251.442 69.8338C251.357 69.9311 251.103 70.0722 250.876 70.1477C250.65 70.2231 250.341 70.3806 250.188 70.4981C250.037 70.6161 249.69 70.8704 249.417 71.0644C249.145 71.2585 248.786 71.5438 248.62 71.6983C248.454 71.8528 248.262 71.9793 248.195 71.9793C248.127 71.9793 247.998 72.09 247.908 72.2251C247.819 72.3601 247.663 72.497 247.562 72.5293C247.462 72.5609 247.301 72.7239 247.204 72.8918C247.108 73.0591 246.958 73.196 246.87 73.196C246.783 73.196 246.711 73.2574 246.711 73.3329C246.711 73.4083 246.584 73.6072 246.429 73.7751C245.908 74.3354 245.374 75.0477 245.374 75.1804C245.374 75.2521 245.293 75.3373 245.194 75.3683C245.095 75.4 244.927 75.6348 244.82 75.8903C244.714 76.1464 244.564 76.3794 244.487 76.4086C244.411 76.4378 244.296 76.6507 244.234 76.8818C244.082 77.4445 243.871 77.6569 243.462 77.6569C242.98 77.6569 242.998 77.8077 243.006 73.7836C243.015 69.341 242.974 69.0922 242.219 68.9803C241.586 68.8866 241.036 68.9931 240.823 69.2498C240.645 69.4651 240.528 100.088 240.703 100.73C240.806 101.108 241.901 101.32 242.533 101.082C242.988 100.912 243.007 100.621 243.012 93.8791C243.015 90.394 243.062 87.2003 243.115 86.7818C243.168 86.3638 243.281 85.3187 243.366 84.4604C243.462 83.4798 243.576 82.8136 243.672 82.6689C243.757 82.5423 243.893 82.1177 243.976 81.7253C244.059 81.333 244.218 80.8846 244.33 80.7283C244.441 80.5726 244.564 80.2648 244.602 80.0439C244.64 79.8237 244.783 79.5123 244.92 79.3523C245.057 79.1917 245.168 78.9745 245.168 78.8692C245.168 78.764 245.297 78.528 245.455 78.3449C245.613 78.1618 245.797 77.8862 245.864 77.7329C245.932 77.5796 246.034 77.4543 246.09 77.4543C246.148 77.4543 246.259 77.3058 246.34 77.1246C246.42 76.9433 246.725 76.5454 247.017 76.2407C247.31 75.9353 247.581 75.6348 247.619 75.5721C247.657 75.5095 247.943 75.243 248.254 74.9796C248.565 74.7168 248.947 74.3901 249.104 74.2545C249.261 74.1182 249.456 74.0069 249.537 74.0069C249.619 74.0069 249.824 73.8743 249.993 73.7125C250.161 73.55 250.443 73.3864 250.62 73.3481C250.797 73.3097 250.967 73.2148 250.997 73.137C251.027 73.0591 251.244 72.946 251.478 72.8851C251.713 72.8243 252.067 72.6674 252.265 72.536C252.463 72.4052 252.81 72.2659 253.036 72.2269C253.263 72.188 253.679 72.0529 253.962 71.9258C254.335 71.7585 254.768 71.6764 255.545 71.6253C257.391 71.5042 258.075 70.9117 257.877 69.6069C257.712 68.5222 256.666 68.1359 255.25 68.6378ZM179.725 70.7055C180.11 70.7852 180.889 70.9233 181.454 71.0121C182.117 71.1155 182.585 71.2463 182.769 71.3783C182.926 71.4915 183.285 71.6107 183.567 71.6435C183.881 71.6806 184.183 71.792 184.349 71.9331C184.499 72.059 184.754 72.1886 184.918 72.2208C185.081 72.2531 185.317 72.3845 185.443 72.5128C185.569 72.6406 185.8 72.8012 185.957 72.8687C186.114 72.9362 186.27 73.0603 186.302 73.1443C186.335 73.2288 186.43 73.2976 186.514 73.2976C186.597 73.2976 187.15 73.7879 187.742 74.3871C189.184 75.8471 189.219 75.8866 189.219 76.0211C189.219 76.0849 189.334 76.2358 189.474 76.3556C189.614 76.4755 189.783 76.7377 189.849 76.9378C189.915 77.1386 190.073 77.4245 190.199 77.5735C190.324 77.7232 190.46 78.0152 190.5 78.2226C190.539 78.43 190.658 78.6728 190.764 78.7622C190.877 78.8571 191 79.1661 191.061 79.5068C191.119 79.8268 191.257 80.2149 191.367 80.3682C191.52 80.5811 191.593 80.9345 191.67 81.8428C191.725 82.4997 191.826 83.1026 191.893 83.1823C192.203 83.5497 192.231 86.6887 191.928 87.1656C191.809 87.353 191.604 88.8525 191.588 89.6464C191.586 89.7437 191.495 89.9122 191.385 90.0211C191.27 90.1336 191.121 90.5211 191.037 90.9214C190.946 91.3515 190.805 91.708 190.671 91.8394C190.552 91.9574 190.453 92.1648 190.453 92.2999C190.453 92.4349 190.343 92.6746 190.208 92.8328C190.073 92.991 189.888 93.2799 189.796 93.4746C189.455 94.1979 188.478 95.3093 187.333 96.2753C187.042 96.5217 186.71 96.8076 186.597 96.9098C186.484 97.0126 186.233 97.1483 186.041 97.2115C185.848 97.2748 185.627 97.4159 185.549 97.5254C185.472 97.6343 185.236 97.7536 185.026 97.7901C184.815 97.8272 184.568 97.9494 184.476 98.0626C184.361 98.2061 184.118 98.2944 183.677 98.354C183.317 98.4026 182.92 98.5292 182.757 98.6478C182.545 98.8023 182.208 98.8814 181.449 98.9538C180.886 99.0073 180.102 99.1028 179.708 99.1655C179.181 99.2488 178.728 99.2494 178.011 99.1679C177.472 99.1065 176.597 99.011 176.065 98.955C175.334 98.879 175.045 98.8041 174.878 98.649C174.737 98.5188 174.423 98.413 174.017 98.3582C173.611 98.3035 173.295 98.1964 173.149 98.0638C173.022 97.9488 172.77 97.8241 172.589 97.7864C172.408 97.7487 172.09 97.5844 171.881 97.4208C171.672 97.2572 171.443 97.1233 171.373 97.1233C171.303 97.1233 171.169 97.0096 171.076 96.8703C170.984 96.731 170.828 96.616 170.73 96.6148C170.495 96.6123 168.577 94.8816 168.158 94.2934C168.061 94.1577 167.88 93.9497 167.757 93.8311C167.634 93.7124 167.502 93.4953 167.465 93.3493C167.428 93.2027 167.329 93.0573 167.247 93.0256C167.165 92.9946 167.007 92.7689 166.897 92.525C166.788 92.281 166.632 92.0268 166.552 91.9611C166.471 91.8954 166.35 91.6149 166.283 91.3387C166.216 91.062 166.093 90.7992 166.011 90.7535C165.929 90.7079 165.792 90.3374 165.706 89.9299C165.62 89.5217 165.46 89.0679 165.35 88.9212C164.838 88.2387 164.937 80.8001 165.458 80.8001C165.504 80.8001 165.598 80.5032 165.668 80.14C165.737 79.7769 165.874 79.3772 165.973 79.2525C166.071 79.1278 166.211 78.8431 166.282 78.6204C166.354 78.3972 166.492 78.1234 166.589 78.0121C166.686 77.9002 166.844 77.638 166.941 77.4287C167.038 77.2201 167.163 77.0485 167.22 77.0485C167.277 77.0485 167.39 76.8916 167.471 76.6993C167.553 76.5071 167.682 76.3137 167.758 76.2686C167.834 76.2236 167.939 76.1117 167.99 76.0205C168.236 75.5837 168.933 74.8312 169.62 74.2606C169.889 74.0373 170.209 73.7587 170.331 73.6407C170.452 73.5233 170.657 73.3949 170.784 73.3554C170.912 73.3158 171.015 73.2234 171.015 73.1498C171.015 73.0755 171.212 72.9381 171.453 72.8438C171.693 72.7501 171.982 72.5907 172.095 72.4909C172.209 72.3906 172.475 72.2537 172.687 72.1868C172.899 72.1199 173.073 72.0286 173.073 71.9836C173.073 71.8771 173.535 71.7013 174.049 71.6125C174.276 71.5736 174.576 71.4592 174.718 71.3576C174.863 71.2536 175.402 71.1027 175.952 71.0127C176.489 70.9245 177.207 70.7901 177.546 70.7146C178.363 70.5321 178.88 70.5297 179.725 70.7055ZM218.227 70.8071C218.479 70.8886 219.123 71.0054 219.658 71.0662C220.267 71.1362 220.749 71.2499 220.948 71.371C221.123 71.4775 221.465 71.5961 221.707 71.6344C221.951 71.6727 222.273 71.8047 222.423 71.9276C222.573 72.0505 222.815 72.1801 222.96 72.2148C223.105 72.2494 223.337 72.376 223.474 72.4964C223.612 72.6163 223.865 72.7738 224.035 72.8456C224.206 72.9174 224.433 73.0713 224.54 73.1875C224.647 73.3037 224.774 73.3986 224.824 73.3986C224.924 73.3986 225.261 73.7003 226.268 74.6937C227.342 75.7534 227.444 75.8678 227.519 76.1014C227.557 76.2218 227.654 76.3447 227.735 76.3751C227.814 76.4055 227.956 76.5765 228.05 76.7559C228.144 76.9348 228.332 77.1988 228.467 77.343C228.602 77.4865 228.713 77.708 228.713 77.8339C228.713 77.9604 228.823 78.1587 228.958 78.2737C229.125 78.4173 229.224 78.6387 229.269 78.9721C229.304 79.2409 229.407 79.5208 229.497 79.5938C229.727 79.7823 229.841 80.1267 229.946 80.9443C230.009 81.4358 230.093 81.6955 230.221 81.788C230.586 82.0514 230.595 88.0799 230.231 88.4766C230.129 88.5873 229.987 89.0362 229.903 89.5131C229.809 90.0448 229.68 90.4348 229.552 90.571C229.442 90.6897 229.32 90.9768 229.282 91.2086C229.243 91.4409 229.123 91.7104 229.013 91.8078C228.904 91.9051 228.769 92.1533 228.713 92.3595C228.656 92.5657 228.494 92.8571 228.353 93.0074C228.212 93.1582 228.096 93.3407 228.096 93.4131C228.096 93.4855 227.968 93.6863 227.813 93.859C227.657 94.0324 227.368 94.3822 227.17 94.6365C226.972 94.8914 226.752 95.1554 226.68 95.2241C226.012 95.8647 225.4 96.3708 225.036 96.5831C224.795 96.7237 224.599 96.8745 224.599 96.9183C224.599 96.9615 224.449 97.0582 224.265 97.1324C224.081 97.2073 223.846 97.3721 223.743 97.4999C223.63 97.6404 223.392 97.7578 223.142 97.7967C222.915 97.8326 222.643 97.9525 222.539 98.0626C222.435 98.1721 222.139 98.3017 221.88 98.3491C221.622 98.3966 221.276 98.534 221.11 98.6551C220.877 98.8248 220.544 98.9021 219.644 98.997C219.003 99.0645 218.347 99.1734 218.186 99.2385C217.644 99.4575 215.561 99.5019 215.034 99.306C214.779 99.2117 214.135 99.07 213.601 98.9915C212.911 98.8893 212.568 98.7889 212.409 98.6423C212.272 98.5146 211.977 98.4112 211.64 98.3722C211.306 98.3327 211.016 98.2317 210.894 98.1119C210.785 98.0042 210.491 97.8472 210.242 97.7639C209.993 97.6799 209.789 97.5674 209.789 97.5139C209.789 97.4603 209.592 97.3302 209.352 97.2243C209.112 97.1191 208.857 96.939 208.785 96.8246C208.714 96.7103 208.597 96.6166 208.525 96.6166C208.454 96.6166 208.243 96.4797 208.057 96.3124C207.871 96.1451 207.679 96.0083 207.63 96.0083C207.581 96.0083 207.514 95.9286 207.482 95.8306C207.45 95.7333 207.285 95.5757 207.115 95.4808C206.946 95.3859 206.806 95.2405 206.806 95.1578C206.806 95.0757 206.716 94.9796 206.606 94.9455C206.496 94.9108 206.377 94.7922 206.341 94.6821C206.306 94.572 206.164 94.4096 206.027 94.3208C205.89 94.2326 205.778 94.0817 205.778 93.9856C205.778 93.8895 205.637 93.6881 205.466 93.5372C205.294 93.3864 205.126 93.1266 205.092 92.9593C205.059 92.792 204.95 92.6126 204.851 92.5603C204.751 92.5079 204.638 92.3382 204.599 92.1837C204.56 92.0286 204.398 91.708 204.239 91.4714C204.08 91.2341 203.919 90.8357 203.881 90.5856C203.842 90.3307 203.739 90.0911 203.646 90.04C203.529 89.9755 203.441 89.6689 203.35 89.0089C203.278 88.4918 203.17 88.0392 203.11 88.0027C202.707 87.7569 202.67 82.7023 203.067 81.9662C203.195 81.7278 203.317 81.2527 203.36 80.8147C203.414 80.2794 203.489 80.0232 203.626 79.9077C203.731 79.8195 203.847 79.5494 203.884 79.3079C203.921 79.0663 204.084 78.6758 204.245 78.4404C204.408 78.205 204.541 77.9318 204.542 77.8345C204.543 77.7372 204.64 77.562 204.759 77.4452C204.877 77.329 205.035 77.0893 205.109 76.9129C205.184 76.7371 205.365 76.4822 205.511 76.3465C205.658 76.2115 205.778 76.0563 205.778 76.0022C205.778 75.8884 205.899 75.7577 206.984 74.6949C207.424 74.2642 207.901 73.7964 208.045 73.6553C208.188 73.5141 208.362 73.3986 208.431 73.3986C208.499 73.3986 208.657 73.2848 208.78 73.1455C208.902 73.0062 209.042 72.8918 209.09 72.8918C209.137 72.8918 209.412 72.7318 209.7 72.5372C209.988 72.3419 210.304 72.1819 210.404 72.1819C210.503 72.1819 210.709 72.0852 210.861 71.9672C211.013 71.8492 211.324 71.7111 211.55 71.6612C211.777 71.6107 212.087 71.4823 212.238 71.3759C212.42 71.2487 212.848 71.1423 213.492 71.0656C214.028 71.0011 214.7 70.8862 214.983 70.8101C216.011 70.5321 217.371 70.5309 218.227 70.8071Z" fill="#FB7B3D"/>
</svg>
