<svg width="24" height="24" viewBox="0 0 24 24" fill="none" xmlns="http://www.w3.org/2000/svg">
<path d="M5.25006 3C4.38811 3 3.56146 3.34241 2.95196 3.9519C2.34247 4.5614 2.00006 5.38805 2.00006 6.25V12.75C2.00006 13.612 2.34247 14.4386 2.95196 15.0481C3.56146 15.6576 4.38811 16 5.25006 16H7.49306C7.45421 16.4106 7.26354 16.7919 6.95837 17.0693C6.6532 17.3468 6.25549 17.5003 5.84306 17.5H3.25006C3.05115 17.5 2.86038 17.579 2.71973 17.7197C2.57908 17.8603 2.50006 18.0511 2.50006 18.25V21.25C2.50006 21.664 2.83606 22 3.25006 22H6.25006C7.77506 22 9.23759 21.3942 10.3159 20.3159C11.3943 19.2375 12.0001 17.775 12.0001 16.25V16H13.7501C14.5574 16.0001 15.3358 15.6997 15.9338 15.1574C16.5318 14.615 16.9066 13.8695 16.9851 13.066L20.8651 15.393C20.9788 15.4611 21.1086 15.4977 21.2412 15.4993C21.3738 15.5009 21.5044 15.4673 21.6197 15.4019C21.7351 15.3366 21.8311 15.2418 21.8979 15.1273C21.9647 15.0128 21.9999 14.8826 22.0001 14.75V4.25C22.0001 4.11727 21.9648 3.98692 21.898 3.87225C21.8311 3.75759 21.735 3.66273 21.6195 3.59735C21.504 3.53196 21.3732 3.49841 21.2405 3.5001C21.1078 3.5018 20.9779 3.53869 20.8641 3.607L16.9841 5.934C16.9056 5.13068 16.531 4.38531 15.9332 3.84297C15.3354 3.30064 14.5572 3.00015 13.7501 3H5.25006ZM17.0001 7.675L20.5001 5.575V13.425L17.0001 11.325V7.675V7.675ZM6.25006 20.5H4.00006V19H5.84406C7.53406 19 8.91406 17.67 8.99606 16H10.5001V16.25C10.5001 16.8081 10.3901 17.3608 10.1765 17.8764C9.96297 18.392 9.64991 18.8606 9.25526 19.2552C8.86062 19.6499 8.3921 19.9629 7.87647 20.1765C7.36083 20.3901 6.80818 20.5 6.25006 20.5V20.5ZM3.50006 6.25C3.50006 5.284 4.28406 4.5 5.25006 4.5H13.7501C14.7161 4.5 15.5001 5.284 15.5001 6.25V12.75C15.5001 13.2141 15.3157 13.6592 14.9875 13.9874C14.6593 14.3156 14.2142 14.5 13.7501 14.5H5.25006C4.78593 14.5 4.34081 14.3156 4.01262 13.9874C3.68444 13.6592 3.50006 13.2141 3.50006 12.75V6.25Z" fill="#F7941D"/>
</svg>
