<svg width="36" height="45" viewBox="0 0 36 45" fill="none" xmlns="http://www.w3.org/2000/svg">
<path d="M11.513 33.2292L24.1735 20.625C25.9173 22.3611 26.7893 24.4618 26.7893 26.9271C26.7893 29.3924 25.9173 31.4931 24.1735 33.2292C22.4296 34.9653 20.3195 35.8333 17.8432 35.8333C15.3669 35.8333 13.2568 34.9653 11.513 33.2292ZM31.2884 0.3125C32.4743 0.3125 33.5032 0.746528 34.3751 1.61458C35.247 2.48264 35.683 3.50694 35.683 4.6875V40.3125C35.683 41.4931 35.247 42.5174 34.3751 43.3854C33.5032 44.2535 32.4743 44.6875 31.2884 44.6875H4.5026C3.24702 44.6875 2.18325 44.2535 1.31132 43.3854C0.439385 42.5174 0.00341797 41.4931 0.00341797 40.3125V4.6875C0.00341797 3.50694 0.439385 2.48264 1.31132 1.61458C2.18325 0.746528 3.24702 0.3125 4.5026 0.3125H31.2884ZM13.3963 4.6875C12.7685 4.6875 12.2454 4.91319 11.8269 5.36458C11.4083 5.81597 11.1991 6.33681 11.1991 6.92708C11.1991 7.51736 11.4083 8.03819 11.8269 8.48958C12.2454 8.94097 12.7685 9.16667 13.3963 9.16667C14.0241 9.16667 14.5473 8.94097 14.9658 8.48958C15.3843 8.03819 15.5936 7.51736 15.5936 6.92708C15.5936 6.33681 15.3843 5.81597 14.9658 5.36458C14.5473 4.91319 14.0241 4.6875 13.3963 4.6875ZM6.69988 4.6875C6.07208 4.6875 5.54892 4.91319 5.13039 5.36458C4.71187 5.81597 4.5026 6.33681 4.5026 6.92708C4.5026 7.51736 4.71187 8.03819 5.13039 8.48958C5.54892 8.94097 6.07208 9.16667 6.69988 9.16667C7.32767 9.16667 7.85083 8.94097 8.26936 8.48958C8.68789 8.03819 8.89715 7.51736 8.89715 6.92708C8.89715 6.33681 8.68789 5.81597 8.26936 5.36458C7.85083 4.91319 7.32767 4.6875 6.69988 4.6875ZM17.8955 40.3125C21.5925 40.3125 24.7489 39.0104 27.3647 36.4062C29.9805 33.8021 31.2884 30.6597 31.2884 26.9792C31.2884 23.2986 29.9805 20.1562 27.3647 17.5521C24.7489 14.9479 21.5925 13.6458 17.8955 13.6458C14.1985 13.6458 11.0421 14.9479 8.42631 17.5521C5.8105 20.1562 4.5026 23.2986 4.5026 26.9792C4.5026 30.6597 5.8105 33.8021 8.42631 36.4062C11.0421 39.0104 14.1985 40.3125 17.8955 40.3125Z" fill="#F7941D"/>
</svg>
