<svg width="25" height="25" viewBox="0 0 25 25" fill="none" xmlns="http://www.w3.org/2000/svg">
<path fill-rule="evenodd" clip-rule="evenodd" d="M19.1698 5.86774C18.3035 4.99574 17.2728 4.30432 16.1374 3.83352C15.0019 3.36272 13.7844 3.12191 12.5552 3.12503C7.40104 3.12503 3.20521 7.31982 3.20313 12.4761C3.20313 14.124 3.63333 15.7323 4.45104 17.1511L3.125 21.9959L8.08229 20.6948C9.45354 21.4413 10.9898 21.8327 12.551 21.8334H12.5552C17.7083 21.8334 21.9042 17.6386 21.9063 12.4823C21.9098 11.2537 21.6698 10.0365 21.2001 8.90113C20.7304 7.76579 20.0403 6.73479 19.1698 5.86774V5.86774ZM12.5552 20.2552H12.5521C11.1599 20.2554 9.79337 19.8808 8.59583 19.1709L8.3125 19.0021L5.37083 19.774L6.15521 16.9063L5.97083 16.6125C5.19249 15.3734 4.78045 13.9394 4.78229 12.4761C4.78438 8.19066 8.27083 4.7042 12.5583 4.7042C13.5794 4.70193 14.5908 4.9022 15.534 5.29342C16.4772 5.68463 17.3334 6.25903 18.0531 6.98336C18.7767 7.70424 19.3502 8.56138 19.7405 9.50524C20.1308 10.4491 20.3302 11.461 20.3271 12.4823C20.325 16.7677 16.8385 20.2552 12.5552 20.2552ZM16.8188 14.4334C16.5844 14.3157 15.4365 13.7511 15.2219 13.6729C15.0083 13.5948 14.8531 13.5563 14.6969 13.7896C14.5406 14.0229 14.0927 14.549 13.9563 14.7052C13.8198 14.8615 13.6833 14.8802 13.45 14.7636C13.2167 14.6469 12.4635 14.4 11.5708 13.6042C10.876 12.9844 10.4073 12.2198 10.2708 11.9854C10.1344 11.7511 10.2563 11.625 10.374 11.5084C10.4792 11.4042 10.6073 11.2354 10.724 11.099C10.8406 10.9625 10.8792 10.8657 10.9573 10.7094C11.0354 10.5532 10.9969 10.4167 10.9375 10.3C10.8792 10.1823 10.4115 9.03232 10.2167 8.56461C10.0281 8.11149 9.83542 8.1719 9.69167 8.16565C9.54279 8.15957 9.39379 8.15679 9.24479 8.15732C9.12631 8.16034 9.00973 8.18781 8.90236 8.238C8.79499 8.28819 8.69914 8.36002 8.62083 8.44899C8.40625 8.68336 7.80313 9.24795 7.80313 10.3979C7.80313 11.5479 8.64063 12.6594 8.75729 12.8157C8.87396 12.9719 10.4052 15.3313 12.749 16.3438C13.3073 16.5844 13.7427 16.7282 14.0813 16.8365C14.6406 17.0146 15.15 16.9886 15.5531 16.9292C16.0021 16.8625 16.9354 16.3646 17.1302 15.8188C17.325 15.2729 17.325 14.8052 17.2667 14.7073C17.2083 14.6094 17.051 14.55 16.8188 14.4334" fill="white"/>
</svg>
