<svg width="30" height="30" viewBox="0 0 30 30" fill="none" xmlns="http://www.w3.org/2000/svg">
<g clip-path="url(#clip0)">
<path d="M7.92958 25.6938L8.41998 25.9362C10.4636 27.1482 12.7523 27.7138 15.041 27.7138C22.2342 27.7138 28.1195 21.8963 28.1195 14.7861C28.1195 11.3926 26.7298 8.07986 24.2777 5.65589C21.8255 3.23191 18.5558 1.8584 15.041 1.8584C7.84791 1.8584 1.96251 7.67585 2.0443 14.8669C2.0443 17.2908 2.77996 19.634 4.00602 21.6539L4.33296 22.1387L3.02522 26.9058L7.92958 25.6938Z" fill="#00E676"/>
<path d="M25.6679 4.36309C22.8887 1.53521 19.047 0 15.1234 0C6.78599 0 0.083257 6.70622 0.164932 14.8668C0.164932 17.4524 0.900592 19.9572 2.12677 22.2195L0.00146484 29.8953L7.93026 27.8753C10.1372 29.0874 12.5894 29.653 15.0417 29.653C23.2975 29.653 30.0002 22.9466 30.0002 14.7862C30.0002 10.827 28.4471 7.11023 25.668 4.36309H25.6679ZM15.1234 27.1483C12.9164 27.1483 10.7094 26.5828 8.82939 25.4516L8.33899 25.2092L3.59809 26.4211L4.82415 21.8157L4.49722 21.3308C0.900592 15.5942 2.61717 7.999 8.50245 4.44382C14.3877 0.888765 21.9896 2.58556 25.5862 8.40301C29.1827 14.2205 27.4662 21.7347 21.581 25.2899C19.7008 26.5018 17.4122 27.1481 15.1234 27.1481V27.1483ZM22.3165 18.1798L21.4174 17.7758C21.4174 17.7758 20.1097 17.2102 19.2922 16.8061C19.2104 16.8061 19.1287 16.7253 19.047 16.7253C18.8017 16.7253 18.6382 16.8061 18.4748 16.887C18.4748 16.887 18.3931 16.9677 17.2487 18.2605C17.1669 18.4221 17.0034 18.5029 16.84 18.5029H16.7582C16.6765 18.5029 16.513 18.4221 16.4312 18.3414L16.0225 18.1798C15.1234 17.7758 14.3061 17.2909 13.6521 16.6446C13.4886 16.483 13.2434 16.3214 13.0799 16.1598C12.5077 15.5942 11.9355 14.9478 11.5269 14.2206L11.4451 14.059C11.3634 13.9781 11.3634 13.8974 11.2816 13.7358C11.2816 13.5742 11.2816 13.4127 11.3634 13.3318C11.3634 13.3318 11.6904 12.9278 11.9355 12.6855C12.0991 12.5238 12.1808 12.2815 12.3442 12.1199C12.5077 11.8775 12.5895 11.5543 12.5077 11.3119C12.426 10.9078 11.4451 8.72629 11.2 8.24154C11.0364 7.99911 10.873 7.91838 10.6278 7.83753H9.72863C9.56505 7.83753 9.4017 7.91838 9.23811 7.91838L9.15632 7.99911C8.99286 8.07996 8.82939 8.24154 8.66592 8.32228C8.50245 8.48398 8.42066 8.64544 8.2572 8.80714C7.685 9.53432 7.35807 10.4231 7.35807 11.3119C7.35807 11.9582 7.52153 12.6046 7.76679 13.1702L7.84859 13.4127C8.58425 14.9478 9.56505 16.3214 10.873 17.5333L11.2 17.8565C11.4451 18.0989 11.6904 18.2605 11.8538 18.5028C13.5704 19.9573 15.5321 21.0076 17.7391 21.5732C17.9844 21.654 18.3113 21.654 18.5566 21.7348H19.3739C19.7826 21.7348 20.273 21.5732 20.6001 21.4117C20.8452 21.2501 21.0087 21.2501 21.1721 21.0885L21.3357 20.9268C21.4992 20.7652 21.6627 20.6845 21.8261 20.5229C21.9896 20.3613 22.1531 20.1997 22.2349 20.038C22.3983 19.7149 22.48 19.3108 22.5618 18.9069V18.3414C22.5618 18.3414 22.48 18.2605 22.3165 18.1798Z" fill="white"/>
</g>
<defs>
<clipPath id="clip0">
<rect width="30" height="30" fill="white"/>
</clipPath>
</defs>
</svg>
