<svg width="25" height="25" viewBox="0 0 25 25" fill="none" xmlns="http://www.w3.org/2000/svg">
<g clip-path="url(#clip0)">
<path d="M24.4793 6.77824C24.3378 6.27328 24.062 5.8161 23.6814 5.45533C23.29 5.08346 22.8104 4.81745 22.2877 4.68241C20.3314 4.16679 12.4939 4.16679 12.4939 4.16679C9.22654 4.12961 5.95998 4.29311 2.71266 4.65637C2.18994 4.80138 1.71116 5.07334 1.3189 5.44804C0.933488 5.81887 0.654321 6.27616 0.508488 6.7772C0.158168 8.66444 -0.0120412 10.5807 0.000154618 12.5001C-0.0123454 14.4178 0.157446 16.3335 0.508488 18.223C0.651196 18.722 0.929321 19.1772 1.31578 19.5449C1.70224 19.9126 2.18349 20.1782 2.71266 20.3189C4.69495 20.8335 12.4939 20.8335 12.4939 20.8335C15.7654 20.8707 19.0362 20.7072 22.2877 20.3439C22.8104 20.2088 23.29 19.9428 23.6814 19.571C24.0668 19.2032 24.3408 18.746 24.4783 18.248C24.8377 16.3615 25.0125 14.4445 25.0002 12.5241C25.0272 10.5955 24.8526 8.66946 24.4793 6.7772V6.77824ZM10.0022 16.0668V8.93449L16.5231 12.5012L10.0022 16.0668Z" fill="white"/>
</g>
<defs>
<clipPath id="clip0">
<rect width="25" height="25" fill="white"/>
</clipPath>
</defs>
</svg>
