<svg width="30" height="30" viewBox="0 0 30 30" fill="none" xmlns="http://www.w3.org/2000/svg">
<g clip-path="url(#clip0)">
<path d="M29.4025 7.73164C29.2329 7.09341 28.8986 6.51092 28.4332 6.04246C27.9677 5.574 27.3874 5.23602 26.7502 5.06232C24.4048 4.43164 15.0298 4.43164 15.0298 4.43164C15.0298 4.43164 5.65478 4.43164 3.30933 5.06232C2.6722 5.23602 2.09186 5.574 1.62639 6.04246C1.16093 6.51092 0.826667 7.09341 0.657058 7.73164C0.0297852 10.0873 0.0297852 14.9998 0.0297852 14.9998C0.0297852 14.9998 0.0297852 19.9123 0.657058 22.268C0.826667 22.9062 1.16093 23.4887 1.62639 23.9572C2.09186 24.4256 2.6722 24.7636 3.30933 24.9373C5.65478 25.568 15.0298 25.568 15.0298 25.568C15.0298 25.568 24.4048 25.568 26.7502 24.9373C27.3874 24.7636 27.9677 24.4256 28.4332 23.9572C28.8986 23.4887 29.2329 22.9062 29.4025 22.268C30.0298 19.9123 30.0298 14.9998 30.0298 14.9998C30.0298 14.9998 30.0298 10.0873 29.4025 7.73164Z" fill="#FF0302"/>
<path d="M11.9614 19.4607V10.5391L19.8023 14.9999L11.9614 19.4607Z" fill="#FEFEFE"/>
</g>
<defs>
<clipPath id="clip0">
<rect width="30" height="30" fill="white"/>
</clipPath>
</defs>
</svg>
