<svg width="200" height="60" viewBox="0 0 200 60" fill="none" xmlns="http://www.w3.org/2000/svg">
<g clip-path="url(#clip0)">
<path d="M17.9033 22.0689L17.9034 22.069C19.0557 22.7466 20.3682 23.1039 21.705 23.1039C23.0415 23.1039 24.3538 22.7467 25.506 22.0693L17.9033 22.0689ZM17.9033 22.0689L13.5179 19.4917L5.19571 14.3557C7.79755 10.1669 11.4095 6.69471 15.7035 4.25978C20.1406 1.74372 25.1542 0.421143 30.255 0.421143C35.3557 0.421143 40.3694 1.74372 44.8064 4.25978C49.0997 6.69434 52.7113 10.1658 55.313 14.3538L46.9532 19.461L42.507 22.0687L42.5065 22.069C41.3542 22.7466 40.0417 23.1039 38.705 23.1039C37.3682 23.1039 36.0557 22.7466 34.9034 22.069L34.514 21.8393L34.5134 21.839C33.2074 21.0711 31.72 20.6662 30.205 20.6662C28.69 20.6662 27.2025 21.0711 25.8965 21.839L25.896 21.8393L25.5065 22.069L17.9033 22.0689ZM34.6728 45.2454C34.6727 45.2454 34.6726 45.2455 34.6726 45.2455C33.33 46.0749 31.7831 46.5143 30.205 46.5143C28.6268 46.5143 27.0798 46.0749 25.7372 45.2454L34.6728 45.2454ZM34.6728 45.2454L47.472 37.3458L47.4726 37.3455L59.71 29.8148V29.8164V29.8184V29.8204V29.8224V29.8244V29.8264V29.8284V29.8304V29.8324V29.8344V29.8363V29.8383V29.8403V29.8423V29.8443V29.8463V29.8483V29.8503V29.8523V29.8543V29.8563V29.8583V29.8602V29.8622V29.8642V29.8662V29.8682V29.8702V29.8722V29.8742V29.8762V29.8782V29.8802V29.8822V29.8841V29.8861V29.8881V29.8901V29.8921V29.8941V29.8961V29.8981V29.9001V29.9021V29.9041V29.9061V29.9081V29.91V29.912V29.914V29.916V29.918V29.92C59.71 37.7439 56.6019 45.2473 51.0696 50.7797C45.5373 56.312 38.0338 59.42 30.21 59.42C22.3861 59.42 14.8826 56.312 9.35031 50.7797C3.81799 45.2473 0.709961 37.7439 0.709961 29.92V29.9181V29.9163V29.9144V29.9125V29.9106V29.9087V29.9069V29.905V29.9031V29.9012V29.8994V29.8975V29.8956V29.8937V29.8918V29.8899V29.8881V29.8862V29.8843V29.8824V29.8805V29.8786V29.8768V29.8749V29.873V29.8711V29.8692V29.8673V29.8654V29.8636V29.8617V29.8598V29.8579V29.856V29.8541V29.8522V29.8503V29.8484V29.8465V29.8447V29.8428V29.8409V29.839V29.8371V29.8352V29.8333V29.8314V29.8295V29.8276V29.8257V29.8238V29.8219V29.82V29.8181V29.8162V29.8148L12.9473 37.3455L12.9479 37.3458L15.2472 38.7654L15.2473 38.7655L25.7372 45.2454H34.6728ZM47.71 33.4535V22.7788L56.7949 17.1645C58.1654 20.0099 59.0672 23.0586 59.465 26.1927L47.71 33.4535ZM12.6915 33.4544L0.934837 26.1927C1.33232 23.0583 2.23426 20.0094 3.60522 17.164L12.7095 22.7788L12.6915 33.4544Z" fill="#E95258" stroke="#E95258"/>
<path d="M83.7979 23.2031L87.085 32.4844L90.3545 23.2031H93.8174V36H91.1719V32.502L91.4355 26.4639L87.9814 36H86.1709L82.7256 26.4727L82.9893 32.502V36H80.3525V23.2031H83.7979ZM101.464 36C101.347 35.7715 101.262 35.4873 101.209 35.1475C100.594 35.833 99.7939 36.1758 98.8096 36.1758C97.8779 36.1758 97.1045 35.9062 96.4893 35.3672C95.8799 34.8281 95.5752 34.1484 95.5752 33.3281C95.5752 32.3203 95.9473 31.5469 96.6914 31.0078C97.4414 30.4688 98.5225 30.1963 99.9346 30.1904H101.104V29.6455C101.104 29.2061 100.989 28.8545 100.761 28.5908C100.538 28.3271 100.184 28.1953 99.6973 28.1953C99.2695 28.1953 98.9326 28.2979 98.6865 28.5029C98.4463 28.708 98.3262 28.9893 98.3262 29.3467H95.7861C95.7861 28.7959 95.9561 28.2861 96.2959 27.8174C96.6357 27.3486 97.1162 26.9824 97.7373 26.7188C98.3584 26.4492 99.0557 26.3145 99.8291 26.3145C101.001 26.3145 101.93 26.6104 102.615 27.2021C103.307 27.7881 103.652 28.6143 103.652 29.6807V33.8027C103.658 34.7051 103.784 35.3877 104.03 35.8506V36H101.464ZM99.3633 34.2334C99.7383 34.2334 100.084 34.1514 100.4 33.9873C100.717 33.8174 100.951 33.5918 101.104 33.3105V31.6758H100.154C98.8828 31.6758 98.2061 32.1152 98.124 32.9941L98.1152 33.1436C98.1152 33.46 98.2266 33.7207 98.4492 33.9258C98.6719 34.1309 98.9766 34.2334 99.3633 34.2334ZM110.754 33.3721C110.754 33.0615 110.599 32.8184 110.288 32.6426C109.983 32.4609 109.491 32.2998 108.812 32.1592C106.55 31.6846 105.419 30.7236 105.419 29.2764C105.419 28.4326 105.768 27.7295 106.465 27.167C107.168 26.5986 108.085 26.3145 109.216 26.3145C110.423 26.3145 111.387 26.5986 112.107 27.167C112.834 27.7354 113.197 28.4736 113.197 29.3818H110.657C110.657 29.0186 110.54 28.7197 110.306 28.4854C110.071 28.2451 109.705 28.125 109.207 28.125C108.779 28.125 108.448 28.2217 108.214 28.415C107.979 28.6084 107.862 28.8545 107.862 29.1533C107.862 29.4346 107.994 29.6631 108.258 29.8389C108.527 30.0088 108.979 30.1582 109.611 30.2871C110.244 30.4102 110.777 30.5508 111.211 30.709C112.553 31.2012 113.224 32.0537 113.224 33.2666C113.224 34.1338 112.852 34.8369 112.107 35.376C111.363 35.9092 110.402 36.1758 109.225 36.1758C108.428 36.1758 107.719 36.0352 107.098 35.7539C106.482 35.4668 105.999 35.0771 105.647 34.585C105.296 34.0869 105.12 33.5508 105.12 32.9766H107.528C107.552 33.4277 107.719 33.7734 108.029 34.0137C108.34 34.2539 108.756 34.374 109.277 34.374C109.764 34.374 110.13 34.2832 110.376 34.1016C110.628 33.9141 110.754 33.6709 110.754 33.3721ZM118.321 32.1855L117.407 33.0996V36H114.867V22.5H117.407V29.9795L117.899 29.3467L120.334 26.4902H123.384L119.947 30.4541L123.683 36H120.765L118.321 32.1855ZM129.422 31.5439H124.474V29.4961H129.422V31.5439ZM137.297 30.8848C136.635 31.5352 135.861 31.8604 134.977 31.8604C133.846 31.8604 132.94 31.4736 132.261 30.7002C131.581 29.9209 131.241 28.8721 131.241 27.5537C131.241 26.7158 131.423 25.9482 131.786 25.251C132.155 24.5479 132.668 24.0029 133.324 23.6162C133.98 23.2236 134.719 23.0273 135.539 23.0273C136.383 23.0273 137.133 23.2383 137.789 23.6602C138.445 24.082 138.955 24.6885 139.318 25.4795C139.682 26.2705 139.866 27.1758 139.872 28.1953V29.1357C139.872 31.2686 139.342 32.9443 138.281 34.1631C137.221 35.3818 135.718 36.0322 133.772 36.1143L133.148 36.123V34.0049L133.711 33.9961C135.92 33.8965 137.115 32.8594 137.297 30.8848ZM135.601 29.918C136.011 29.918 136.362 29.8125 136.655 29.6016C136.954 29.3906 137.18 29.1357 137.332 28.8369V27.791C137.332 26.9297 137.168 26.2617 136.84 25.7871C136.512 25.3125 136.072 25.0752 135.521 25.0752C135.012 25.0752 134.593 25.3096 134.265 25.7783C133.937 26.2412 133.772 26.8242 133.772 27.5273C133.772 28.2246 133.931 28.7988 134.247 29.25C134.569 29.6953 135.021 29.918 135.601 29.918ZM142.069 29.707L142.808 23.2031H149.979V25.3213H144.891L144.574 28.0723C145.178 27.75 145.819 27.5889 146.499 27.5889C147.718 27.5889 148.673 27.9668 149.364 28.7227C150.056 29.4785 150.401 30.5361 150.401 31.8955C150.401 32.7217 150.226 33.4629 149.874 34.1191C149.528 34.7695 149.03 35.2764 148.38 35.6396C147.729 35.9971 146.962 36.1758 146.077 36.1758C145.304 36.1758 144.586 36.0205 143.924 35.71C143.262 35.3936 142.737 34.9512 142.351 34.3828C141.97 33.8145 141.768 33.167 141.744 32.4404H144.258C144.311 32.9736 144.495 33.3896 144.812 33.6885C145.134 33.9814 145.553 34.1279 146.068 34.1279C146.643 34.1279 147.085 33.9229 147.396 33.5127C147.706 33.0967 147.861 32.5107 147.861 31.7549C147.861 31.0283 147.683 30.4717 147.325 30.085C146.968 29.6982 146.461 29.5049 145.805 29.5049C145.201 29.5049 144.712 29.6631 144.337 29.9795L144.091 30.208L142.069 29.707Z" fill="black"/>
</g>
<defs>
<clipPath id="clip0">
<rect width="200" height="60" fill="white"/>
</clipPath>
</defs>
</svg>
