<svg width="24" height="24" viewBox="0 0 24 24" fill="none" xmlns="http://www.w3.org/2000/svg">
<path d="M23.6663 19.9568L20.2825 23.3134C19.7831 23.8257 19.121 23.9992 18.4762 24C15.6248 23.9146 12.9296 22.5139 10.7166 21.0757C7.08416 18.4331 3.75124 15.1564 1.65944 11.1966C0.85716 9.53618 -0.0842005 7.41756 0.00573946 5.56418C0.0137595 4.86698 0.201639 4.18272 0.692659 3.73332L4.07638 0.351297C4.77902 -0.246363 5.45852 -0.0397228 5.90816 0.656437L8.63038 5.81848C8.9169 6.43002 8.75254 7.08526 8.32506 7.52224L7.07842 8.76824C7.00146 8.87366 6.95246 8.99366 6.95122 9.12426C7.42926 10.9747 8.87748 12.6802 10.1568 13.854C11.4362 15.0277 12.8113 16.6179 14.5964 16.9944C14.817 17.0559 15.0873 17.0776 15.2451 16.9308L16.6953 15.456C17.1953 15.0771 17.9171 14.8919 18.4508 15.2017H18.4762L23.3864 18.1005C24.1072 18.5524 24.1824 19.4256 23.6663 19.9568Z" fill="#E95258"/>
</svg>
