<svg width="90" height="67" viewBox="0 0 90 67" fill="none" xmlns="http://www.w3.org/2000/svg">
<path d="M5.90164 15.377L90 0L86.1271 51.623L0 67L5.90164 15.377Z" fill="white"/>
<path d="M61.7843 28.2007H32V54H61.7843V28.2007Z" fill="#2A2A2A"/>
<path d="M55.8275 40.4553H52.1045V44.3252H55.8275V40.4553Z" fill="white"/>
<path d="M55.8275 37.2304H52.1045V40.4553H55.8275V37.2304Z" fill="white"/>
<path d="M55.8275 34.0055H41.6799V37.2304H55.8275V34.0055Z" fill="white"/>
<path d="M46.7247 44.0923V37.2304H41.6799V44.0923V47.5502H46.7247H55.8275V44.0923H46.7247Z" fill="white"/>
<path d="M45.291 10.7861L32 28.2007L35.2242 29.5893L49.0141 11.1085L45.291 10.7861Z" fill="#2A2A2A"/>
<path d="M47.5248 13.0436L58.5806 30.2344L61.7842 28.2008L49.014 11.1086L47.5248 13.0436Z" fill="#2A2A2A"/>
</svg>
