<svg width="244" height="61" viewBox="0 0 244 61" fill="none" xmlns="http://www.w3.org/2000/svg">
<path d="M16 14L244 0L233.5 47L0 61L16 14Z" fill="white"/>
<path d="M64.7843 30.2007H35V56.0001H64.7843V30.2007Z" fill="#2A2A2A"/>
<path d="M58.8274 42.4554H55.1044V46.3253H58.8274V42.4554Z" fill="white"/>
<path d="M58.8274 39.2305H55.1044V42.4554H58.8274V39.2305Z" fill="white"/>
<path d="M58.8274 36.0056H44.6798V39.2305H58.8274V36.0056Z" fill="white"/>
<path d="M49.7246 46.0924V39.2305H44.6798V46.0924V49.5502H49.7246H58.8274V46.0924H49.7246Z" fill="white"/>
<path d="M48.291 12.7861L35 30.2008L38.2242 31.5894L52.0141 13.1086L48.291 12.7861Z" fill="#2A2A2A"/>
<path d="M50.5248 15.0436L61.5806 32.2344L64.7842 30.2008L52.014 13.1086L50.5248 15.0436Z" fill="#2A2A2A"/>
<path d="M89.3828 32.625L92.9336 24.9375H96.7773L91.1758 35.8125V42H87.6016V35.8125L82 24.9375H85.8555L89.3828 32.625ZM96.8125 35.543C96.8125 34.2852 97.0547 33.1641 97.5391 32.1797C98.0234 31.1953 98.7188 30.4336 99.625 29.8945C100.539 29.3555 101.598 29.0859 102.801 29.0859C104.512 29.0859 105.906 29.6094 106.984 30.6562C108.07 31.7031 108.676 33.125 108.801 34.9219L108.824 35.7891C108.824 37.7344 108.281 39.2969 107.195 40.4766C106.109 41.6484 104.652 42.2344 102.824 42.2344C100.996 42.2344 99.5352 41.6484 98.4414 40.4766C97.3555 39.3047 96.8125 37.7109 96.8125 35.6953V35.543ZM100.199 35.7891C100.199 36.9922 100.426 37.9141 100.879 38.5547C101.332 39.1875 101.98 39.5039 102.824 39.5039C103.645 39.5039 104.285 39.1914 104.746 38.5664C105.207 37.9336 105.438 36.9258 105.438 35.543C105.438 34.3633 105.207 33.4492 104.746 32.8008C104.285 32.1523 103.637 31.8281 102.801 31.8281C101.973 31.8281 101.332 32.1523 100.879 32.8008C100.426 33.4414 100.199 34.4375 100.199 35.7891ZM118.504 40.7109C117.668 41.7266 116.512 42.2344 115.035 42.2344C113.676 42.2344 112.637 41.8438 111.918 41.0625C111.207 40.2812 110.844 39.1367 110.828 37.6289V29.3203H114.215V37.5117C114.215 38.832 114.816 39.4922 116.02 39.4922C117.168 39.4922 117.957 39.0938 118.387 38.2969V29.3203H121.785V42H118.598L118.504 40.7109ZM131.465 32.4961C131.004 32.4336 130.598 32.4023 130.246 32.4023C128.965 32.4023 128.125 32.8359 127.727 33.7031V42H124.34V29.3203H127.539L127.633 30.832C128.312 29.668 129.254 29.0859 130.457 29.0859C130.832 29.0859 131.184 29.1367 131.512 29.2383L131.465 32.4961ZM139.691 36.0586H133.094V33.3281H139.691V36.0586ZM146.148 35.9883V42H142.633V24.9375H149.289C150.57 24.9375 151.695 25.1719 152.664 25.6406C153.641 26.1094 154.391 26.7773 154.914 27.6445C155.438 28.5039 155.699 29.4844 155.699 30.5859C155.699 32.2578 155.125 33.5781 153.977 34.5469C152.836 35.5078 151.254 35.9883 149.23 35.9883H146.148ZM146.148 33.1406H149.289C150.219 33.1406 150.926 32.9219 151.41 32.4844C151.902 32.0469 152.148 31.4219 152.148 30.6094C152.148 29.7734 151.902 29.0977 151.41 28.582C150.918 28.0664 150.238 27.8008 149.371 27.7852H146.148V33.1406ZM161.477 42H158.078V24H161.477V42ZM171.625 42C171.469 41.6953 171.355 41.3164 171.285 40.8633C170.465 41.7773 169.398 42.2344 168.086 42.2344C166.844 42.2344 165.812 41.875 164.992 41.1562C164.18 40.4375 163.773 39.5312 163.773 38.4375C163.773 37.0938 164.27 36.0625 165.262 35.3438C166.262 34.625 167.703 34.2617 169.586 34.2539H171.145V33.5273C171.145 32.9414 170.992 32.4727 170.688 32.1211C170.391 31.7695 169.918 31.5938 169.27 31.5938C168.699 31.5938 168.25 31.7305 167.922 32.0039C167.602 32.2773 167.441 32.6523 167.441 33.1289H164.055C164.055 32.3945 164.281 31.7148 164.734 31.0898C165.188 30.4648 165.828 29.9766 166.656 29.625C167.484 29.2656 168.414 29.0859 169.445 29.0859C171.008 29.0859 172.246 29.4805 173.16 30.2695C174.082 31.0508 174.543 32.1523 174.543 33.5742V39.0703C174.551 40.2734 174.719 41.1836 175.047 41.8008V42H171.625ZM168.824 39.6445C169.324 39.6445 169.785 39.5352 170.207 39.3164C170.629 39.0898 170.941 38.7891 171.145 38.4141V36.2344H169.879C168.184 36.2344 167.281 36.8203 167.172 37.9922L167.16 38.1914C167.16 38.6133 167.309 38.9609 167.605 39.2344C167.902 39.5078 168.309 39.6445 168.824 39.6445ZM182.418 39.5039C183.043 39.5039 183.551 39.332 183.941 38.9883C184.332 38.6445 184.535 38.1875 184.551 37.6172H187.727C187.719 38.4766 187.484 39.2656 187.023 39.9844C186.562 40.6953 185.93 41.25 185.125 41.6484C184.328 42.0391 183.445 42.2344 182.477 42.2344C180.664 42.2344 179.234 41.6602 178.188 40.5117C177.141 39.3555 176.617 37.7617 176.617 35.7305V35.5078C176.617 33.5547 177.137 31.9961 178.176 30.832C179.215 29.668 180.641 29.0859 182.453 29.0859C184.039 29.0859 185.309 29.5391 186.262 30.4453C187.223 31.3438 187.711 32.543 187.727 34.043H184.551C184.535 33.3867 184.332 32.8555 183.941 32.4492C183.551 32.0352 183.035 31.8281 182.395 31.8281C181.605 31.8281 181.008 32.1172 180.602 32.6953C180.203 33.2656 180.004 34.1953 180.004 35.4844V35.8359C180.004 37.1406 180.203 38.0781 180.602 38.6484C181 39.2188 181.605 39.5039 182.418 39.5039ZM195.496 42.2344C193.637 42.2344 192.121 41.6641 190.949 40.5234C189.785 39.3828 189.203 37.8633 189.203 35.9648V35.6367C189.203 34.3633 189.449 33.2266 189.941 32.2266C190.434 31.2188 191.129 30.4453 192.027 29.9062C192.934 29.3594 193.965 29.0859 195.121 29.0859C196.855 29.0859 198.219 29.6328 199.211 30.7266C200.211 31.8203 200.711 33.3711 200.711 35.3789V36.7617H192.637C192.746 37.5898 193.074 38.2539 193.621 38.7539C194.176 39.2539 194.875 39.5039 195.719 39.5039C197.023 39.5039 198.043 39.0312 198.777 38.0859L200.441 39.9492C199.934 40.668 199.246 41.2305 198.379 41.6367C197.512 42.0352 196.551 42.2344 195.496 42.2344ZM195.109 31.8281C194.438 31.8281 193.891 32.0547 193.469 32.5078C193.055 32.9609 192.789 33.6094 192.672 34.4531H197.383V34.1836C197.367 33.4336 197.164 32.8555 196.773 32.4492C196.383 32.0352 195.828 31.8281 195.109 31.8281Z" fill="#2A2A2A"/>
</svg>
